<svg fill="none" xmlns="http://www.w3.org/2000/svg" viewBox="0 0 67 63">
  <path d="m34.4153 62.8511-.0665-2.6576c.8637 0 1.7274-.0664 2.5247-.1993l.2658 2.6576c-.9302.1328-1.8603.1993-2.724.1993Zm-2.7905 0c-.9301-.0665-1.8602-.1329-2.7904-.2658l.3986-2.6575c.8637.1328 1.661.1993 2.5247.2657l-.1329 2.6576Zm8.2384-.598-.5315-2.5911c.7973-.1993 1.661-.3986 2.4583-.5979l.7308 2.5246c-.7973.2658-1.7274.4651-2.6576.6644Zm-13.7528-.2657c-.8637-.1993-1.7938-.4651-2.6575-.7973l.8637-2.5247c.7972.2658 1.5945.5315 2.4582.7309l-.6644 2.5911Zm19.068-1.3288-.9966-2.4582c.7972-.3322 1.5281-.6644 2.3253-1.0631l1.1959 2.3918c-.7972.4651-1.6609.7973-2.5246 1.1295Zm-24.3166-.4651c-.8637-.3986-1.661-.7972-2.4583-1.2623l1.2624-2.3254c.7308.3987 1.528.7973 2.2589 1.1295l-1.063 2.4582Zm29.2995-1.9931-1.3953-2.259c.7309-.465 1.3953-.9301 2.1261-1.4616l1.5945 2.126c-.7972.598-1.5281 1.1295-2.3253 1.5946Zm-34.1496-.6644c-.6644-.4651-1.3952-.9302-1.9931-1.4617l-.1994-.1993 1.661-2.0596.1993.1329c.598.4651 1.1959.9301 1.8603 1.3288l-1.5281 2.2589Zm38.601-2.6576-1.7939-1.9931c.598-.5315 1.2623-1.1295 1.7939-1.7939l1.9267 1.7939c-.598.7308-1.2624 1.3952-1.9267 1.9931Zm3.787-4.0527-2.1261-1.661c.5315-.6644.9966-1.3288 1.4617-2.0596l2.2589 1.4616c-.5315.7973-1.063 1.5281-1.5945 2.259Zm2.9897-4.6508-2.3253-1.2623c.3986-.7308.7308-1.5281 1.063-2.3253l2.4582 1.063c-.3322.8637-.7308 1.7274-1.1959 2.5246Zm2.1925-5.1157-2.5247-.7973c.2658-.7973.4651-1.5945.6644-2.4582l2.5911.5979c-.1993.8637-.4651 1.7939-.7308 2.6576Zm1.1959-5.3816-2.6576-.3322c.1329-.8637.1994-1.6609.1994-2.5246l2.6575.1328c0 .8637-.0664 1.7939-.1993 2.724Zm-2.3918-5.448c-.0664-.8637-.1329-1.7274-.1993-2.5246l2.6575-.3322c.1329.9301.1993 1.8603.2658 2.7904l-2.724.0664ZM4.18564 42.5208c-.3322-.8637-.59795-1.7274-.86371-2.6575l2.52468-.6644c.19931.7972.46507 1.5945.79726 2.3918l-2.45823.9301Zm-1.52809-5.3151c-.19932-.9301-.26576-1.8603-.39864-2.724l2.65755-.2657c.13288.7972.19932 1.6609.39864 2.5246l-2.65755.4651Zm-.46508-5.5144v-.2658c0-.8637.06644-1.6609.13288-2.5246l2.65755.1993c-.06644.7973-.06644 1.5281-.06644 2.3253v.1994l-2.72399.0664Zm3.05619-5.1158-2.59111-.4651c.13287-.9301.33219-1.7938.59794-2.7239l2.59112.6643c-.3322.8637-.46507 1.7274-.59795 2.5247Zm1.26234-4.85-2.52468-.9302c.3322-.8637.66439-1.7274 1.06302-2.5911l2.3918 1.1295c-.3322.7973-.66439 1.5945-.93014 2.3918Zm2.12604-4.6507L6.31168 15.746c.46507-.7973.93014-1.5945 1.46165-2.3254l2.19248 1.5281c-.46507.6644-.93014 1.3952-1.32877 2.1261Zm2.92326-4.1192-2.05956-1.7274c.59796-.7309 1.19586-1.39526 1.86026-2.05965l1.8603 1.86025c-.5315.6644-1.1294 1.2624-1.661 1.9268Zm3.5877-3.58773-1.7274-2.0596c.7309-.59795 1.4617-1.12946 2.1925-1.66097l1.5281 2.19248c-.6644.46507-1.3288.99658-1.9932 1.52809Zm4.1857-2.92331L18.0049 4.1192c.7973-.46507 1.661-.8637 2.4582-1.26233l1.1295 2.45823c-.7973.3322-1.5281.73083-2.2589 1.12946Zm26.8412-.93014c-.7308-.39863-1.528-.73083-2.3253-.99658l.9301-2.45824c.8637.3322 1.7274.66439 2.5247 1.12946l-1.1295 2.32536ZM23.918 4.31852l-.8637-2.52467c.8637-.3322 1.7274-.59795 2.6575-.797268l.6644 2.591108c-.8637.19932-1.661.46508-2.4582.73083Zm17.4734-.59795c-.7973-.19931-1.661-.39863-2.4583-.59795l.4651-2.59111c.9301.199317 1.7938.398633 2.724.59795l-.7308 2.59111Zm-12.557-.66439-.465-2.591109c.9301-.132877 1.8602-.265755 2.7239-.332193l.1994 2.657552c-.7973 0-1.661.13288-2.4583.26575Zm7.574-.26575c-.8637-.06644-1.6609-.13288-2.5246-.13288V0c.9301 0 1.8603.0664388 2.7904.132878l-.2658 2.657552Z" fill="#F86A2E"/>
  <path d="M33.618 53.151c-7.0425 0-13.6864-3.4548-17.7391-9.235l2.1925-1.5281c3.5212 5.0494 9.3678 8.1056 15.5466 8.1056 10.4974 0 19.068-8.5706 19.068-19.068 0-1.7938-.2658-3.5877-.7309-5.3151l2.5247-.7308c.598 1.9932.8637 3.9863.8637 6.0459-.0664 11.959-9.7665 21.7255-21.7255 21.7255ZM11.959 33.2194c-.0665-.598-.0665-1.1959-.0665-1.7274 0-11.959 9.7665-21.72551 21.7255-21.72551 5.448 0 10.6302 1.99321 14.6166 5.71371l-1.7939 1.9932c-3.5212-3.1891-8.1055-4.9829-12.8227-4.9829-10.4973 0-19.0679 8.5706-19.0679 19.0679 0 .5315 0 1.063.0664 1.5281l-2.6575.1329Z" fill="#fff"/>
  <path d="M6.11237 56.4065 0 50.6928l27.9043-29.5653L38.003 29.831l14.8823-14.4172h-3.9199V7.04251h17.6727V24.7152h-8.3713v-2.8568L38.3352 41.1256l-9.833-8.4377L6.11237 56.4065Zm-2.32536-5.8466 2.19248 2.1261L28.3029 29.0337l9.9658 8.5042 22.6557-21.9912v6.4445h3.0561V9.70006H51.6894v3.05614h7.8397L38.1359 33.4187l-10.0323-8.637L3.78701 50.5599Z" fill="#F86A2E"/>
</svg>