<svg fill="none" xmlns="http://www.w3.org/2000/svg" viewBox="0 0 59 66">
  <path d="m29.0337 65.3093-2.126-.5979C15.3474 61.323 0 54.4798 0 34.2824V7.77334l8.76992 1.39521c1.99318.3322 4.31848.26576 6.57748-.19931 3.4548-.66439 6.5774-2.05961 8.3712-3.78701L29.0337 0l5.3152 5.18223c1.7274 1.7274 4.9164 3.12262 8.3712 3.78701 2.259.39863 4.5843.46507 6.5775.19931l8.7699-1.39521V34.2824c0 20.1974-15.3474 27.0406-26.9077 30.3625l-2.1261.6644ZM2.65755 10.896v23.3864c0 18.4036 14.21785 24.7152 24.98095 27.8379l1.3952.3986 1.3953-.3986c22.3898-6.511 24.9809-19.0015 24.9809-27.8379V10.896l-5.7137.8637c-2.3253.3322-4.9165.2657-7.4411-.1994-3.9864-.7308-7.6405-2.39175-9.7665-4.51779l-3.4549-3.38838-3.4548 3.38838c-2.126 2.0596-5.7801 3.78699-9.7665 4.51779-2.5911.4651-5.1822.5316-7.44111.1994l-5.71374-.8637Z" fill="#F86A2E"/>
  <path d="m29.0337 59.7949-.6643-.1993C7.90621 53.6161 5.31509 42.9195 5.31509 34.2824V14.0186l2.65756.3986c2.59115.3987 5.51445.3322 8.37125-.1993 4.5179-.8637 8.5706-2.724 11.0953-5.18222l1.5945-1.59453 1.5946 1.59453c2.5246 2.45822 6.5774 4.38492 11.0952 5.18222 2.8569.5315 5.7802.598 8.3713.1993l2.6576-.3986v20.3303c0 16.4103-12.2912 22.1241-23.0543 25.3131l-.6644.1329ZM7.97265 17.0748v17.2076c0 7.7069 2.39175 17.2077 21.06105 22.7221 18.6693-5.448 21.0611-15.0152 21.0611-22.7221V17.0748c-2.7904.3986-5.7801.2657-8.8363-.2658-4.9165-.9301-9.3015-2.9897-12.2248-5.6473-2.9233 2.724-7.3082 4.7836-12.2247 5.6473-2.9897.598-6.0459.6644-8.83635.2658Z" fill="#fff"/>
  <path d="M30.4954 9.43431h-2.6576V22.0577h2.6576V9.43431ZM30.4954 46.64h-2.6576v11.2946h2.6576V46.64Z" fill="#fff"/>
  <path d="M29.0337 48.0352c-7.574 0-13.7528-6.1788-13.7528-13.7528 0-7.574 6.1788-13.7528 13.7528-13.7528 7.5741 0 13.7529 6.1788 13.7529 13.7528 0 7.574-6.1788 13.7528-13.7529 13.7528Zm0-24.8481c-6.1123 0-11.0952 4.9829-11.0952 11.0953s4.9829 11.0953 11.0952 11.0953c6.1124 0 11.0953-4.9829 11.0953-11.0953s-4.9829-11.0953-11.0953-11.0953Z" fill="#F86A2E"/>
  <path d="m28.17 40.129-4.9829-3.189 1.4617-2.1925 2.9233 1.8603 5.1822-6.511 2.1261 1.6609L28.17 40.129Z" fill="#F86A2E"/>
</svg>