<svg fill="none" xmlns="http://www.w3.org/2000/svg" viewBox="0 0 63 63">
  <path d="M40.6669 62.9044c-8.9585 0-19.1255-5.1191-27.5863-14.0064C4.12222 40.0107-.641379 29.6303.0696063 20.4586v-.4266L.354 19.6765c.71099-.8532 1.35087-1.5642 1.99076-2.204 1.42197-1.422 3.05723-2.7018 4.7636-3.7683l1.13758-.7109.78208 1.1375c2.48848 3.7683 5.33238 7.5365 8.38958 11.2336l.711.9243-.711.9243c-.0711.1422-.2844.2844-.4976.4265l-3.6261 2.4174c-.2133.1422-.2844.3555-.2844.4977-.0711.4977.0711 1.0665.3555 1.4931.9954 1.4219 5.048 5.9722 8.2475 9.3139 3.2705 3.1283 7.8919 7.1809 9.3139 8.1763.4977.3555 1.0664.4977 1.493.3555.1422 0 .3555-.0711.4977-.2844l.8532-1.2798c.4977-.7821.9954-1.5642 1.5642-2.3462.1422-.2133.3555-.3555.4266-.4977l.9242-.711.9243.711c3.6971 3.0572 7.4654 5.8301 11.2336 8.3896l1.1376.7821-.711 1.1376c-1.0665 1.7063-2.3463 3.2705-3.7682 4.7636-.711.6398-1.422 1.2797-2.2752 1.9907l-.3555.2844h-.4266c-.5688.0711-1.1376.0711-1.7774.0711ZM2.84245 21.0985c-.2133 4.2659.71098 14.3619 12.30005 25.8087 8.3185 8.7452 18.2012 13.5799 26.6619 13.1533.6399-.4977 1.1376-.9954 1.6353-1.4931.9243-.9243 1.8486-1.9908 2.6306-3.1283-3.0572-2.0619-6.1144-4.337-9.1006-6.7544-.2844.4266-.4977.7821-.782 1.2087l-.8532 1.2798c-.4977.782-1.3509 1.3508-2.3463 1.493-1.2087.2133-2.5595-.0711-3.6971-.8532-1.7775-1.2086-6.7544-5.7589-9.6694-8.4607l-.0711-.0711c-2.7017-2.8439-7.3231-7.963-8.5318-9.6694-.7821-1.1376-1.0665-2.4173-.8532-3.6971.2133-.9954.711-1.8486 1.4931-2.3462l2.4884-1.6353c-2.4173-2.9862-4.69249-6.0434-6.75435-9.1006-1.13757.7821-2.13295 1.6352-3.12833 2.6306-.35549.4977-.85318.9954-1.42197 1.6353ZM36.6853 46.6229l.9243 1.1375-.9243-1.1375Z" fill="#F86A2E"/>
  <path d="M35.1923 38.2332H22.1101l-.0711-1.2797c0-.1422-.2133-3.2706 2.4885-7.181 1.1376-1.7064 3.1283-3.0572 5.048-4.4081 1.9907-1.3509 4.1948-2.915 4.1948-4.1237v-.7821c0-2.3463-1.9197-4.1948-4.1948-4.1948-2.3463 0-4.1948 1.9196-4.1948 4.1948h-2.844c0-3.9104 3.1995-7.0388 7.0388-7.0388 3.9104 0 7.0387 3.1995 7.0387 7.0388v.7821c0 2.6306-2.6306 4.4792-5.4746 6.4699-1.7063 1.2087-3.4838 2.4174-4.337 3.6972-1.1375 1.6352-1.6352 3.1283-1.8485 4.0526h10.1671v2.7728h.0711ZM47.8478 14.0597h-2.844V38.091h2.844V14.0597Z" fill="#fff"/>
  <path d="M50.194 32.4743H36.1876l-1.2086-2.133 10.0959-16.2816 2.4174 1.4931-8.7451 14.0775H50.194v2.844Z" fill="#fff"/>
  <path d="m13.8627 10.7892-1.9908-1.99075c.3555-.35549.711-.71099 1.0665-.99538l1.9197 2.13295c-.3555.21328-.6399.56878-.9954.85318ZM57.0195 47.6893l-2.2751-1.7063c.4976-.711.9953-1.422 1.493-2.2041l2.4174 1.4931c-.4977.7821-1.0665 1.6352-1.6353 2.4173Zm2.9861-5.048-2.5595-1.2086c.3555-.7821.711-1.6353.9954-2.4174l2.7017.9243c-.3555.9243-.711 1.8486-1.1376 2.7017Zm1.9908-5.5457-2.7728-.7109c.2133-.8532.3555-1.7064.4976-2.6307l2.844.4266c-.1422.9954-.3555 1.9908-.5688 2.915Zm.8532-5.7589-2.844-.1422v-2.6307l2.844-.1422c0 .4977.0711.9954.0711 1.4931-.0711.4977-.0711.9243-.0711 1.422Zm-3.1284-5.4035c-.1421-.8532-.2843-1.7775-.4976-2.6307l2.7728-.7109c.2133.9242.4266 1.9196.5688 2.8439l-2.844.4977Zm-1.2797-5.1191c-.2844-.8532-.6399-1.6353-.9954-2.4174l2.5595-1.2086c.4266.8532.7821 1.7774 1.1376 2.7017l-2.7017.9243Zm-2.2752-4.8347c-.4266-.7821-.9243-1.4931-1.493-2.2041l2.2751-1.7063c.5688.7821 1.1376 1.6352 1.6353 2.4173l-2.4174 1.4931Zm-3.1994-4.1948c-.2844-.3555-.5688-.6399-.9243-.9243-.2844-.2844-.6399-.6399-.9954-.92428l1.9197-2.13296c.3555.3555.711.63989 1.0665.99538.3555.35549.6399.71099.9953 1.06648l-2.0618 1.91968Zm-3.9104-3.55495c-.711-.49769-1.422-.99538-2.2041-1.49307l1.4931-2.41735c.8532.49769 1.6353 1.06648 2.4173 1.63527l-1.7063 2.27515Zm-32.1366 0L15.2136 5.9545c.7821-.56879 1.6352-1.13758 2.4173-1.63527l1.4931 2.41735c-.7821.4266-1.4931.92429-2.2041 1.49307Zm27.6574-2.77284c-.7821-.35549-1.6353-.71098-2.4174-.99538l.9243-2.70174c.9243.35549 1.8486.71098 2.7017 1.13757l-1.2086 2.55955Zm-23.1071 0-1.2086-2.55955c.8532-.42659 1.7774-.78208 2.7017-1.13757l.9243 2.70174c-.7821.2844-1.6353.63989-2.4174.99538Zm18.0591-1.77746c-.8532-.2133-1.7064-.35549-2.6307-.49769l.4266-2.843942c.9954.142197 1.9197.355493 2.844.568788l-.6399 2.772844Zm-13.0822 0L25.7362.906506c.9242-.213295 1.9196-.426591 2.8439-.568788l.4266 2.843942c-.8532.1422-1.7064.28439-2.5596.49769Zm7.892-.78209h-2.6307L31.5662.0533239c.9954-.0710985 1.9197-.0710985 2.9151 0L34.3391 2.89726ZM54.1045 51.031l-1.9908-1.9908c.3555-.3555.6399-.6399.9243-.9954l2.1329 1.9197c-.3555.3555-.7109.711-1.0664 1.0665Z" fill="#F86A2E"/>
</svg>