<svg fill="none" xmlns="http://www.w3.org/2000/svg" viewBox="0 0 68 63">
  <path d="M60.9244 44.7133h-.598v-2.6576h.1329c2.724-.9965 4.7172-3.9863 4.7172-7.1089 0-2.7904-1.5281-5.1822-3.9864-6.3781l-.6644-.3322-.0664-.7308c-.6644-6.6439-6.1788-11.6268-12.8891-11.6268h-1.1959l-.3322-.9302C43.7167 7.57402 36.8735 2.65755 29.1002 2.65755c-8.8364 0-16.4768 6.64388-17.7392 15.41385l-.1328.7972-.7309.2658c-4.71713 1.6609-7.83975 6.1788-7.83975 11.0952 0 6.511 5.3151 11.8261 11.82615 11.8261v2.6576C6.511 44.7133 0 38.2023 0 30.2296c0-5.8466 3.52126-11.0952 8.83636-13.3541C10.6302 7.24183 19.2008 0 29.1002 0c8.5706 0 16.1446 5.24866 19.2008 13.2213 7.5076.3322 13.62 5.9131 14.683 13.2878 2.9897 1.7274 4.85 4.9164 4.85 8.4377 0 4.385-2.8569 8.4377-6.7768 9.7001l-.1328.0664Z" fill="#fff"/>
  <path d="M15.0152 19.9981v-.1329c0-7.4411 6.0459-13.42064 13.487-13.42064v2.65756c-5.9794 0-10.8295 4.84998-10.8295 10.76308v.0664l-2.6575.0665ZM9.10212 29.5653H6.44456c0-3.7206 2.79043-6.8432 6.51104-7.2419l.3322 2.6576c-2.3918.2657-4.18568 2.2589-4.18568 4.5843Z" fill="#fff"/>
  <path d="M41.1921 62.1867h-7.8398l-.4651-5.2487c-1.1959-.3986-2.3918-.8637-3.4548-1.528l-3.8535 3.2555-5.5808-5.5145 3.3884-4.0527c-.598-1.1295-1.0631-2.3254-1.3953-3.5213l-5.0493-.3986v-7.8398l5.2487-.4651c.3986-1.1959.8637-2.3918 1.5281-3.4548l-3.2556-3.8534 5.5809-5.5809 4.0528 3.3884c1.1294-.598 2.3253-1.063 3.5212-1.3952l.3987-5.0494h7.8397l.4651 5.2487c1.1959.3986 2.3918.8637 3.4548 1.5281l3.8535-3.2555 5.5808 5.5808-3.3883 3.9864c.5979 1.1294 1.063 2.3253 1.3952 3.5212l5.0493.3987v7.8397l-5.2486.4651c-.3987 1.1959-.8638 2.3918-1.5281 3.4548l3.2555 3.8535-5.5809 5.6473-3.9863-3.3884c-1.1295.5979-2.3254 1.063-3.5213 1.3952l-.465 4.9829Zm-5.3816-2.6575h2.9898l.3986-4.5843.9966-.1993c1.5945-.3322 3.1226-.8637 4.4514-1.7274l.7972-.5316 3.5877 3.0562 2.1261-2.126-2.9898-3.5213.598-.8637c.9301-1.3287 1.5945-2.7904 1.9267-4.3849l.1993-.9302 4.7172-.3986v-2.9898l-4.5843-.3986-.1993-.9966c-.3322-1.5945-.8637-3.1226-1.7274-4.4514l-.5315-.7972 3.0561-3.5877-2.126-2.1261-3.5213 2.9898-.7972-.5315c-1.3288-.9302-2.7905-1.5946-4.385-1.9268l-.9301-.1993-.3987-4.7171h-2.9897l-.3986 4.5843-.9966.1993c-1.5945.3322-3.1226.8637-4.4514 1.7274l-.8637.465-3.5877-3.0561-2.1261 2.126 2.9898 3.5213-.598.8637c-.9301 1.3287-1.5945 2.7904-1.9267 4.3849l-.1993.9302-4.7172.3986v2.9897l4.5843.3987.1993.9966c.3322 1.5945.8637 3.1226 1.7274 4.4514l.5316.7972-3.0562 3.5877 2.126 2.1261 3.5213-2.9898.8637.598c1.3287.9301 2.7904 1.5945 4.3849 1.9267l.9302.1993.3986 4.7172Z" fill="#F86A2E"/>
  <path d="M37.6044 50.3606c-4.8501 0-8.77-3.9199-8.77-8.7699 0-4.8501 3.9199-8.7699 8.77-8.7699 4.85 0 8.7699 3.9198 8.7699 8.7699 0 4.85-3.9199 8.7699-8.7699 8.7699Zm0-14.9487c-3.3884 0-6.1124 2.724-6.1124 6.1123 0 3.3884 2.724 6.1124 6.1124 6.1124 3.3883 0 6.1123-2.724 6.1123-6.1124 0-3.3883-2.724-6.1123-6.1123-6.1123Z" fill="#F86A2E"/>
</svg>