<svg width="10" height="10" viewBox="0 0 10 10" fill="none" xmlns="http://www.w3.org/2000/svg">
<path d="M5 1.50375L5.38147 1.18052C5.28647 1.0684 5.14695 1.00375 5 1.00375C4.85305 1.00375 4.71353 1.0684 4.61853 1.18052L5 1.50375ZM8.05192 5.87889C8.23044 6.08957 8.54594 6.11564 8.75662 5.93712C8.9673 5.7586 8.99337 5.44309 8.81485 5.23241L8.05192 5.87889ZM1.18515 5.23241C1.00663 5.44309 1.0327 5.7586 1.24338 5.93712C1.45406 6.11564 1.76956 6.08957 1.94808 5.87889L1.18515 5.23241ZM4.61853 1.82699L8.05192 5.87889L8.81485 5.23241L5.38147 1.18052L4.61853 1.82699ZM1.94808 5.87889L5.38147 1.82699L4.61853 1.18052L1.18515 5.23241L1.94808 5.87889Z" fill="white"/>
</svg>
