<svg width="564" height="378" viewBox="0 0 564 378" fill="none" xmlns="http://www.w3.org/2000/svg">
<path d="M154.718 333.736C134.427 328.578 128.664 322.334 127.784 317.073C126.317 308.482 138.016 303.187 136.446 293.406C134.634 282.124 117.621 279.795 118.156 272.378C118.725 264.357 138.758 264.943 142.882 253.403C146.626 242.949 132.184 236.86 132.287 221.663C132.425 203.533 153.114 199.272 156.737 178.624C159.222 164.531 152.027 152.542 146.384 143.141C133.685 121.975 107.613 101.413 78.1081 103.501C74.0877 103.794 50.6043 105.45 44.7722 119.215C38.8711 133.17 52.9509 155.268 67.3585 166.98C77.7975 175.467 86.5455 176.985 87.0114 183.661C87.6326 192.666 72.1552 195.961 70.6886 209.088C69.9121 216.022 73.4666 221.956 76.9693 227.787C84.9064 241 92.6537 240.517 93.7925 247.831C95.3454 257.854 81.3519 261.959 78.2288 276.949C76.0203 287.627 80.7653 296.942 83.4397 302.203C93.896 322.662 121.986 334.374 154.718 333.736Z" fill="url(#paint0_linear)"/>
<path opacity="0.7" d="M150.767 333.029C144.072 330.959 137.429 328.665 131.045 325.801C127.853 324.369 124.747 322.765 121.831 320.868C120.382 319.902 119.001 318.867 117.742 317.694C116.482 316.538 115.378 315.21 114.584 313.726C113.825 312.243 113.463 310.569 113.756 308.965C114.015 307.344 114.929 305.895 115.861 304.428C116.81 302.962 117.794 301.427 118.467 299.736C119.139 298.029 119.45 296.183 119.467 294.372C119.467 292.543 119.157 290.715 118.536 288.99C117.897 287.265 116.948 285.695 115.844 284.263C113.635 281.4 110.944 279.088 108.666 276.501C107.51 275.224 106.475 273.844 105.646 272.395C104.818 270.929 104.232 269.342 103.904 267.703C103.576 266.064 103.541 264.374 103.8 262.735C104.076 261.114 104.68 259.544 105.526 258.078C107.199 255.145 109.632 252.575 111.616 249.573C112.617 248.09 113.497 246.486 114.187 244.778C114.86 243.087 115.309 241.293 115.533 239.482C115.602 239.034 115.637 238.568 115.654 238.119L115.689 237.429L115.671 236.739L115.637 235.377C115.62 235.152 115.637 234.928 115.602 234.687L115.499 234.014L115.309 232.651C115.257 232.203 115.085 231.754 114.981 231.306C114.843 230.857 114.757 230.409 114.602 229.977L114.084 228.701C113.998 228.494 113.911 228.27 113.825 228.063L113.514 227.459L112.876 226.251C112.376 225.492 111.927 224.699 111.392 223.992L110.598 222.905L109.787 221.853L108.148 219.783C105.991 217.057 104.042 214.228 103.006 211.02C102.006 207.828 101.764 204.361 102.299 201.049C102.592 199.393 103.093 197.772 103.714 196.202C104.37 194.632 105.198 193.149 106.112 191.7C107.958 188.819 110.219 186.18 112.565 183.575C114.895 180.97 117.345 178.434 119.554 175.623C120.658 174.208 121.71 172.742 122.573 171.12C123.436 169.516 124.143 167.757 124.471 165.911C124.816 164.065 124.782 162.133 124.385 160.305C124.005 158.459 123.108 156.665 121.935 155.199C119.485 152.335 116.465 150.351 113.445 148.488C110.409 146.66 107.32 144.952 104.18 143.348C101.057 141.726 97.8991 140.174 94.7415 138.621C88.4436 135.516 82.0766 132.532 75.6924 129.617C65.8918 125.115 56.074 120.63 46.2389 116.196C46.1526 116.334 46.0491 116.455 45.9456 116.593C55.6426 121.406 65.357 126.167 75.0885 130.893C81.421 133.929 87.6844 137.103 93.965 140.226C100.211 143.4 106.475 146.574 112.427 150.179C115.361 151.99 118.277 153.974 120.399 156.475C121.417 157.752 122.125 159.183 122.452 160.77C122.797 162.357 122.832 164.013 122.539 165.6C121.952 168.826 120.123 171.776 118.018 174.484C115.896 177.192 113.48 179.728 111.133 182.367C108.787 184.989 106.457 187.715 104.525 190.751C103.576 192.269 102.696 193.856 101.988 195.546C101.315 197.237 100.763 198.979 100.47 200.79C99.8834 204.413 100.159 208.139 101.264 211.623C102.42 215.125 104.542 218.161 106.733 220.921L108.373 222.974L109.184 223.992L109.943 225.027C110.478 225.717 110.875 226.441 111.358 227.148L111.944 228.27L112.238 228.822C112.324 229.011 112.393 229.201 112.479 229.408L112.945 230.564C113.1 230.961 113.169 231.375 113.29 231.771C113.394 232.185 113.549 232.565 113.601 232.979L113.791 234.221L113.877 234.842C113.911 235.049 113.894 235.256 113.894 235.48L113.929 236.739L113.946 237.378L113.911 238.016C113.894 238.43 113.86 238.861 113.808 239.275C113.601 240.948 113.204 242.587 112.583 244.157C111.962 245.727 111.151 247.21 110.202 248.642C108.321 251.505 105.905 254.11 104.111 257.301C103.213 258.888 102.541 260.648 102.247 262.494C101.971 264.339 102.04 266.202 102.403 267.996C102.765 269.79 103.438 271.533 104.352 273.12C105.267 274.689 106.388 276.138 107.596 277.449C109.995 280.106 112.669 282.383 114.791 285.074C115.844 286.419 116.724 287.868 117.328 289.438C117.914 291.008 118.225 292.681 118.225 294.372C118.225 296.062 117.966 297.735 117.362 299.305C116.758 300.875 115.861 302.341 114.912 303.807C113.98 305.291 112.98 306.895 112.686 308.775C112.341 310.638 112.807 312.57 113.653 314.192C114.532 315.813 115.74 317.193 117.069 318.401C118.398 319.608 119.847 320.661 121.331 321.609C124.333 323.507 127.491 325.077 130.735 326.474C137.205 329.268 143.9 331.476 150.629 333.46C157.376 335.444 164.191 337.117 171.041 338.704L171.058 338.618C164.243 336.927 157.462 335.082 150.767 333.029Z" fill="white"/>
<path d="M174.009 327.544C114.032 337.842 95.587 329.873 90.1345 320.282C86.9597 314.71 86.6318 305.861 77.6077 294.7C69.9984 285.282 65.6157 285.868 62.3546 278.658C56.6951 266.134 67.4792 259.096 63.0793 246.986C58.2653 233.721 43.1158 236.05 36.559 220.197C32.9701 211.52 37.1802 210.071 33.9881 201.429C27.4659 183.817 8.27878 185.352 1.89459 169.465C-1.81514 160.219 0.0828594 148.247 6.19098 141.209C18.4417 127.064 47.7745 132.498 64.3734 145.591C66.513 147.281 82.5942 160.357 84.1644 179.729C85.1134 191.407 80.0751 196.858 84.2162 203.982C90.0655 214.022 103.317 208.726 109.149 217.627C117.034 229.702 98.3304 248.056 107.337 261.649C110.823 266.91 114.515 265.496 118.001 271.533C123.729 281.469 117.052 290.991 118.38 299.271C119.795 308.155 130.993 318.988 174.009 327.544Z" fill="url(#paint1_linear)"/>
<path opacity="0.28" d="M63.0448 173.191C70.8266 191.148 58.1445 202.498 67.2549 216.661C74.6571 228.166 86.3212 225.803 89.5133 236.515C92.5674 246.779 82.6805 251.73 85.3895 263.46C87.6153 273.12 95.121 273.172 102.627 285.661C110.167 298.236 107.13 305.774 110.995 313.468C115.154 321.713 126.956 329.458 158.721 329.907C163.484 329.269 168.574 328.475 173.992 327.544C130.976 319.005 119.778 308.155 118.363 299.271C117.034 290.991 123.729 281.469 117.983 271.533C114.498 265.495 110.805 266.91 107.32 261.649C98.2959 248.056 117.017 229.702 109.132 217.627C103.317 208.708 90.0482 214.004 84.1989 203.982C80.0578 196.875 85.0789 191.424 84.1471 179.728C82.5942 160.357 66.4957 147.281 64.3561 145.591C47.7572 132.481 18.4244 127.064 6.17369 141.209C6.12192 141.278 6.05291 141.347 6.00114 141.416C14.1971 141.709 24.2392 143.365 34.6437 148.333C42.7361 152.163 56.8331 158.873 63.0448 173.191Z" fill="white"/>
<path d="M143.106 328.303C138.206 330.856 130.217 334.599 119.899 337.549C98.6238 343.621 62.044 347.864 49.4654 331.425C47.9125 329.407 43.8405 324.076 44.3753 317.47C44.9447 310.621 50.0003 308.5 49.2411 304.222C48.2059 298.357 38.1292 298.805 28.1043 292.078C19.5978 286.368 9.34854 274.293 10.332 260.096C11.4191 244.519 25.3608 235.67 26.8792 234.739C37.1802 228.425 53.0717 226.131 62.993 234.118C71.7756 241.173 72.6038 253.627 73.1387 261.838C74.3638 280.417 66.5992 288.783 72.1897 295.286C77.2971 301.22 85.9416 296.839 92.136 304.739C94.7932 308.12 94.034 309.966 98.1751 316.573C101.315 321.575 104.697 325.232 106.078 326.526C116.879 336.583 140.967 328.993 143.106 328.303Z" fill="url(#paint2_linear)"/>
<path opacity="0.5" d="M144.607 333.478C129.527 334.443 114.463 333.943 99.8143 331.977C70.2917 328.027 67.0134 321.541 65.9263 319.402C64.2699 316.124 64.5805 313.347 64.9083 310.38C65.2706 307.068 65.6848 303.307 63.3899 298.288C61.3021 293.716 58.5931 291.595 55.9704 289.559C53.3995 287.558 50.9666 285.661 49.1204 281.572C46.722 276.294 47.4639 271.964 48.2404 267.393C48.6717 264.823 49.1204 262.149 49.0859 259.147C48.9306 249.867 43.9267 240.448 34.1606 231.03C33.9708 231.151 33.7638 231.254 33.5567 231.358C43.2883 240.69 48.2749 250.022 48.4302 259.165C48.4819 262.114 48.0333 264.754 47.602 267.289C46.8082 271.964 46.0663 276.397 48.5337 281.848C50.449 286.092 53.0544 288.127 55.5908 290.094C58.1445 292.095 60.8017 294.148 62.8205 298.581C65.0463 303.445 64.6667 306.947 64.2871 310.328C63.9593 313.381 63.6487 316.262 65.3742 319.712C66.4957 321.92 69.8776 328.648 99.7453 332.632C109.598 333.943 119.657 334.616 129.786 334.616C134.738 334.616 139.69 334.461 144.659 334.133L144.607 333.478Z" fill="white"/>
<path opacity="0.5" d="M48.413 259.147C48.4647 262.097 48.0161 264.736 47.5848 267.272C46.791 271.947 46.0491 276.38 48.5165 281.831C50.4318 286.074 53.0372 288.11 55.5736 290.076C58.1273 292.077 60.7845 294.13 62.8033 298.563C65.0291 303.428 64.6495 306.93 64.2699 310.311C63.9421 313.364 63.6315 316.245 65.357 319.695C66.4785 321.903 69.8604 328.63 99.7281 332.615C109.287 333.891 119.036 334.547 128.871 334.581C129.458 334.357 130.027 334.15 130.597 333.926C120.227 333.96 109.926 333.305 99.8144 331.959C70.2918 328.009 67.0134 321.523 65.9264 319.384C64.2699 316.107 64.5805 313.329 64.9084 310.362C65.2707 307.05 65.6848 303.29 63.3899 298.27C61.3021 293.699 58.5932 291.577 55.9705 289.542C53.3995 287.541 50.9667 285.643 49.1204 281.555C46.722 276.276 47.464 271.947 48.2404 267.375C48.6718 264.805 49.1204 262.131 49.0859 259.13C48.9306 249.918 43.9958 240.569 34.385 231.219C34.1607 231.306 33.9191 231.375 33.6948 231.461C43.3056 240.776 48.2577 250.056 48.413 259.147Z" fill="white"/>
<path d="M403.909 304.756C464.541 310.069 482.262 300.599 486.886 290.594C489.578 284.781 489.181 275.932 497.256 264.064C504.072 254.059 508.472 254.266 511.129 246.814C515.736 233.876 504.4 227.752 507.781 215.298C511.491 201.67 526.761 202.757 532.007 186.421C534.871 177.486 530.54 176.382 533.025 167.498C538.063 149.403 557.319 149.351 562.358 132.981C565.291 123.459 562.409 111.694 555.732 105.174C542.36 92.0983 513.562 99.9125 498.119 114.351C496.135 116.214 481.175 130.566 481.227 150.007C481.261 161.737 486.731 166.739 483.176 174.174C478.173 184.662 464.524 180.47 459.469 189.837C452.601 202.533 472.772 219.265 464.904 233.566C461.867 239.103 458.071 237.999 455.086 244.312C450.186 254.697 457.64 263.632 457.001 271.981C456.328 280.951 446.062 292.681 403.909 304.756Z" fill="url(#paint3_linear)"/>
<path opacity="0.28" d="M501.725 141.761C495.445 160.305 509.024 170.551 501.121 185.421C494.703 197.496 482.866 196.116 480.571 207.052C478.362 217.54 488.629 221.663 486.903 233.566C485.471 243.381 478 244.054 471.564 257.112C465.076 270.274 468.752 277.536 465.525 285.505C462.057 294.061 450.928 302.755 419.317 305.826C414.521 305.584 409.396 305.222 403.909 304.739C446.079 292.664 456.328 280.934 457.001 271.964C457.64 263.615 450.186 254.662 455.086 244.295C458.071 237.982 461.85 239.086 464.904 233.548C472.772 219.248 452.601 202.516 459.469 189.82C464.542 180.453 478.173 184.645 483.177 174.157C486.731 166.722 481.261 161.702 481.227 149.989C481.175 130.566 496.135 116.197 498.119 114.334C513.579 99.8954 542.36 92.0812 555.732 105.157C555.801 105.226 555.853 105.277 555.922 105.346C547.778 106.312 537.908 108.796 527.952 114.61C520.222 119.129 506.729 126.978 501.725 141.761Z" fill="white"/>
<path d="M415.608 310.363C435.606 305.481 441.334 299.392 442.249 294.234C443.767 285.799 432.31 280.486 433.949 270.877C435.83 259.803 452.584 257.664 452.135 250.367C451.652 242.484 431.948 242.863 427.996 231.478C424.407 221.163 438.677 215.315 438.711 200.377C438.746 182.54 418.437 178.159 415.055 157.821C412.743 143.935 419.921 132.222 425.563 123.028C438.246 102.345 464.076 82.3523 493.063 84.681C497.015 84.9915 520.101 86.8545 525.692 100.448C531.368 114.23 517.306 135.827 503.036 147.212C492.684 155.458 484.074 156.872 483.556 163.444C482.866 172.294 498.05 175.675 499.378 188.612C500.086 195.443 496.514 201.239 493.029 206.949C485.092 219.869 477.482 219.317 476.309 226.51C474.687 236.36 488.422 240.517 491.338 255.283C493.408 265.806 488.663 274.931 485.972 280.054C475.498 300.047 447.77 311.294 415.608 310.363Z" fill="url(#paint4_linear)"/>
<path opacity="0.7" d="M533.111 93.6855C520.705 99.7748 508.265 105.743 495.79 111.66C489.543 114.593 483.349 117.646 477.155 120.665C470.978 123.718 464.783 126.788 458.899 130.273C456.001 132.032 453.119 133.947 451.014 136.397C449.996 137.639 449.306 139.036 448.961 140.606C448.616 142.158 448.564 143.78 448.84 145.349C449.375 148.523 451.152 151.438 453.205 154.112C455.259 156.803 457.622 159.322 459.9 161.927C462.195 164.531 464.438 167.222 466.319 170.224C467.251 171.725 468.096 173.294 468.769 174.968C469.425 176.641 469.942 178.366 470.218 180.143C470.753 183.713 470.46 187.37 469.338 190.803C468.182 194.236 466.06 197.22 463.869 199.894C462.782 201.239 461.66 202.55 460.677 203.913C460.142 204.586 459.745 205.293 459.262 206L458.675 207.087L458.382 207.639C458.295 207.829 458.226 208.018 458.14 208.208L457.657 209.347C457.502 209.726 457.415 210.14 457.295 210.52C457.191 210.917 457.036 211.296 456.984 211.71L456.794 212.935L456.691 213.538C456.656 213.745 456.674 213.952 456.656 214.16L456.622 215.402L456.604 216.023L456.639 216.644C456.656 217.058 456.691 217.472 456.743 217.886C456.915 219.524 457.295 221.146 457.899 222.698C458.502 224.233 459.279 225.717 460.211 227.132C462.022 229.961 464.386 232.548 466.129 235.705C466.992 237.275 467.647 239.017 467.906 240.828C468.165 242.639 468.079 244.485 467.699 246.244C467.32 248.021 466.647 249.712 465.732 251.264C464.818 252.8 463.696 254.214 462.506 255.491C460.124 258.078 457.467 260.286 455.362 262.925C454.31 264.236 453.43 265.651 452.826 267.186C452.239 268.721 451.928 270.36 451.894 272.016C451.877 273.672 452.118 275.328 452.705 276.881C453.274 278.433 454.154 279.865 455.086 281.331C455.983 282.797 456.967 284.384 457.226 286.247C457.536 288.093 457.07 289.991 456.225 291.577C455.345 293.165 454.154 294.527 452.826 295.683C451.497 296.856 450.082 297.874 448.598 298.805C445.631 300.634 442.508 302.169 439.315 303.514C432.931 306.205 426.323 308.31 419.68 310.19C413.037 312.071 406.307 313.658 399.561 315.141L399.544 315.055C406.256 313.451 412.933 311.691 419.559 309.742C426.167 307.775 432.724 305.567 439.022 302.807C442.162 301.427 445.251 299.875 448.132 298.029C449.565 297.098 450.945 296.08 452.187 294.941C453.43 293.803 454.534 292.526 455.328 291.077C456.087 289.628 456.466 287.99 456.173 286.42C455.949 284.833 455.052 283.384 454.137 281.952C453.205 280.503 452.256 278.985 451.618 277.312C450.979 275.621 450.686 273.81 450.686 272.016C450.703 270.222 451.014 268.428 451.652 266.738C452.308 265.047 453.257 263.512 454.344 262.115C456.535 259.32 459.21 257.078 461.47 254.559C462.609 253.3 463.644 251.971 464.473 250.54C465.301 249.108 465.887 247.556 466.233 245.951C466.56 244.33 466.612 242.674 466.388 241.07C466.129 239.465 465.56 237.93 464.749 236.481C463.127 233.583 460.763 231.03 458.83 228.063C457.864 226.597 457.001 225.01 456.346 223.337C455.69 221.663 455.276 219.886 455.069 218.11C455.017 217.661 454.983 217.213 454.965 216.764L454.931 216.092L454.948 215.419L454.983 214.073C455 213.849 454.983 213.625 455.017 213.401L455.121 212.728L455.328 211.382C455.379 210.934 455.552 210.503 455.655 210.071C455.794 209.64 455.88 209.192 456.052 208.778L456.57 207.518C456.656 207.311 456.743 207.104 456.829 206.897L457.139 206.311L457.778 205.121C458.278 204.379 458.727 203.603 459.262 202.913L460.055 201.843L460.866 200.825L462.488 198.807C464.628 196.15 466.56 193.391 467.63 190.251C468.648 187.112 468.907 183.713 468.407 180.453C468.148 178.814 467.665 177.227 467.061 175.675C466.44 174.14 465.629 172.656 464.749 171.224C462.954 168.378 460.763 165.756 458.485 163.186C456.208 160.615 453.827 158.097 451.687 155.303C450.617 153.905 449.599 152.439 448.754 150.852C447.908 149.265 447.252 147.54 446.925 145.712C446.597 143.883 446.649 142.003 447.063 140.192C447.46 138.38 448.34 136.621 449.53 135.189C451.963 132.395 454.965 130.48 457.933 128.668C460.935 126.892 463.989 125.253 467.095 123.701C470.184 122.131 473.29 120.63 476.413 119.129C482.642 116.128 488.922 113.264 495.237 110.453C507.833 104.76 520.446 99.1538 533.111 93.651V93.6855Z" fill="white"/>
<path opacity="0.7" d="M439.264 303.463C442.456 302.117 445.579 300.599 448.547 298.754C450.03 297.822 451.445 296.804 452.774 295.631C454.103 294.475 455.293 293.113 456.173 291.526C457.019 289.939 457.502 288.041 457.174 286.195C456.915 284.333 455.932 282.745 455.034 281.279C454.12 279.813 453.24 278.381 452.653 276.829C452.084 275.276 451.825 273.62 451.842 271.964C451.877 270.308 452.187 268.67 452.774 267.134C453.378 265.599 454.258 264.184 455.31 262.873C457.415 260.234 460.073 258.026 462.454 255.439C463.644 254.162 464.766 252.748 465.68 251.212C466.595 249.66 467.268 247.952 467.647 246.193C468.027 244.433 468.113 242.587 467.854 240.776C467.578 238.965 466.94 237.223 466.077 235.653C464.334 232.496 461.988 229.926 460.159 227.08C459.244 225.665 458.451 224.199 457.847 222.646C457.243 221.111 456.881 219.49 456.691 217.834C456.639 217.42 456.604 217.006 456.587 216.592L456.553 215.971L456.57 215.35L456.604 214.108C456.622 213.901 456.604 213.694 456.639 213.487L456.743 212.883L456.932 211.658C456.984 211.244 457.139 210.865 457.243 210.468C457.364 210.071 457.45 209.674 457.605 209.295L458.088 208.156C458.175 207.967 458.244 207.777 458.33 207.587L458.623 207.035L459.21 205.948C459.676 205.258 460.09 204.534 460.625 203.861C461.608 202.498 462.73 201.187 463.817 199.842C465.991 197.151 468.113 194.184 469.287 190.751C470.408 187.318 470.701 183.661 470.167 180.091C469.873 178.314 469.373 176.589 468.717 174.916C468.044 173.26 467.199 171.69 466.267 170.172C464.386 167.17 462.126 164.479 459.848 161.875C457.571 159.27 455.207 156.751 453.154 154.06C451.1 151.387 449.323 148.471 448.788 145.297C448.512 143.728 448.564 142.106 448.909 140.554C449.254 139.001 449.944 137.587 450.962 136.345C453.067 133.895 455.949 131.98 458.848 130.221C464.731 126.736 470.926 123.666 477.103 120.613C483.297 117.594 489.492 114.541 495.738 111.608C505.297 107.089 514.821 102.517 524.346 97.8945C524.26 97.7565 524.173 97.6185 524.07 97.4805C514.407 101.724 504.779 106.019 495.151 110.366C488.853 113.178 482.555 116.059 476.326 119.043C473.203 120.544 470.098 122.044 467.009 123.614C463.92 125.167 460.849 126.805 457.847 128.582C454.862 130.393 451.877 132.308 449.444 135.103C448.253 136.517 447.373 138.294 446.976 140.105C446.562 141.916 446.511 143.814 446.838 145.625C447.149 147.454 447.822 149.179 448.667 150.766C449.513 152.37 450.531 153.819 451.601 155.216C453.757 158.011 456.139 160.529 458.399 163.099C460.677 165.67 462.868 168.292 464.662 171.138C465.542 172.57 466.353 174.036 466.974 175.588C467.578 177.141 468.061 178.728 468.32 180.367C468.821 183.627 468.562 187.025 467.544 190.165C466.491 193.304 464.559 196.064 462.402 198.721L460.78 200.739L459.969 201.757L459.175 202.826C458.64 203.516 458.192 204.292 457.692 205.034L457.053 206.224L456.743 206.811C456.639 207.018 456.57 207.225 456.484 207.432L455.966 208.691C455.811 209.105 455.707 209.554 455.569 209.985C455.466 210.416 455.293 210.847 455.241 211.296L455.034 212.641L454.931 213.314C454.896 213.538 454.913 213.763 454.896 213.987L454.862 215.332L454.845 216.005L454.879 216.678C454.896 217.127 454.931 217.575 454.983 218.023C455.19 219.8 455.604 221.577 456.259 223.25C456.915 224.924 457.76 226.51 458.744 227.977C460.659 230.944 463.04 233.497 464.662 236.395C465.473 237.844 466.06 239.379 466.302 240.983C466.543 242.587 466.491 244.243 466.146 245.865C465.818 247.469 465.214 249.022 464.386 250.453C463.541 251.885 462.523 253.214 461.384 254.473C459.124 256.991 456.449 259.234 454.258 262.028C453.171 263.425 452.222 264.961 451.566 266.651C450.928 268.342 450.6 270.153 450.6 271.93C450.6 273.724 450.893 275.535 451.532 277.225C452.17 278.916 453.119 280.434 454.051 281.866C454.965 283.315 455.845 284.747 456.087 286.334C456.38 287.921 455.983 289.559 455.241 290.991C454.465 292.44 453.361 293.716 452.101 294.855C450.859 295.993 449.478 297.011 448.046 297.943C445.165 299.789 442.093 301.341 438.936 302.721C432.638 305.481 426.081 307.689 419.473 309.656C418.679 309.897 417.868 310.121 417.074 310.363C417.592 310.38 418.092 310.38 418.61 310.38C418.938 310.294 419.266 310.19 419.611 310.104C426.271 308.258 432.862 306.154 439.264 303.463Z" fill="white"/>
<path d="M418.368 303.031C423.458 305.17 431.723 308.241 442.266 310.328C463.972 314.623 500.776 315.831 511.957 298.408C513.338 296.269 516.961 290.611 515.874 284.091C514.752 277.312 509.524 275.621 509.921 271.274C510.456 265.357 520.55 264.961 529.988 257.422C537.994 251.023 547.208 238.154 545.051 224.078C542.688 208.657 528.056 200.98 526.468 200.17C515.684 194.719 499.655 193.753 490.423 202.533C482.245 210.295 482.452 222.767 482.59 230.995C482.9 249.625 491.338 257.302 486.3 264.253C481.71 270.584 472.72 266.944 467.199 275.328C464.835 278.916 465.749 280.693 462.16 287.627C459.451 292.871 456.38 296.787 455.103 298.201C445.182 309.121 420.542 303.549 418.368 303.031Z" fill="url(#paint5_linear)"/>
<path opacity="0.5" d="M507.022 226.286C506.418 217.178 510.611 207.484 519.515 197.392C519.308 197.289 519.118 197.185 518.911 197.082C509.956 207.277 505.746 217.075 506.367 226.338C506.574 229.339 507.229 231.961 507.885 234.497C509.041 238.999 510.128 243.243 508.178 248.711C506.66 252.937 504.4 255.025 502.001 257.25C499.551 259.51 497.032 261.838 495.324 266.565C493.443 271.757 494.168 275.466 494.806 278.743C495.376 281.659 495.91 284.419 494.53 287.817C493.633 290.025 490.907 296.77 461.798 303.135C447.373 306.292 432.396 308.034 417.281 308.327L417.299 308.983C422.268 308.896 427.237 308.638 432.155 308.224C442.249 307.396 452.205 305.895 461.936 303.773C491.372 297.322 494.202 290.353 495.134 288.058C496.583 284.488 496.031 281.624 495.445 278.623C494.789 275.276 494.133 271.809 495.945 266.789C497.601 262.201 500.069 259.924 502.45 257.733C504.797 255.559 507.229 253.334 508.8 248.935C510.818 243.295 509.697 238.948 508.523 234.342C507.868 231.823 507.212 229.236 507.022 226.286Z" fill="white"/>
<path d="M471.047 289.111L81.4036 310.242C77.7974 310.432 74.8641 307.482 74.8641 303.653L74.8469 62.9115C74.8469 59.082 78.919 53.5793 85.8898 54.2175L471.047 75.642C473.583 75.7628 475.653 78.471 475.653 81.6795L475.671 283.056C475.653 286.265 473.6 288.973 471.047 289.111Z" fill="#7A2901"/>
<path d="M471.012 317.211L86.4937 345.932C79.868 345.932 74.8641 340.981 74.8641 337.117L74.8469 85.302L81.3001 83.439L475.636 100.413L475.653 311.053C475.653 314.261 473.583 317.021 471.012 317.211Z" fill="#1A1B1D"/>
<path d="M483.953 290.56L94.3963 307.016C90.7211 307.223 86.4765 299.685 86.4765 295.786L81.2828 83.439V60.6862C81.2828 56.7877 84.2679 53.7862 87.9258 53.9587L483.918 73.6237C486.507 73.7445 488.594 76.5045 488.594 79.7475L488.612 284.401C488.629 287.662 486.541 290.422 483.953 290.56Z" fill="#F86A2E"/>
<path d="M483.919 319.108L88.0294 346.001C84.3369 346.26 81.3174 343.275 81.3174 339.342L81.3001 83.4216L488.612 98.7741L488.629 312.829C488.629 316.124 486.524 318.936 483.919 319.108Z" fill="#1A1B1D"/>
<path d="M217.076 329.907L93.1713 337.928C89.7721 338.152 87.0114 335.392 87.0114 331.787L86.9941 232.203C86.9941 228.58 89.7549 225.613 93.154 225.544L217.059 223.129C220.113 223.078 222.598 225.786 222.598 229.201L222.615 323.352C222.598 326.767 220.13 329.7 217.076 329.907Z" fill="#2E2E33"/>
<path d="M122.728 314.434L103.507 315.503C103.282 315.52 103.093 315.331 103.093 315.089V310.242C103.093 310 103.282 309.793 103.507 309.776L122.728 308.741C122.953 308.724 123.142 308.914 123.142 309.155V313.968C123.142 314.209 122.953 314.416 122.728 314.434Z" fill="url(#paint6_linear)"/>
<path d="M179.237 321.834L103.524 326.422C103.3 326.439 103.11 326.25 103.11 326.008V321.161C103.11 320.919 103.3 320.712 103.524 320.695L179.237 316.296C179.444 316.279 179.634 316.469 179.634 316.71V321.42C179.617 321.627 179.444 321.834 179.237 321.834Z" fill="black"/>
<path d="M102.333 250.574C101.281 251.281 100.28 252.799 100.504 254.421C100.746 256.06 102.144 257.06 103.248 257.371C104.801 257.802 105.318 256.715 106.992 256.819C109.529 256.957 111.513 259.613 112.341 261.614C113.152 263.563 112.514 264.064 113.049 266.341C113.98 270.325 116.845 272.671 119.571 274.914C121.848 276.794 125.334 279.037 125.955 278.312C126.179 278.053 125.972 277.484 125.851 277.139C125.368 275.776 124.264 275.5 122.763 274.258C121.693 273.379 120.347 272.275 120.572 271.343C120.779 270.429 122.487 269.791 123.764 270.153C125.04 270.498 125.731 271.809 126.058 272.43C126.335 272.965 126.3 273.672 126.559 273.689C126.731 273.706 126.938 273.413 127.025 273.154C127.266 272.516 126.852 271.912 126.697 271.429C126.352 270.308 127.163 269.049 127.974 267.807C129.32 265.72 130.113 265.668 132.201 263.236C133.599 261.597 134.306 260.752 134.375 259.596C134.513 257.612 132.926 256.18 132.667 255.939C131.39 254.783 129.216 254.041 128.302 254.938C127.473 255.732 128.353 257.181 127.37 258.319C126.697 259.13 125.506 259.32 124.575 259.061C123.263 258.682 122.521 257.388 122.452 256.198C122.435 255.956 122.366 254.869 123.056 254.11C123.246 253.886 123.729 253.455 125.317 253.317C127.56 253.144 128.025 253.903 129.354 253.541C130.476 253.231 131.821 252.247 131.804 251.333C131.787 250.246 129.906 250.195 127.767 247.814C126.938 246.883 126.248 246.106 126.3 245.071C126.369 243.605 127.853 242.398 128.164 242.156C129.32 241.225 130.355 240.466 130.355 240.466C130.648 240.259 131.062 239.948 131.011 239.672C130.976 239.482 130.752 239.362 130.355 239.258C129.078 238.913 128.112 239.172 128.112 239.172C126.593 239.569 126.11 240.362 124.264 241.483C123.522 241.932 122.262 242.691 120.537 243.157C118.57 243.691 117.897 243.312 116.931 244.123C115.999 244.899 116.292 245.503 115.326 246.676C114.325 247.9 113.083 248.349 111.168 249.022C110.426 249.28 108.959 249.763 106.923 250.005C104.042 250.333 103.438 249.832 102.333 250.574Z" fill="black"/>
<path d="M134.254 240.034C132.201 240.673 130.407 241.225 130.027 242.57C129.837 243.26 130.01 244.209 130.562 244.692C131.649 245.658 133.271 244.036 134.461 244.864C135.1 245.313 134.858 245.934 135.583 249.315C136.066 251.574 136.463 252.644 137.222 253.61C137.654 254.145 138.257 254.904 138.861 254.766C139.759 254.559 139.414 252.644 140.828 251.229C141.329 250.729 141.415 250.919 143.779 249.642C145.159 248.901 145.85 248.521 146.005 248.228C146.781 246.71 144.711 244.951 145.539 243.139C145.694 242.794 145.711 242.967 146.781 241.552C148.006 239.914 147.989 239.655 147.955 239.534C147.817 239.017 146.919 238.999 144.555 238.775C140.656 238.396 140.345 238.171 139.189 238.482C138.413 238.689 138.223 238.896 136.567 239.396C135.272 239.81 135.134 239.776 134.254 240.034Z" fill="black"/>
<path d="M129.044 278.157C127.905 279.088 127.68 280.658 127.594 281.296C127.37 282.866 127.801 283.866 128.595 286.402C129.561 289.49 130.044 291.025 130.113 291.905C130.234 293.268 129.993 293.526 129.061 298.943C128.371 302.979 128.284 304.032 128.923 304.739C129.854 305.774 131.891 305.567 131.96 305.291C131.994 305.153 131.563 305.049 131.235 304.618C130.493 303.635 131.028 301.927 131.166 301.479C131.718 299.702 132.771 298.908 134.461 297.114C136.463 294.975 137.774 293.595 138.741 291.577C139.224 290.577 140.242 288.351 139.914 285.557C139.845 284.988 139.586 283.09 138.275 281.227C136.567 278.812 134.272 278.122 133.599 277.932C132.287 277.536 130.441 277.001 129.044 278.157Z" fill="black"/>
<path d="M148.541 267.513C147.799 269.066 146.971 270.774 146.643 272.326C146.35 273.723 146.074 276.88 147.558 278.036C148.904 279.088 150.439 277.536 152.303 278.691C153.252 279.278 153.683 280.192 154.183 281.296C155.27 283.659 154.753 285.022 155.219 288.11C155.443 289.559 156.133 294.165 157.876 294.406C159.325 294.613 160.913 291.698 161.172 291.215C161.879 289.921 162.138 288.593 162.655 286.005C163.346 282.504 163.087 282.038 163.812 281.02C164.743 279.726 165.882 279.537 166.124 278.312C166.313 277.415 165.865 276.639 165.606 276.156C164.64 274.379 163.294 274.62 162.397 272.913C161.879 271.929 161.741 270.722 161.948 270.601C162.138 270.498 162.655 271.205 162.914 271.55C163.691 272.619 163.604 273.016 164.07 273.551C165.037 274.62 166.641 274.379 166.762 274.362C167.504 274.241 168.85 273.723 169.005 272.792C169.126 272.067 168.522 271.343 167.78 270.446C167.193 269.739 166.745 269.428 166.814 269.29C166.883 269.152 167.418 269.307 168.798 269.773C170.299 270.273 171.058 270.532 171.162 270.601C171.662 270.894 172.094 271.308 173.526 273.81C174.975 276.345 175.493 277.622 175.821 277.501C175.976 277.449 175.959 277.087 176.08 275.88C176.252 274.068 176.356 273.154 176.787 272.499C177.149 271.929 177.909 271.153 178.702 271.239C179.168 271.291 179.737 272.05 180.859 273.603C181.963 275.121 182.326 275.638 183.085 276.035C183.482 276.242 184.172 276.604 184.724 276.242C185.345 275.845 185.552 274.724 185.293 273.913C184.983 272.947 184.137 272.878 184.155 272.292C184.189 271.429 185.966 270.808 186.122 270.756C187.26 270.36 187.554 270.739 188.14 270.325C189.003 269.704 189.366 268.134 189.141 266.944C188.917 265.719 188.158 265.288 188.382 264.736C188.572 264.27 189.193 264.408 190.401 264.029C191.298 263.753 192.627 263.339 193.351 262.183C193.783 261.493 193.852 260.786 193.973 259.665C193.99 259.475 194.076 258.612 193.973 257.439C193.834 255.818 193.507 255.714 193.662 255.231C194.007 254.179 195.629 254.403 198.735 253.334C200.512 252.713 201.789 252.006 201.91 252.264C202.065 252.592 199.994 253.593 199.856 255.318C199.753 256.629 200.788 257.905 201.237 257.767C201.599 257.646 201.34 256.629 201.979 255.111C202.22 254.541 202.583 253.696 203.342 253.127C204.274 252.437 204.808 252.885 205.637 252.161C206.31 251.574 206.137 251.143 206.689 250.539C207.949 249.159 210.088 250.039 210.226 249.539C210.347 249.073 208.708 247.693 206.568 247.434C204.67 247.21 204.377 248.107 202.22 248.193C200.995 248.245 199.511 247.745 196.543 246.762C194.87 246.21 193.99 245.813 192.471 245.761C191.419 245.727 191.384 245.899 190.263 245.83C189.003 245.744 187.45 245.658 186.225 244.554C185.276 243.691 185.57 243.156 184.776 242.639C183.499 241.811 181.756 242.57 180.272 243.243C178.702 243.95 177.581 244.812 175.7 246.244C173.509 247.917 172.767 248.728 171.559 248.607C170.644 248.521 170.472 248.004 169.454 248.038C168.626 248.073 168.367 248.418 166.693 249.246C165.071 250.039 164.243 250.436 163.553 250.332C162.466 250.16 162.414 249.332 161.241 248.849C159.981 248.349 158.773 248.78 157.307 249.315C155.495 249.97 153.7 250.626 152.838 252.351C151.923 254.179 152.769 255.732 151.733 256.56C150.871 257.25 149.991 256.422 149.197 257.146C148.248 258.009 148.524 260.096 148.679 261.2C148.973 263.373 149.715 263.891 149.456 265.426C149.352 266.03 149.162 266.254 148.541 267.513Z" fill="black"/>
<path d="M166.141 285.125C165.692 285.091 164.933 287.109 165.106 288.972C165.123 289.076 165.261 290.525 165.692 290.559C166.089 290.594 166.486 289.386 166.52 289.248C166.589 289.041 166.797 288.368 166.71 287.264C166.693 286.971 166.572 285.16 166.141 285.125Z" fill="#D8DEE8"/>
<path d="M182.412 279.864C182.377 279.951 182.515 280.089 182.861 280.399C183.81 281.193 184.275 281.589 185.069 281.848C185.742 282.072 187.416 282.469 187.778 281.796C188.002 281.365 187.675 280.52 187.14 280.158C186.57 279.761 186.156 280.14 184.81 280.123C183.413 280.089 182.481 279.64 182.412 279.864Z" fill="#D8DEE8"/>
<path d="M187.14 276.035C186.864 276.087 186.933 276.691 186.38 278.019C186.122 278.64 185.984 278.795 186.07 279.002C186.242 279.45 187.312 279.623 187.83 279.071C188.33 278.536 188.106 277.639 188.02 277.329C187.882 276.725 187.467 275.966 187.14 276.035Z" fill="#D8DEE8"/>
<path d="M192.816 280.882C193.023 281.21 193.386 281.607 194.266 282.003C194.576 282.141 196.837 283.142 197.406 282.279C197.63 281.934 197.527 281.365 197.337 281.037C197.061 280.52 196.543 280.416 195.715 280.209C193.213 279.588 192.661 279.261 192.454 279.588C192.213 279.933 192.696 280.692 192.816 280.882Z" fill="#D8DEE8"/>
<path d="M188.589 273.534C188.296 273.654 188.313 275.138 188.848 276.311C189.124 276.915 189.624 277.639 189.849 277.518C190.09 277.398 189.969 276.345 189.78 275.638C189.521 274.603 188.882 273.43 188.589 273.534Z" fill="#D8DEE8"/>
<path d="M190.987 266.409C190.987 266.064 191.781 266.116 192.816 265.374C193.524 264.857 194.576 263.787 195.129 262.373C195.249 262.08 195.353 261.717 195.439 261.735C195.56 261.752 195.577 262.632 195.439 263.408C195.18 264.822 194.318 266.116 193.248 266.754C192.816 267.013 192.506 267.065 192.247 267.065C191.66 267.065 190.987 266.737 190.987 266.409Z" fill="#D8DEE8"/>
<path d="M188.848 286.903C187.467 288.283 186.726 288.076 186.518 288.817C186.294 289.663 187.226 290.008 187.398 291.698C187.502 292.75 187.209 293.354 187.467 293.509C187.847 293.734 188.468 292.302 189.918 291.715C190.038 291.664 191.557 291.094 192.816 291.853C193.541 292.302 193.455 292.75 194.628 293.854C195.387 294.562 195.784 294.907 196.25 294.82C197.044 294.665 197.475 293.423 197.751 292.664C197.975 292.026 198.493 290.577 198.131 288.904C197.976 288.179 197.855 288.352 195.698 285.057C195.094 284.143 194.852 283.746 194.318 283.522C193.213 283.039 192.005 283.729 191.798 283.849C191.367 284.091 190.987 284.505 190.228 285.316C189.331 286.264 189.383 286.351 188.848 286.903Z" fill="#D8DEE8"/>
<path d="M119.536 260.544C118.294 259.699 116.154 257.922 114.998 254.817C114.532 253.558 113.152 249.867 114.895 247.624C115.93 246.296 117.604 246.072 118.449 245.951C119.174 245.847 121.417 245.554 122.832 246.951C125.092 249.194 123.47 254.041 123.142 255.007C122.228 257.819 120.537 259.63 119.536 260.544Z" fill="#FF5400"/>
<path d="M121.59 251.178C121.59 252.765 120.399 254.076 118.932 254.128C117.466 254.179 116.258 252.92 116.258 251.35C116.258 249.763 117.448 248.452 118.932 248.4C120.399 248.349 121.59 249.591 121.59 251.178Z" fill="#2E2E33"/>
<path d="M135.876 292.112C134.651 291.284 132.546 289.542 131.39 286.471C130.924 285.229 129.578 281.572 131.287 279.33C132.305 278.002 133.961 277.743 134.807 277.622C135.531 277.519 137.74 277.191 139.137 278.554C141.363 280.744 139.776 285.592 139.448 286.558C138.516 289.369 136.86 291.198 135.876 292.112Z" fill="#FF5400"/>
<path d="M137.912 282.78C137.912 284.349 136.739 285.678 135.29 285.747C133.84 285.816 132.65 284.591 132.65 283.021C132.65 281.451 133.823 280.123 135.29 280.054C136.739 279.985 137.912 281.21 137.912 282.78Z" fill="#2E2E33"/>
<path d="M190.591 288.507C189.417 287.696 187.398 285.988 186.311 282.987C185.863 281.762 184.569 278.191 186.208 276.001C187.174 274.69 188.762 274.465 189.573 274.327C190.263 274.224 192.368 273.896 193.714 275.242C195.836 277.381 194.318 282.124 194.007 283.073C193.11 285.833 191.522 287.61 190.591 288.507Z" fill="url(#paint7_linear)"/>
<path d="M192.523 279.399C192.523 280.934 191.402 282.228 190.004 282.28C188.606 282.349 187.485 281.141 187.485 279.606C187.485 278.071 188.606 276.777 190.004 276.725C191.402 276.673 192.523 277.864 192.523 279.399Z" fill="#2E2E33"/>
<path d="M174.716 269.928C173.526 269.1 171.49 267.375 170.385 264.339C169.937 263.115 168.626 259.51 170.282 257.302C171.265 255.991 172.87 255.766 173.681 255.646C174.371 255.542 176.528 255.232 177.874 256.612C180.031 258.785 178.478 263.529 178.167 264.495C177.27 267.255 175.665 269.049 174.716 269.928Z" fill="#FF5400"/>
<path d="M176.683 260.769C176.683 262.321 175.545 263.598 174.147 263.649C172.732 263.701 171.593 262.494 171.593 260.941C171.593 259.389 172.732 258.095 174.147 258.061C175.545 258.026 176.683 259.234 176.683 260.769Z" fill="#2E2E33"/>
<path d="M223.478 199.911C223.478 203.326 221.01 206.121 217.956 206.155L94.1548 207.673C90.7557 207.708 87.995 204.827 87.995 201.205V101.672C87.995 98.0668 90.7557 95.2206 94.1548 95.3414L217.956 99.4296C221.01 99.5331 223.478 102.379 223.478 105.795V199.911Z" fill="#2E2E33"/>
<path d="M122.728 187.353L103.507 187.439C103.282 187.439 103.093 187.249 103.093 186.991V182.143C103.093 181.902 103.282 181.695 103.507 181.695L122.728 181.66C122.953 181.66 123.143 181.85 123.143 182.092V186.904C123.125 187.163 122.953 187.353 122.728 187.353Z" fill="#FF5400"/>
<path d="M179.22 197.703L103.507 198.341C103.282 198.341 103.093 198.151 103.093 197.91V193.062C103.093 192.821 103.282 192.614 103.507 192.614L179.22 192.148C179.427 192.148 179.617 192.338 179.617 192.579V197.289C179.617 197.513 179.427 197.703 179.22 197.703Z" fill="black"/>
<path opacity="0.32" d="M212.901 173.001L103.386 172.794V158.218L212.901 159.063V173.001Z" fill="#D8DEE8"/>
<path d="M319.137 323.283L247.824 327.906C244.908 328.096 242.544 325.577 242.544 322.265V259.51C242.544 256.215 244.908 253.455 247.807 253.369L319.12 251.04C321.846 250.954 324.055 253.455 324.055 256.646V317.194C324.072 320.385 321.863 323.11 319.137 323.283Z" fill="#2E2E33"/>
<path d="M324.055 298.874L242.544 303.29V305.188L324.055 300.72V298.874Z" fill="white"/>
<path d="M281.781 252.247L281.798 302.497L283.334 302.41V252.196L281.781 252.247Z" fill="white"/>
<path d="M274.827 282.762L251.637 283.815V259.63L274.827 258.802V282.762Z" fill="black"/>
<path d="M274.827 295.838L251.637 297.028V288.49L274.827 287.385V295.838Z" fill="black"/>
<path d="M263.13 313.606L251.724 314.278C251.586 314.278 251.466 314.158 251.466 314.002V310.759C251.466 310.604 251.586 310.466 251.724 310.466L263.13 309.811C263.268 309.811 263.371 309.931 263.371 310.087V313.312C263.371 313.45 263.251 313.588 263.13 313.606Z" fill="url(#paint8_linear)"/>
<path d="M297.051 318.712L251.706 321.524C251.568 321.524 251.448 321.403 251.448 321.248V318.005C251.448 317.849 251.568 317.711 251.706 317.711L297.051 314.969C297.189 314.969 297.293 315.072 297.293 315.227V318.401C297.293 318.574 297.189 318.695 297.051 318.712Z" fill="black"/>
<path d="M296.344 294.13L289.856 294.458V258.268L296.344 258.043V294.13Z" fill="white"/>
<path d="M307.128 293.578L300.709 293.906V257.888L307.128 257.664V293.578Z" fill="white"/>
<path d="M317.809 293.026L311.459 293.354L311.442 257.509L317.809 257.284V293.026Z" fill="white"/>
<path d="M296.344 294.13L289.856 294.458V275.673L296.344 275.38V294.13Z" fill="url(#paint9_linear)"/>
<path d="M307.128 293.578L300.709 293.906V266.237L307.128 265.996V293.578Z" fill="url(#paint10_linear)"/>
<path d="M317.809 293.027L311.459 293.354L311.442 268.997L317.809 268.739V293.027Z" fill="url(#paint11_linear)"/>
<path d="M403.237 317.832L337.238 322.11C334.546 322.282 332.372 319.85 332.372 316.676V256.353C332.372 253.179 334.564 250.54 337.238 250.453L403.237 248.28C405.756 248.194 407.809 250.609 407.809 253.679V311.984C407.809 315.054 405.773 317.676 403.237 317.832Z" fill="#2E2E33"/>
<path d="M354.233 308.914L341.43 309.673C341.292 309.673 341.188 309.552 341.188 309.397V306.033C341.188 305.878 341.292 305.74 341.43 305.74L354.233 304.998C354.371 304.998 354.474 305.119 354.474 305.274V308.621C354.474 308.776 354.371 308.897 354.233 308.914Z" fill="#2E2E33"/>
<path d="M367.674 315.503L341.43 317.142C341.292 317.142 341.188 317.039 341.188 316.866V313.502C341.188 313.347 341.292 313.209 341.43 313.209L367.674 311.605C367.812 311.605 367.916 311.708 367.916 311.863V315.193C367.916 315.365 367.812 315.486 367.674 315.503Z" fill="black"/>
<path d="M343.794 290.732L339.825 290.922V256.75L343.794 256.612V290.732Z" fill="white"/>
<path d="M349.661 290.421L345.727 290.628V256.543L349.661 256.405V290.421Z" fill="white"/>
<path d="M355.51 290.128L351.593 290.335V256.336L355.51 256.18V290.128Z" fill="white"/>
<path d="M361.325 289.835L357.425 290.025V256.129L361.325 255.973V289.835Z" fill="white"/>
<path d="M367.105 289.542L363.223 289.732V255.922L367.105 255.784V289.542Z" fill="white"/>
<path d="M372.868 289.249L369.003 289.439V255.715L372.868 255.577V289.249Z" fill="white"/>
<path d="M378.579 288.955L374.749 289.145V255.507L378.579 255.369V288.955Z" fill="white"/>
<path d="M384.273 288.662L380.46 288.852V255.301L384.273 255.163V288.662Z" fill="white"/>
<path d="M389.95 288.369L386.137 288.576V255.094L389.95 254.956V288.369Z" fill="white"/>
<path d="M395.575 288.093L391.796 288.283V254.904L395.575 254.766V288.093Z" fill="white"/>
<path d="M401.183 287.8L397.421 287.989V254.697L401.183 254.559V287.8Z" fill="white"/>
<path d="M343.794 290.732L339.825 290.922V273.172L343.794 272.999V290.732Z" fill="#FFC244"/>
<path d="M349.661 290.422L345.727 290.629V264.443L349.661 264.288V290.422Z" fill="#FFC244"/>
<path d="M355.51 290.128L351.593 290.335V267.22L355.51 267.065V290.128Z" fill="#FFC244"/>
<path d="M361.325 289.835L357.425 290.025V266.737L361.325 266.565V289.835Z" fill="#FFC244"/>
<path d="M367.105 289.542L363.223 289.731V263.77L367.105 263.615V289.542Z" fill="#FFC244"/>
<path d="M372.868 289.249L369.003 289.438V266.513L372.868 266.358V289.249Z" fill="#FFC244"/>
<path d="M378.579 288.955L374.749 289.145V264.374L378.579 264.236V288.955Z" fill="#FFC244"/>
<path d="M384.273 288.662L380.46 288.852V266.617L384.273 266.461V288.662Z" fill="#FFC244"/>
<path d="M389.95 288.369L386.137 288.576V265.823L389.95 265.668V288.369Z" fill="#FFC244"/>
<path d="M395.575 288.093L391.796 288.283V262.649L395.575 262.494V288.093Z" fill="#FFC244"/>
<path d="M401.183 287.8L397.421 287.989V263.891L401.183 263.736V287.8Z" fill="#FFC244"/>
<path d="M407.808 294.337L332.354 298.426V300.271L407.808 296.114V294.337Z" fill="white"/>
<path d="M480.14 312.847L418.8 316.814C416.298 316.97 414.279 314.624 414.279 311.57V253.438C414.279 250.385 416.298 247.832 418.8 247.763L480.14 245.762C482.486 245.693 484.384 248.021 484.384 250.971V307.206C484.402 310.173 482.504 312.692 480.14 312.847Z" fill="#2E2E33"/>
<path d="M484.436 290.198L414.313 293.993V295.769L484.436 291.905V290.198Z" fill="white"/>
<path d="M440.575 304.015L421.146 305.17C421.025 305.17 420.922 305.067 420.922 304.912V301.893C420.922 301.738 421.025 301.6 421.146 301.6L440.575 300.478C440.696 300.478 440.799 300.582 440.799 300.737V303.739C440.799 303.877 440.696 303.997 440.575 304.015Z" fill="black"/>
<path d="M464.007 309.293L421.146 311.984C421.025 311.984 420.922 311.881 420.922 311.725V308.707C420.922 308.551 421.025 308.413 421.146 308.413L464.007 305.809C464.128 305.809 464.231 305.912 464.231 306.067V309.034C464.214 309.155 464.128 309.293 464.007 309.293Z" fill="black"/>
<path d="M462.022 271.826C462.022 273.724 460.763 275.311 459.21 275.38C457.657 275.449 456.38 273.982 456.38 272.085C456.38 270.187 457.64 268.6 459.21 268.531C460.763 268.462 462.022 269.946 462.022 271.826Z" fill="url(#paint12_linear)"/>
<path d="M459.089 275.88C458.347 275.88 457.622 275.587 457.053 275.035C456.294 274.31 455.862 273.241 455.862 272.068C455.862 269.911 457.346 268.1 459.175 268.014C459.969 267.979 460.728 268.273 461.332 268.859C462.074 269.584 462.505 270.653 462.505 271.809C462.505 273.965 461.022 275.776 459.21 275.863C459.175 275.88 459.141 275.88 459.089 275.88ZM459.296 269.032C459.262 269.032 459.244 269.032 459.21 269.032C457.916 269.083 456.863 270.463 456.863 272.085C456.863 272.982 457.191 273.793 457.743 274.327C458.157 274.724 458.64 274.914 459.175 274.897C460.469 274.845 461.522 273.465 461.522 271.843C461.522 270.946 461.211 270.136 460.642 269.601C460.262 269.221 459.796 269.032 459.296 269.032Z" fill="url(#paint13_linear)"/>
<path d="M446.269 257.905L421.474 258.837V253.783L446.269 252.886V257.905Z" fill="url(#paint14_linear)"/>
<path d="M473.083 278.985L463.299 279.451V275.656L473.083 275.207V278.985Z" fill="#C281E8"/>
<path d="M242.527 232.048L242.51 111.194C242.51 107.796 245.288 105.053 248.687 105.122L462.178 108.779C465.491 108.831 468.148 111.539 468.148 114.851L468.165 225.165C468.165 228.442 465.56 231.133 462.281 231.237L248.808 238.137C245.374 238.24 242.527 235.48 242.527 232.048Z" fill="#2E2E33"/>
<path d="M469.045 233.169L238.351 239.862C235.556 239.931 233.071 237.378 233.071 234.722L233.054 105.795C233.054 103.139 235.539 100.465 238.265 100.586L469.028 108.797C470.909 108.866 472.444 110.832 472.444 113.213L472.461 228.77C472.461 231.151 470.926 233.117 469.045 233.169Z" fill="black"/>
<path d="M472.927 233.618L239.197 239.897C236.833 239.966 234.935 237.844 234.935 235.17L234.918 105.14C234.918 102.466 236.833 100.361 239.179 100.448L472.91 108.176C474.808 108.245 476.344 110.228 476.344 112.626L476.361 229.184C476.378 231.599 474.825 233.583 472.927 233.618Z" fill="#2E2E33"/>
<path d="M401.89 223.595L246.858 226.907L246.84 113.178L401.873 117.473L401.89 223.595Z" fill="black"/>
<path d="M466.371 128.807L413.934 127.582V117.801L466.371 119.25V128.807Z" fill="black"/>
<path d="M466.371 142.055L413.934 141.175V131.377L466.371 132.498V142.055Z" fill="black"/>
<path d="M466.371 221.905L413.934 223.009V152.646L466.371 153.25V221.905Z" fill="black"/>
<path d="M467.233 209.657L412.881 210.485V207.863L467.233 207.087V209.657Z" fill="#2E2E33"/>
<path d="M421.457 220.111C421.457 220.111 417.54 217.144 418.42 214.867C419.3 212.59 420.818 213.452 421.612 214.125C422.975 213.125 423.527 213.47 424.166 213.849C424.804 214.229 425.667 216.816 421.457 220.111Z" fill="url(#paint15_linear)"/>
<path d="M463.472 219.334L428.428 220.024V213.504L463.454 212.917L463.472 219.334Z" fill="#2E2E33"/>
<path d="M467.251 234.032C467.113 234.032 467.009 233.928 467.009 233.79C467.009 233.652 467.113 233.549 467.251 233.531L472.927 233.376C474.687 233.324 476.137 231.461 476.137 229.202L476.119 112.643C476.119 110.384 474.687 108.503 472.91 108.434L466.094 108.21C465.956 108.21 465.853 108.089 465.853 107.951C465.853 107.813 465.956 107.727 466.112 107.71L472.927 107.934C474.963 108.003 476.603 110.108 476.603 112.626L476.62 229.184C476.62 231.703 474.963 233.807 472.945 233.859L467.251 234.032C467.268 234.032 467.251 234.032 467.251 234.032Z" fill="black"/>
<path d="M316.566 151.49V182.178L343.276 168.637L316.566 151.49Z" fill="#2E2E33"/>
<path d="M108.683 70.3461C108.769 73.0199 106.475 75.1071 103.559 75.0209C100.625 74.9174 98.1751 72.6749 98.0888 69.9839C98.0025 67.2929 100.297 65.2056 103.231 65.3264C106.164 65.4299 108.597 67.6724 108.683 70.3461Z" fill="white"/>
<path d="M131.425 71.1395C131.511 73.796 129.251 75.866 126.386 75.7625C123.505 75.659 121.089 73.4337 121.003 70.76C120.917 68.1035 123.177 66.0162 126.058 66.1369C128.94 66.2577 131.338 68.5002 131.425 71.1395Z" fill="white"/>
<path d="M153.821 71.9331C153.907 74.5724 151.682 76.6251 148.852 76.5216C146.022 76.4354 143.641 74.2101 143.555 71.5709C143.468 68.9316 145.694 66.8789 148.541 66.9824C151.354 67.0686 153.718 69.2939 153.821 71.9331Z" fill="white"/>
<path d="M138.068 113.523L137.895 122.976L135.945 122.941L136.118 113.488L133.012 113.437L133.047 111.694L141.208 111.85L141.173 113.592L138.068 113.523Z" fill="white"/>
<path d="M148.075 123.165L146.212 118.525L144.141 118.491L144.055 123.096L142.105 123.062L142.312 111.884L147.075 111.97C148.973 112.005 150.474 113.247 150.439 115.248C150.405 116.679 149.559 117.783 148.144 118.284L150.249 123.217L148.075 123.165ZM146.729 113.661L144.228 113.609L144.176 116.731L146.626 116.783C147.678 116.8 148.438 116.231 148.455 115.196C148.455 114.144 147.765 113.695 146.729 113.661Z" fill="white"/>
<path d="M158.773 123.355L157.928 120.871L153.787 120.802L152.838 123.252L150.802 123.217L155.236 112.108L156.806 112.143L160.826 123.407L158.773 123.355ZM156.685 116.921L155.995 114.61H155.943L155.184 116.852L154.391 119.146L157.393 119.198L156.685 116.921Z" fill="white"/>
<path d="M166.124 112.298C167.797 112.333 169.212 112.971 169.902 114.437C170.282 115.265 170.299 116.386 170.282 117.766C170.247 119.319 170.196 120.457 169.816 121.32C169.04 122.993 167.452 123.493 165.658 123.459L161.862 123.39L162.069 112.212L166.124 112.298ZM163.829 121.682L165.744 121.717C167.625 121.751 168.263 120.664 168.298 118.991L168.332 116.904C168.367 114.903 167.487 114.109 165.848 114.075L163.967 114.04L163.829 121.682Z" fill="white"/>
<path d="M171.887 123.597L172.094 112.419L179.582 112.557L179.548 114.316L174.009 114.213L173.957 117.145L178.685 117.232L178.65 118.939L173.923 118.853L173.871 121.872L179.41 121.975L179.375 123.735L171.887 123.597Z" fill="white"/>
<path d="M186.708 114.454L186.657 117.473L191.384 117.559L191.35 119.25L186.622 119.164L186.536 123.873L184.586 123.838L184.793 112.66L192.282 112.798L192.247 114.558L186.708 114.454Z" fill="white"/>
<path d="M201.15 117.111L201.099 119.974C201.047 122.579 199.373 124.201 196.837 124.149C194.041 124.097 192.713 122.096 192.747 119.819L192.799 116.955C192.834 114.713 194.249 112.746 197.044 112.798C199.632 112.85 201.202 114.678 201.15 117.111ZM194.783 116.904L194.732 119.905C194.714 121.13 195.387 122.32 196.889 122.338C198.252 122.355 199.114 121.337 199.132 119.991L199.183 116.99C199.201 115.713 198.407 114.661 197.027 114.644C195.525 114.609 194.801 115.731 194.783 116.904Z" fill="white"/>
<path d="M208.622 124.287L206.258 120.112L203.756 124.201L201.565 124.166L205.292 118.508L201.979 112.988L204.187 113.023L206.31 116.921L208.604 113.109L210.796 113.143L207.31 118.543L210.813 124.321L208.622 124.287Z" fill="white"/>
<path d="M137.343 133.636L136.877 132.239L134.548 132.205L134.013 133.585L132.874 133.567L135.359 127.323L136.239 127.34L138.499 133.671L137.343 133.636ZM136.17 130.014L135.773 128.72H135.738L135.307 129.98L134.858 131.273L136.549 131.308L136.17 130.014Z" fill="white"/>
<path d="M140.052 129.22L140 131.877C139.983 132.498 140.224 132.791 140.811 132.808C141.294 132.826 141.674 132.481 141.691 131.911L141.743 129.255L142.761 129.272L142.675 133.74L141.657 133.723V133.274H141.622C141.346 133.602 140.88 133.757 140.483 133.757C139.552 133.74 138.965 133.222 138.982 132.136L139.034 129.203L140.052 129.22Z" fill="white"/>
<path d="M145.09 133.775C144.435 133.757 143.951 133.343 143.969 132.636L144.02 130.118L143.503 130.1L143.52 129.272L144.038 129.29L144.055 128.134L145.056 128.151L145.038 129.307L145.729 129.324L145.711 130.152L145.038 130.135L145.004 132.377C145.004 132.688 145.108 132.878 145.418 132.895H145.746L145.729 133.792L145.09 133.775Z" fill="white"/>
<path d="M149.887 130.1C150.111 130.463 150.198 130.98 150.18 131.584C150.163 132.257 150.06 132.74 149.853 133.102C149.507 133.654 148.869 133.93 148.162 133.913C147.489 133.895 146.954 133.671 146.626 133.188C146.384 132.809 146.281 132.274 146.298 131.601C146.315 131.118 146.384 130.67 146.54 130.342C146.85 129.686 147.523 129.324 148.334 129.341C149.024 129.324 149.576 129.6 149.887 130.1ZM147.506 130.721C147.385 130.946 147.351 131.256 147.333 131.601C147.333 131.946 147.351 132.239 147.454 132.464C147.592 132.774 147.851 132.964 148.196 132.981C148.576 132.981 148.904 132.791 149.042 132.36C149.093 132.188 149.128 131.963 149.145 131.567C149.145 131.239 149.128 130.963 149.042 130.773C148.921 130.411 148.627 130.256 148.3 130.238C147.955 130.221 147.644 130.411 147.506 130.721Z" fill="white"/>
<path d="M152.389 133.913C151.733 133.895 151.25 133.481 151.267 132.774L151.319 130.256L150.802 130.238L150.819 129.41L151.336 129.427L151.354 128.272L152.354 128.289L152.337 129.445L153.027 129.462L153.01 130.29L152.337 130.273L152.303 132.515C152.303 132.826 152.406 133.016 152.717 133.033H153.045L153.027 133.93L152.389 133.913Z" fill="white"/>
<path d="M154.839 131.273L154.787 133.964L153.769 133.947L153.856 129.479L154.856 129.496L154.839 130.031H154.874C155.15 129.652 155.529 129.462 155.961 129.479C156.288 129.479 156.565 129.548 156.806 129.738L156.409 130.652C156.168 130.497 155.909 130.428 155.685 130.428C155.201 130.393 154.839 130.704 154.839 131.273Z" fill="white"/>
<path d="M160.533 131.032L160.481 134.068L159.463 134.051V133.654L159.446 133.637C159.205 133.947 158.721 134.068 158.273 134.068C157.324 134.051 156.737 133.568 156.754 132.688C156.772 131.963 157.307 131.36 158.29 131.377L159.498 131.394V131.066C159.498 130.721 159.325 130.428 158.618 130.411C158.135 130.394 157.807 130.514 157.548 130.756L157.013 130.066C157.462 129.635 158.066 129.497 158.687 129.514C159.705 129.531 160.55 129.876 160.533 131.032ZM158.497 133.205C158.963 133.205 159.394 133.085 159.463 132.602C159.481 132.533 159.481 132.464 159.481 132.17L158.445 132.153C157.928 132.136 157.721 132.36 157.721 132.636C157.703 132.912 157.91 133.188 158.497 133.205Z" fill="white"/>
<path d="M163.967 134.12V133.705L163.95 133.688C163.639 134.033 163.208 134.154 162.828 134.154C161.413 134.12 161.258 132.912 161.275 131.808C161.292 130.79 161.637 129.565 163.018 129.583C163.397 129.583 163.794 129.738 164.019 130.031L164.036 130.014L164.088 127.564L165.106 127.582L164.985 134.137L163.967 134.12ZM163.208 130.566C162.414 130.549 162.328 131.325 162.328 131.929C162.31 132.481 162.379 133.188 163.139 133.205C163.898 133.223 163.984 132.429 164.001 131.894C164.019 131.325 163.967 130.583 163.208 130.566Z" fill="white"/>
<path d="M166.072 128.824L166.089 127.892L167.107 127.91L167.09 128.841L166.072 128.824ZM165.968 134.171L166.055 129.704L167.073 129.721L166.986 134.189L165.968 134.171Z" fill="white"/>
<path d="M170.713 134.258L170.765 131.601C170.782 131.032 170.524 130.687 169.954 130.687C169.471 130.67 169.091 130.997 169.074 131.567L169.022 134.223L168.004 134.206L168.091 129.738L169.109 129.755L169.091 130.221H169.109C169.402 129.893 169.868 129.738 170.282 129.738C171.196 129.755 171.783 130.29 171.766 131.342L171.714 134.275L170.713 134.258Z" fill="white"/>
<path d="M176.373 129.893L176.287 134.171C176.252 135.672 175.424 136.172 174.251 136.155C173.802 136.155 173.164 136.017 172.715 135.586L173.267 134.844C173.56 135.068 173.923 135.223 174.354 135.223C174.906 135.241 175.286 134.913 175.286 134.327V133.912H175.269C174.975 134.24 174.561 134.378 174.182 134.378C172.801 134.361 172.56 133.188 172.577 132.17C172.594 131.118 172.836 129.79 174.285 129.824C174.665 129.824 175.061 129.98 175.32 130.29H175.338V129.876L176.373 129.893ZM174.458 133.412C175.2 133.429 175.303 132.671 175.32 132.119C175.338 131.601 175.303 130.79 174.509 130.773C173.716 130.756 173.647 131.498 173.629 132.084C173.629 132.722 173.681 133.395 174.458 133.412Z" fill="white"/>
<path d="M181.032 134.499C180.376 134.482 179.703 134.344 179.099 133.792L179.668 133.067C180.083 133.464 180.566 133.619 181.101 133.619C181.532 133.619 181.877 133.447 181.894 133.119C181.894 132.808 181.653 132.67 181.118 132.601C180.324 132.498 179.427 132.343 179.444 131.29C179.461 130.376 180.238 129.91 181.135 129.928C181.808 129.945 182.36 130.083 182.843 130.462L182.343 131.221C181.929 130.928 181.497 130.825 181.135 130.807C180.652 130.79 180.41 131.014 180.41 131.273C180.41 131.566 180.721 131.687 181.463 131.773C182.188 131.86 182.912 132.153 182.895 133.084C182.878 133.999 182.032 134.516 181.032 134.499Z" fill="white"/>
<path d="M185.294 135.431C185.035 136.103 184.517 136.328 183.982 136.31H183.603L183.62 135.448H183.896C184.155 135.448 184.345 135.241 184.448 134.982L184.69 134.275L183.119 129.997L184.224 130.014L184.776 131.67L185.19 133.085H185.224L185.69 131.705L186.294 130.049L187.364 130.066L185.294 135.431Z" fill="white"/>
<path d="M189.262 134.654C188.606 134.637 187.933 134.499 187.329 133.947L187.899 133.223C188.313 133.619 188.796 133.775 189.331 133.775C189.762 133.775 190.107 133.602 190.125 133.274C190.125 132.964 189.883 132.826 189.348 132.757C188.555 132.653 187.657 132.498 187.675 131.446C187.692 130.531 188.468 130.066 189.365 130.083C190.038 130.1 190.591 130.238 191.074 130.618L190.573 131.377C190.159 131.083 189.728 130.98 189.365 130.963C188.882 130.946 188.641 131.17 188.641 131.429C188.641 131.722 188.951 131.843 189.693 131.929C190.418 132.015 191.143 132.308 191.125 133.24C191.091 134.154 190.263 134.672 189.262 134.654Z" fill="white"/>
<path d="M193.213 134.672C192.558 134.654 192.074 134.24 192.092 133.533L192.143 131.015L191.626 130.997L191.643 130.169L192.161 130.187L192.178 129.031L193.179 129.048L193.162 130.204L193.852 130.221L193.835 131.049L193.162 131.032L193.127 133.274C193.127 133.585 193.231 133.775 193.541 133.792H193.869L193.852 134.689L193.213 134.672Z" fill="white"/>
<path d="M195.439 132.774C195.422 133.326 195.715 133.861 196.371 133.861C196.63 133.861 197.096 133.757 197.441 133.464C197.648 133.706 197.803 133.947 198.027 134.189C197.527 134.637 196.888 134.792 196.319 134.792C195.37 134.775 194.352 134.309 194.387 132.481C194.421 130.756 195.456 130.204 196.371 130.221C197.579 130.238 198.286 131.101 198.252 132.395V132.843L195.439 132.774ZM195.474 132.05L197.182 132.084C197.165 131.48 196.819 131.153 196.354 131.135C195.888 131.118 195.525 131.463 195.474 132.05Z" fill="white"/>
<path d="M204.446 134.879L204.498 132.222C204.515 131.653 204.239 131.308 203.67 131.291C203.204 131.273 202.824 131.653 202.807 132.188L202.755 134.844L201.737 134.827L201.789 132.17C201.806 131.601 201.53 131.256 200.961 131.239C200.495 131.222 200.098 131.601 200.098 132.136L200.046 134.792L199.028 134.775L199.114 130.307L200.132 130.325L200.115 130.808C200.132 130.808 200.132 130.825 200.15 130.825C200.426 130.497 200.909 130.307 201.357 130.307C201.91 130.325 202.324 130.532 202.583 130.963C202.962 130.566 203.463 130.342 204.015 130.342C204.912 130.359 205.533 130.928 205.516 131.946L205.464 134.896L204.446 134.879Z" fill="white"/>
<path d="M207.983 134.999C207.328 134.982 206.655 134.844 206.051 134.292L206.62 133.568C207.034 133.964 207.517 134.12 208.052 134.12C208.484 134.12 208.829 133.947 208.846 133.619C208.846 133.309 208.604 133.171 208.069 133.102C207.276 132.998 206.378 132.843 206.396 131.791C206.413 130.877 207.189 130.411 208.087 130.428C208.76 130.445 209.312 130.583 209.795 130.963L209.295 131.722C208.88 131.429 208.449 131.325 208.087 131.308C207.604 131.291 207.362 131.515 207.362 131.774C207.362 132.067 207.673 132.188 208.415 132.274C209.139 132.36 209.864 132.653 209.847 133.585C209.829 134.499 208.984 135.017 207.983 134.999Z" fill="white"/>
<path d="M128.578 116.11L128.681 111.022L124.281 110.935L116.189 118.715L108.39 110.642L103.99 110.556L103.904 115.645L112.617 124.684L119.536 124.804L128.578 116.11Z" fill="#FF5400"/>
<path d="M128.388 126.943L128.474 121.855L124.074 121.768L115.982 129.565L108.2 121.475L103.8 121.406L103.697 126.495L112.41 135.534L119.346 135.655L128.388 126.943Z" fill="white"/>
<path d="M528.418 135.689L495.03 190.32L393.142 189.181L347.97 276.57L231.311 280.658L170.782 373.911C169.713 375.567 167.918 376.637 165.951 376.809L158.048 377.482C154.46 378.051 146.799 376.965 147.972 373.515L188.969 280.779L222.684 265.685L336.099 261.338L379.011 175.416L483.228 174.26L518.152 121.216L528.418 135.689Z" fill="url(#paint16_linear)"/>
<path d="M466.302 139.363L447.58 130.755L468.441 126.512L466.302 139.363Z" fill="url(#paint17_linear)"/>
<path d="M537.632 121.216L547.432 135.689H525.692L518.359 126.495L537.632 121.216Z" fill="url(#paint18_linear)"/>
<path d="M549.727 71.0879L540.651 64.3604L536.717 118.853L540.651 125.857L547.433 135.689L549.727 71.0879Z" fill="url(#paint19_linear)"/>
<path d="M294.515 255.059L341.568 267.91L386.741 180.505L339.705 167.653L294.515 255.059Z" fill="url(#paint20_linear)"/>
<path d="M114.222 367.339L149.438 376.947C153.165 377.965 157.117 376.465 159.222 373.222L224.927 271.981L177.891 259.13L111.806 360.957C110.236 363.372 111.461 366.598 114.222 367.339Z" fill="url(#paint21_linear)"/>
<path d="M177.874 259.148L224.91 271.999L341.568 267.91L294.515 255.059L177.874 259.148Z" fill="url(#paint22_linear)"/>
<path d="M339.705 167.653L386.741 180.505L488.612 181.643L441.576 168.792L339.705 167.653Z" fill="url(#paint23_linear)"/>
<path d="M447.58 130.756L465.404 129.824L441.576 168.792L488.612 181.643L522.12 126.823L540.651 125.857V64.3604L447.58 130.756Z" fill="url(#paint24_linear)"/>
<path d="M392.573 169.93C383.963 170.517 382.427 170.845 382.41 171.241C382.358 172.449 396.162 174.812 410.276 175.174C422.837 175.502 425.028 173.967 438.47 174.847C447.218 175.416 453.084 176.503 453.222 175.83C453.395 175.019 445.251 172.052 436.503 170.258C424.58 167.809 413.744 168.481 392.573 169.93Z" fill="url(#paint25_linear)"/>
<path d="M153.562 323.697C160.844 311.829 163.518 299.737 176.183 293.872C185.88 289.369 192.489 292.664 201.099 286.989C207.811 282.556 211.451 275.518 213.505 268.894L177.857 259.165L114.394 356.955C136.325 346.312 147.42 333.702 153.562 323.697Z" fill="url(#paint26_linear)"/>
<path d="M262.456 205.139C264.337 206.088 266.718 205.226 267.753 203.173C268.788 201.137 268.098 198.705 266.217 197.739C266.114 197.687 266.028 197.653 265.924 197.601C266.269 196.48 266.545 195.324 266.718 194.186C266.821 194.186 266.942 194.186 267.046 194.168C269.202 193.979 270.911 191.995 270.859 189.752C270.807 187.51 269.03 185.837 266.873 186.026C266.752 186.044 266.649 186.061 266.545 186.078C266.321 184.957 266.01 183.87 265.631 182.818C265.734 182.766 265.821 182.697 265.924 182.628C267.77 181.334 268.357 178.799 267.235 176.936C266.114 175.09 263.716 174.624 261.887 175.918C261.8 175.987 261.697 176.056 261.61 176.125C260.886 175.314 260.092 174.572 259.229 173.9C259.298 173.796 259.35 173.693 259.402 173.589C260.437 171.554 261.8 169.311 259.885 168.397C255.485 166.258 253.604 168.086 252.569 170.139C252.517 170.243 252.466 170.346 252.431 170.467C251.379 170.174 250.309 169.967 249.222 169.863C249.222 169.742 249.239 169.639 249.239 169.518C249.187 167.276 249.86 166.051 247.703 166.016C242.993 165.93 241.405 167.966 241.457 170.208C241.457 170.329 241.474 170.432 241.474 170.553C240.387 170.864 239.335 171.26 238.3 171.726C238.248 171.623 238.196 171.519 238.144 171.433C237.023 169.587 234.624 169.121 232.795 170.415C230.949 171.709 230.362 174.245 231.484 176.108C231.536 176.194 231.605 176.297 231.674 176.384C230.863 177.194 230.104 178.091 229.396 179.04C229.31 178.988 229.206 178.919 229.12 178.885C227.239 177.936 224.858 178.799 223.823 180.851C222.788 182.887 223.478 185.319 225.359 186.285C225.462 186.337 225.548 186.371 225.652 186.423C225.307 187.544 225.031 188.7 224.858 189.839C224.755 189.839 224.634 189.839 224.53 189.856C222.374 190.046 220.665 192.029 220.717 194.272C220.769 196.514 222.546 198.188 224.703 197.998C224.824 197.981 224.927 197.963 225.031 197.946C225.255 199.067 225.566 200.154 225.945 201.206C225.842 201.258 225.755 201.327 225.652 201.396C223.806 202.69 223.219 205.226 224.341 207.089C225.462 208.934 229.155 209.797 230.984 208.503C231.07 208.434 229.879 207.968 229.966 207.882C230.69 208.693 231.484 209.435 232.347 210.107C232.278 210.211 232.226 210.314 232.174 210.418C231.139 212.453 231.829 214.886 233.71 215.852C235.591 216.8 237.972 215.938 239.007 213.885C239.059 213.782 239.111 213.678 239.145 213.557C240.198 213.851 241.267 214.058 242.354 214.161C242.354 214.282 242.337 214.385 242.337 214.506C242.389 216.749 244.166 218.422 246.323 218.232C248.48 218.042 250.188 216.059 250.136 213.816C250.136 213.695 250.119 213.592 250.119 213.471C251.206 213.161 252.258 212.764 253.294 212.298C253.346 212.402 253.397 212.505 253.449 212.591C254.571 214.437 256.969 214.903 258.798 213.609C260.644 212.315 261.231 209.78 260.109 207.917C260.058 207.83 259.989 207.727 259.92 207.641C260.73 206.83 261.507 205.933 262.197 204.984C262.266 205.036 262.352 205.088 262.456 205.139ZM238.938 205.45C232.088 201.983 229.586 193.151 233.347 185.733C237.109 178.316 245.719 175.124 252.569 178.609C259.419 182.076 261.921 190.908 258.16 198.326C254.398 205.726 245.788 208.917 238.938 205.45Z" fill="url(#paint27_linear)"/>
<path d="M267.028 194.201C269.185 194.011 270.893 192.028 270.842 189.785C270.79 187.543 269.013 185.869 266.856 186.059C266.735 186.076 266.632 186.094 266.528 186.111C266.304 184.99 265.993 183.903 265.614 182.851C265.717 182.799 265.803 182.73 265.907 182.661C267.753 181.367 270.031 178.262 268.719 176.537C266.252 173.26 263.698 174.674 261.869 175.968C261.783 176.037 261.679 176.106 261.593 176.175C260.869 175.364 260.075 174.622 259.212 173.95C259.281 173.846 259.333 173.743 259.385 173.639C259.954 172.535 260.006 171.31 259.626 170.258C257.849 173.38 256.089 176.537 254.364 179.694C259.833 183.696 261.576 191.579 258.16 198.307C255.261 203.999 249.515 207.208 243.89 206.811C243.631 207.466 243.39 208.122 243.131 208.76C242.406 210.502 241.578 212.21 240.75 213.918C241.267 214.021 241.802 214.09 242.32 214.142C242.32 214.263 242.303 214.366 242.303 214.487C242.354 216.73 243.717 218.644 247.617 218.437C249.774 218.317 250.153 216.04 250.102 213.797C250.102 213.676 250.084 213.573 250.084 213.452C251.171 213.142 252.224 212.745 253.259 212.279C253.311 212.383 253.363 212.486 253.415 212.572C254.536 214.418 258.401 215.212 260.247 213.918C262.094 212.624 261.196 209.743 260.092 207.898C260.04 207.811 259.971 207.708 259.902 207.622C260.713 206.811 261.49 205.914 262.18 204.965C262.266 205.017 262.37 205.086 262.456 205.12C264.337 206.069 266.718 205.207 267.753 203.154C268.788 201.118 268.098 198.686 266.217 197.72C266.114 197.668 266.028 197.634 265.924 197.582C266.269 196.461 266.545 195.305 266.718 194.167C266.804 194.218 266.925 194.201 267.028 194.201Z" fill="url(#paint28_linear)"/>
<path d="M264.475 205.379C266.355 206.328 268.737 205.466 269.772 203.413C270.807 201.377 270.117 198.945 268.236 197.979C268.133 197.927 268.046 197.893 267.943 197.841C268.288 196.72 268.564 195.564 268.737 194.426C268.84 194.426 268.961 194.426 269.064 194.408C271.221 194.219 272.929 192.235 272.878 189.992C272.826 187.75 271.049 186.077 268.892 186.266C268.771 186.284 268.668 186.301 268.564 186.318C268.34 185.197 268.029 184.11 267.65 183.058C267.753 183.006 267.839 182.937 267.943 182.868C269.789 181.574 270.376 179.039 269.254 177.176C268.133 175.33 265.734 174.864 263.905 176.158C263.819 176.227 263.716 176.296 263.629 176.365C262.905 175.554 262.111 174.812 261.248 174.14C261.317 174.036 261.369 173.933 261.421 173.829C262.456 171.794 261.766 169.361 259.885 168.395C258.004 167.447 255.623 168.309 254.588 170.362C254.536 170.465 254.484 170.569 254.45 170.69C253.397 170.396 252.328 170.189 251.24 170.086C251.24 169.965 251.258 169.862 251.258 169.741C251.206 167.498 249.429 165.825 247.272 166.015C245.115 166.205 243.407 168.188 243.459 170.431C243.459 170.552 243.476 170.655 243.476 170.776C242.389 171.086 241.336 171.483 240.301 171.949C240.249 171.845 240.198 171.742 240.146 171.656C239.024 169.81 236.626 169.344 234.797 170.638C232.951 171.932 232.364 174.467 233.486 176.33C233.537 176.417 233.606 176.52 233.675 176.606C232.864 177.417 232.088 178.314 231.398 179.263C231.311 179.211 231.208 179.142 231.122 179.108C229.241 178.159 226.86 179.021 225.825 181.074C224.789 183.11 225.479 185.542 227.36 186.508C227.464 186.56 227.55 186.594 227.653 186.646C227.308 187.767 227.032 188.923 226.86 190.061C226.756 190.061 226.635 190.061 226.532 190.079C224.375 190.268 222.667 192.252 222.719 194.495C222.77 196.737 224.548 198.41 226.704 198.221C226.825 198.203 226.929 198.186 227.032 198.169C227.257 199.29 227.567 200.377 227.947 201.429C227.843 201.481 227.757 201.55 227.653 201.619C225.807 202.913 225.221 205.448 226.342 207.311C227.464 209.157 229.862 209.623 231.691 208.329C231.777 208.26 231.881 208.191 231.967 208.122C232.692 208.933 233.486 209.675 234.348 210.347C234.279 210.451 234.227 210.554 234.176 210.658C233.14 212.693 233.831 215.126 235.711 216.092C237.592 217.04 239.973 216.178 241.009 214.125C241.06 214.022 241.112 213.918 241.147 213.797C242.199 214.091 243.269 214.298 244.356 214.401C244.356 214.522 244.339 214.625 244.339 214.746C244.39 216.989 246.168 218.662 248.324 218.472C250.481 218.282 252.189 216.299 252.138 214.056C252.138 213.935 252.12 213.832 252.12 213.711C253.207 213.401 254.26 213.004 255.295 212.538C255.347 212.642 255.399 212.745 255.451 212.831C256.572 214.677 258.971 215.143 260.8 213.849C262.646 212.555 263.232 210.02 262.111 208.157C262.059 208.07 261.99 207.967 261.921 207.881C262.732 207.07 263.491 206.173 264.199 205.224C264.285 205.276 264.388 205.328 264.475 205.379ZM240.974 205.673C234.124 202.205 231.622 193.373 235.384 185.956C239.145 178.538 247.755 175.347 254.605 178.832C261.455 182.299 263.957 191.131 260.196 198.548C256.417 205.966 247.824 209.157 240.974 205.673Z" fill="url(#paint29_linear)"/>
<path d="M216.093 176.796C219.182 178.366 223.064 176.917 224.755 173.57C226.446 170.224 225.324 166.239 222.236 164.669C222.08 164.583 221.908 164.514 221.752 164.462C222.322 162.616 222.753 160.753 223.047 158.873C223.219 158.873 223.409 158.873 223.581 158.856C227.101 158.545 229.897 155.302 229.828 151.628C229.759 147.954 226.843 145.211 223.305 145.539C223.116 145.556 222.943 145.591 222.753 145.608C222.391 143.779 221.873 142.003 221.235 140.278C221.39 140.174 221.563 140.088 221.718 139.967C224.738 137.863 225.704 133.688 223.875 130.652C222.046 127.616 218.129 126.874 215.109 128.996C214.954 129.1 214.816 129.22 214.661 129.341C213.47 128.03 212.159 126.805 210.744 125.684C210.848 125.529 210.934 125.356 211.02 125.184C212.711 121.837 214.937 118.18 211.831 116.662C204.619 113.143 201.53 116.162 199.839 119.509C199.753 119.681 199.684 119.854 199.598 120.026C197.872 119.543 196.112 119.215 194.335 119.026C194.352 118.836 194.352 118.646 194.352 118.456C194.283 114.782 195.37 112.781 191.833 112.712C184.12 112.557 181.515 115.903 181.584 119.595C181.584 119.785 181.601 119.974 181.618 120.164C179.858 120.664 178.116 121.32 176.425 122.096C176.338 121.924 176.269 121.768 176.166 121.613C174.337 118.577 170.42 117.835 167.401 119.957C164.381 122.062 163.415 126.236 165.244 129.272C165.33 129.427 165.433 129.565 165.537 129.721C164.208 131.049 162.949 132.498 161.793 134.068C161.637 133.981 161.499 133.878 161.327 133.809C158.238 132.239 154.356 133.688 152.665 137.035C150.974 140.381 152.096 144.366 155.184 145.936C155.34 146.022 155.512 146.091 155.667 146.143C155.098 147.988 154.667 149.851 154.373 151.732C154.201 151.732 154.011 151.732 153.838 151.749C150.318 152.059 147.523 155.302 147.592 158.977C147.661 162.651 150.577 165.394 154.114 165.066C154.304 165.049 154.477 165.014 154.667 164.997C155.029 166.825 155.547 168.602 156.185 170.327C156.03 170.413 155.857 170.517 155.702 170.638C152.682 172.742 151.716 176.917 153.545 179.953C155.374 182.989 161.413 184.386 164.433 182.281C164.588 182.178 162.604 181.384 162.759 181.281C163.95 182.592 165.261 183.817 166.676 184.938C166.572 185.093 166.486 185.266 166.4 185.438C164.709 188.785 165.83 192.769 168.919 194.339C172.007 195.909 175.89 194.46 177.581 191.113C177.667 190.941 177.736 190.768 177.822 190.596C179.548 191.079 181.308 191.407 183.085 191.596C183.068 191.786 183.068 191.976 183.068 192.166C183.137 195.84 186.053 198.583 189.59 198.255C193.11 197.944 195.905 194.701 195.836 191.027C195.836 190.837 195.819 190.648 195.802 190.458C197.562 189.958 199.304 189.302 200.995 188.526C201.081 188.698 201.15 188.854 201.254 189.009C203.083 192.045 207 192.787 210.019 190.665C213.039 188.56 214.005 184.386 212.176 181.35C212.09 181.195 211.986 181.057 211.883 180.901C213.211 179.573 214.471 178.124 215.627 176.554C215.782 176.623 215.938 176.727 216.093 176.796ZM177.581 177.296C166.365 171.604 162.259 157.148 168.436 145.004C174.596 132.86 188.693 127.633 199.908 133.326C211.124 139.018 215.23 153.474 209.053 165.618C202.893 177.762 188.796 182.989 177.581 177.296Z" fill="#7A2901"/>
<path d="M223.599 158.873C227.119 158.563 229.914 155.32 229.845 151.645C229.776 147.971 226.86 145.228 223.323 145.556C223.133 145.573 222.96 145.608 222.77 145.625C222.408 143.797 221.891 142.02 221.252 140.295C221.407 140.209 221.58 140.105 221.735 139.984C224.755 137.88 228.482 132.774 226.359 129.945C222.322 124.58 218.146 126.909 215.127 129.013C214.971 129.117 214.833 129.238 214.678 129.358C213.488 128.047 212.176 126.823 210.761 125.701C210.865 125.546 210.951 125.374 211.037 125.201C211.969 123.373 212.038 121.372 211.434 119.664C208.518 124.787 205.654 129.945 202.824 135.12C211.779 141.675 214.626 154.595 209.036 165.618C204.291 174.95 194.87 180.194 185.673 179.539C185.259 180.608 184.862 181.678 184.414 182.73C183.223 185.593 181.86 188.388 180.514 191.182C181.359 191.338 182.222 191.476 183.085 191.562C183.068 191.752 183.068 191.941 183.068 192.131C183.137 195.805 185.38 198.945 191.764 198.6C195.301 198.41 195.905 194.667 195.836 190.993C195.836 190.803 195.819 190.613 195.802 190.423C197.562 189.923 199.304 189.268 200.995 188.491C201.081 188.664 201.15 188.819 201.254 188.974C203.083 192.01 209.415 193.287 212.435 191.182C215.455 189.078 214.005 184.351 212.176 181.333C212.09 181.177 211.986 181.039 211.883 180.884C213.211 179.556 214.471 178.107 215.627 176.537C215.782 176.623 215.92 176.727 216.093 176.796C219.182 178.366 223.064 176.917 224.755 173.57C226.446 170.224 225.324 166.239 222.236 164.669C222.08 164.583 221.908 164.514 221.752 164.462C222.322 162.616 222.753 160.753 223.047 158.873C223.236 158.89 223.409 158.89 223.599 158.873Z" fill="#7A2901"/>
<path d="M219.423 177.175C222.512 178.745 226.394 177.296 228.085 173.95C229.776 170.603 228.654 166.618 225.566 165.049C225.41 164.962 225.238 164.893 225.083 164.842C225.652 162.996 226.083 161.133 226.377 159.253C226.549 159.253 226.739 159.253 226.912 159.235C230.432 158.925 233.227 155.682 233.158 152.008C233.089 148.333 230.173 145.591 226.636 145.918C226.446 145.936 226.273 145.97 226.083 145.987C225.721 144.159 225.203 142.382 224.565 140.657C224.72 140.571 224.893 140.467 225.048 140.347C228.068 138.242 229.034 134.068 227.205 131.032C225.376 127.996 221.459 127.254 218.44 129.376C218.284 129.479 218.146 129.6 217.991 129.721C216.8 128.41 215.489 127.185 214.074 126.064C214.178 125.908 214.264 125.736 214.35 125.563C216.041 122.217 214.92 118.232 211.831 116.662C208.743 115.093 204.86 116.542 203.169 119.888C203.083 120.061 203.014 120.233 202.928 120.406C201.202 119.923 199.442 119.595 197.665 119.405C197.682 119.215 197.682 119.026 197.682 118.836C197.613 115.162 194.697 112.419 191.16 112.747C187.64 113.057 184.845 116.3 184.914 119.974C184.914 120.164 184.931 120.354 184.948 120.544C183.188 121.044 181.446 121.699 179.755 122.476C179.669 122.303 179.6 122.148 179.496 121.993C177.667 118.957 173.75 118.215 170.731 120.337C167.711 122.441 166.745 126.616 168.574 129.652C168.66 129.807 168.764 129.945 168.867 130.1C167.539 131.428 166.279 132.877 165.123 134.447C164.968 134.361 164.83 134.257 164.657 134.188C161.569 132.619 157.686 134.068 155.995 137.414C154.304 140.761 155.426 144.745 158.514 146.315C158.67 146.401 158.842 146.47 158.998 146.522C158.428 148.368 157.997 150.231 157.703 152.111C157.531 152.111 157.341 152.111 157.169 152.128C153.649 152.439 150.853 155.682 150.922 159.356C150.991 163.03 153.907 165.773 157.445 165.445C157.634 165.428 157.807 165.394 157.997 165.376C158.359 167.205 158.877 168.982 159.515 170.707C159.36 170.793 159.187 170.896 159.032 171.017C156.013 173.122 155.046 177.296 156.875 180.332C158.704 183.368 162.621 184.11 165.641 181.988C165.796 181.884 165.934 181.764 166.089 181.643C167.28 182.954 168.591 184.179 170.006 185.3C169.902 185.455 169.816 185.628 169.73 185.8C168.039 189.147 169.161 193.132 172.249 194.701C175.338 196.271 179.22 194.822 180.911 191.475C180.997 191.303 181.066 191.13 181.152 190.958C182.878 191.441 184.638 191.769 186.415 191.958C186.398 192.148 186.398 192.338 186.398 192.528C186.467 196.202 189.383 198.945 192.92 198.617C196.44 198.306 199.235 195.063 199.166 191.389C199.166 191.199 199.149 191.01 199.132 190.82C200.892 190.32 202.634 189.664 204.325 188.888C204.412 189.06 204.481 189.216 204.584 189.371C206.413 192.407 210.33 193.149 213.349 191.027C216.369 188.922 217.335 184.748 215.506 181.712C215.42 181.557 215.317 181.419 215.213 181.264C216.542 179.935 217.801 178.486 218.957 176.917C219.113 177.003 219.268 177.089 219.423 177.175ZM180.911 177.675C169.695 171.983 165.589 157.528 171.766 145.384C177.926 133.24 192.023 128.013 203.238 133.705C214.454 139.398 218.56 153.853 212.383 165.997C206.223 178.141 192.126 183.368 180.911 177.675Z" fill="#F86A2E"/>
<path d="M311.493 128.617C324.13 128.617 334.373 118.376 334.373 105.743C334.373 93.1107 324.13 82.8699 311.493 82.8699C298.857 82.8699 288.614 93.1107 288.614 105.743C288.614 118.376 298.857 128.617 311.493 128.617Z" fill="url(#paint30_linear)"/>
<path d="M311.493 127.858C323.71 127.858 333.614 117.957 333.614 105.743C333.614 93.5298 323.71 83.6288 311.493 83.6288C299.277 83.6288 289.373 93.5298 289.373 105.743C289.373 117.957 299.277 127.858 311.493 127.858Z" fill="url(#paint31_linear)"/>
<path opacity="0.69" d="M293.255 97.0322C293.186 97.0322 293.117 97.015 293.048 96.9805C292.824 96.8597 292.72 96.5837 292.841 96.3595C296.413 89.2697 303.556 84.871 311.494 84.871C312.753 84.871 314.03 84.9917 315.255 85.216C315.514 85.2677 315.669 85.5092 315.635 85.7507C315.583 86.0095 315.341 86.182 315.1 86.1302C313.926 85.9232 312.719 85.8025 311.494 85.8025C303.919 85.8025 297.086 90.0115 293.669 96.7735C293.6 96.946 293.428 97.0322 293.255 97.0322Z" fill="white"/>
<path d="M311.977 124.943C322.316 124.943 330.698 116.563 330.698 106.226C330.698 95.8896 322.316 87.51 311.977 87.51C301.637 87.51 293.255 95.8896 293.255 106.226C293.255 116.563 301.637 124.943 311.977 124.943Z" fill="url(#paint32_linear)"/>
<path d="M310.148 120.147V118.112C308.025 118.025 305.92 117.525 304.436 116.87C303.901 116.628 303.625 116.042 303.781 115.472L304.298 113.575C304.488 112.885 305.247 112.523 305.903 112.799C307.387 113.42 309.216 113.903 311.183 113.903C313.236 113.903 314.755 113.213 314.755 111.781C314.755 110.504 313.581 109.728 310.734 108.969C306.679 107.865 303.763 106.088 303.763 102.518C303.763 99.2919 306.127 96.8424 310.217 96.1696V94.1341C310.217 93.4786 310.752 92.9438 311.407 92.9438H312.598C313.253 92.9438 313.788 93.4786 313.788 94.1341V95.9626C315.755 96.0489 317.188 96.3766 318.326 96.7734C318.913 96.9804 319.224 97.6014 319.068 98.2051L318.585 99.9646C318.395 100.637 317.671 101.017 317.015 100.758C315.962 100.361 314.496 99.9474 312.581 99.9474C310.148 99.9474 309.457 100.948 309.457 101.862C309.457 102.966 310.907 103.725 314.064 104.708C318.568 106.054 320.449 107.934 320.449 111.298C320.449 114.386 318.154 117.163 313.719 117.853V120.13C313.719 120.785 313.184 121.32 312.529 121.32H311.338C310.683 121.337 310.148 120.803 310.148 120.147Z" fill="url(#paint33_linear)"/>
<path d="M359.789 99.8268C373.673 99.8268 384.929 88.5743 384.929 74.6936C384.929 60.8128 373.673 49.5603 359.789 49.5603C345.905 49.5603 334.649 60.8128 334.649 74.6936C334.649 88.5743 345.905 99.8268 359.789 99.8268Z" fill="url(#paint34_linear)"/>
<path d="M359.789 98.9817C373.206 98.9817 384.083 88.1076 384.083 74.6938C384.083 61.2799 373.206 50.4058 359.789 50.4058C346.372 50.4058 335.495 61.2799 335.495 74.6938C335.495 88.1076 346.372 98.9817 359.789 98.9817Z" fill="url(#paint35_linear)"/>
<path opacity="0.69" d="M339.757 65.1027C339.687 65.1027 339.601 65.0854 339.532 65.0509C339.273 64.9302 339.17 64.6197 339.308 64.3609C343.242 56.5812 351.093 51.7512 359.806 51.7512C361.204 51.7512 362.584 51.872 363.947 52.1307C364.223 52.1825 364.413 52.4412 364.361 52.7345C364.31 53.0105 364.051 53.2002 363.758 53.1485C362.463 52.907 361.135 52.7862 359.806 52.7862C351.49 52.7862 343.984 57.4092 340.222 64.8439C340.119 64.9992 339.946 65.1027 339.757 65.1027Z" fill="white"/>
<path d="M360.324 95.7732C371.683 95.7732 380.891 86.5672 380.891 75.2112C380.891 63.8551 371.683 54.6492 360.324 54.6492C348.965 54.6492 339.756 63.8551 339.756 75.2112C339.756 86.5672 348.965 95.7732 360.324 95.7732Z" fill="url(#paint36_linear)"/>
<path d="M358.305 90.4947V88.2521C355.976 88.1659 353.664 87.6139 352.024 86.8894C351.438 86.6307 351.144 85.9752 351.317 85.3542L351.886 83.2669C352.093 82.5079 352.922 82.1111 353.664 82.4216C355.286 83.0944 357.304 83.6464 359.461 83.6464C361.704 83.6464 363.378 82.8874 363.378 81.3176C363.378 79.9031 362.084 79.0751 358.961 78.2299C354.509 77.0051 351.3 75.0731 351.3 71.1574C351.3 67.6211 353.888 64.9129 358.374 64.1884V61.9459C358.374 61.2214 358.961 60.6349 359.686 60.6349H360.997C361.722 60.6349 362.308 61.2214 362.308 61.9459V63.9469C364.465 64.0331 366.035 64.3954 367.278 64.8439C367.916 65.0681 368.261 65.7581 368.089 66.4136L367.571 68.3456C367.364 69.0874 366.57 69.5014 365.863 69.2254C364.707 68.7941 363.085 68.3456 360.98 68.3456C358.322 68.3456 357.546 69.4496 357.546 70.4329C357.546 71.6576 359.151 72.4856 362.619 73.5551C367.571 75.0386 369.624 77.0914 369.624 80.7829C369.624 84.1639 367.105 87.2172 362.239 87.9762V90.4774C362.239 91.2019 361.653 91.7884 360.928 91.7884H359.617C358.892 91.8057 358.305 91.2192 358.305 90.4947Z" fill="url(#paint37_linear)"/>
<path d="M306.162 66.3961C324.363 66.3961 339.118 51.645 339.118 33.4486C339.118 15.2522 324.363 0.501099 306.162 0.501099C287.961 0.501099 273.206 15.2522 273.206 33.4486C273.206 51.645 287.961 66.3961 306.162 66.3961Z" fill="url(#paint38_linear)"/>
<path d="M306.162 65.3094C323.763 65.3094 338.031 51.0448 338.031 33.4486C338.031 15.8524 323.763 1.58789 306.162 1.58789C288.561 1.58789 274.293 15.8524 274.293 33.4486C274.293 51.0448 288.561 65.3094 306.162 65.3094Z" fill="url(#paint39_linear)"/>
<path opacity="0.69" d="M279.883 20.7355C279.814 20.7355 279.728 20.7182 279.659 20.6837C279.4 20.563 279.296 20.2525 279.434 19.9937C284.559 9.85073 294.808 3.53723 306.162 3.53723C307.974 3.53723 309.785 3.69248 311.562 4.02023C311.839 4.07198 312.028 4.33073 311.977 4.62398C311.925 4.89998 311.666 5.08973 311.373 5.03798C309.664 4.72748 307.905 4.57223 306.162 4.57223C295.188 4.57223 285.301 10.6615 280.349 20.4595C280.263 20.632 280.073 20.7355 279.883 20.7355Z" fill="white"/>
<path d="M306.852 61.1177C321.746 61.1177 333.821 49.0465 333.821 34.156C333.821 19.2654 321.746 7.19421 306.852 7.19421C291.957 7.19421 279.883 19.2654 279.883 34.156C279.883 49.0465 291.957 61.1177 306.852 61.1177Z" fill="url(#paint40_linear)"/>
<path d="M304.212 54.2006V51.2681C301.158 51.1473 298.121 50.4228 295.982 49.4913C295.222 49.1636 294.825 48.3011 295.05 47.4903L295.792 44.7648C296.068 43.7643 297.155 43.2468 298.121 43.6436C300.261 44.5406 302.883 45.2478 305.73 45.2478C308.681 45.2478 310.872 44.2473 310.872 42.1946C310.872 40.3488 309.181 39.2448 305.075 38.1581C299.225 36.5538 295.033 34.0181 295.033 28.8776C295.033 24.2373 298.432 20.6838 304.316 19.7351V16.8026C304.316 15.8538 305.075 15.0948 306.024 15.0948H307.749C308.698 15.0948 309.457 15.8538 309.457 16.8026V19.4418C312.287 19.5626 314.34 20.0456 315.98 20.6148C316.825 20.9081 317.274 21.8051 317.049 22.6676L316.359 25.2033C316.1 26.1693 315.048 26.7041 314.116 26.3591C312.615 25.7898 310.475 25.2033 307.715 25.2033C304.212 25.2033 303.228 26.6523 303.228 27.9461C303.228 29.5503 305.334 30.6371 309.872 32.0343C316.359 33.9836 319.068 36.6746 319.068 41.5218C319.068 45.9723 315.773 49.9571 309.388 50.9576V54.2351C309.388 55.1838 308.629 55.9428 307.68 55.9428H305.955C304.988 55.9083 304.212 55.1321 304.212 54.2006Z" fill="url(#paint41_linear)"/>
<path d="M436.934 338.394C421.802 368.236 401.235 371.41 395.178 371.721V371.738C395.178 371.738 395.351 371.755 394.902 371.738C394.453 371.755 394.626 371.738 394.626 371.738V371.721C389.105 371.479 374.801 369.271 361.221 351.711C358.357 348.002 355.51 343.62 352.87 338.411C335.288 303.738 348.073 285.885 348.073 285.885L394.626 285.764H394.902H395.178L415.004 285.816L441.8 285.885C441.783 285.85 454.499 303.721 436.934 338.394Z" fill="#F86A2E"/>
<path d="M394.954 292.578C421.055 292.578 442.214 289.898 442.214 286.592C442.214 283.286 421.055 280.606 394.954 280.606C368.853 280.606 347.694 283.286 347.694 286.592C347.694 289.898 368.853 292.578 394.954 292.578Z" fill="#1A1B1D"/>
<path opacity="0.18" d="M442.162 286.368C442.18 286.437 442.214 286.523 442.214 286.592C442.214 288.955 431.464 290.991 415.832 291.957C418.334 298.822 420.629 310.587 410.535 317.038C398.802 324.542 361.273 335.53 361.187 351.711C374.766 369.271 389.087 371.479 394.591 371.721V371.738C394.591 371.738 394.419 371.755 394.868 371.738C395.316 371.755 395.144 371.738 395.144 371.738V371.721C401.217 371.41 421.785 368.254 436.9 338.394C452.808 307.068 444.009 289.473 442.162 286.368Z" fill="black"/>
<path d="M323.037 234.031C336.645 234.031 347.676 219.914 347.676 202.498C347.676 185.083 336.645 170.965 323.037 170.965C309.429 170.965 298.397 185.083 298.397 202.498C298.397 219.914 309.429 234.031 323.037 234.031Z" fill="#1A1B1D"/>
<path d="M478.69 209.588C478.69 248.815 439.885 280.606 392.003 280.606C384.653 280.606 377.509 279.865 370.694 278.45C333.113 270.67 305.316 242.812 305.316 209.605C305.316 170.396 344.122 138.587 392.003 138.587C405.462 138.587 418.196 141.088 429.549 145.573C458.606 157.027 478.673 181.384 478.69 209.588Z" fill="#F86A2E"/>
<path opacity="0.18" d="M478.69 209.588C478.69 248.815 439.885 280.606 392.003 280.606C384.653 280.606 377.509 279.865 370.694 278.45C363.947 257.181 402.046 233.842 423.959 218.972C450.807 200.756 429.532 145.573 429.532 145.573C458.606 157.027 478.673 181.384 478.69 209.588Z" fill="black"/>
<path d="M466.854 246.383C480.462 246.383 491.493 232.265 491.493 214.85C491.493 197.434 480.462 183.317 466.854 183.317C453.246 183.317 442.214 197.434 442.214 214.85C442.214 232.265 453.246 246.383 466.854 246.383Z" fill="#1A1B1D"/>
<path d="M334.114 242.018L400.958 247.849C415.728 249.143 428.479 237.585 428.997 221.87L429.549 205.103C429.791 197.893 424.269 191.89 417.316 191.7L322.036 189.25C316.497 189.112 312.063 194.132 312.063 200.463V215.177C312.046 228.977 321.777 240.932 334.114 242.018Z" fill="#F4F7FA"/>
<path d="M332.51 232.427L404.03 237.688C414.59 238.465 423.614 230.116 423.959 218.972L424.183 211.572C424.407 204.413 418.938 198.427 412.07 198.22L326.816 195.616C321.225 195.443 316.739 200.463 316.739 206.811V213.383C316.722 223.285 323.71 231.789 332.51 232.427Z" fill="#1A1B1D"/>
<path d="M374.438 226.028C373.765 224.924 373.351 223.699 373.386 222.405C373.455 218.213 377.647 215.022 382.807 215.281C388.017 215.54 392.21 219.231 392.124 223.509C392.09 224.82 391.624 226.028 390.882 227.062L374.438 226.028Z" fill="#D8DEE8"/>
<path d="M330.422 223.25C329.8 222.198 329.421 221.042 329.421 219.818C329.438 215.833 333.2 212.797 337.858 213.021C342.569 213.262 346.382 216.747 346.348 220.818C346.33 222.077 345.916 223.199 345.261 224.199L330.422 223.25Z" fill="#D8DEE8"/>
<path d="M381.461 305.74L381.927 300.841L377.699 300.444L369.331 307.344L362.429 298.978L358.202 298.581L357.736 303.463L365.449 312.812L372.109 313.45L381.461 305.74Z" fill="#1A1B1D"/>
<path d="M380.46 316.159L380.926 311.277L376.699 310.863L368.33 317.763L361.428 309.414L357.201 309L356.735 313.899L364.448 323.231L371.108 323.869L380.46 316.159Z" fill="white"/>
<defs>
<linearGradient id="paint0_linear" x1="94.8707" y1="104.088" x2="112.008" y2="246.296" gradientUnits="userSpaceOnUse">
<stop stop-color="#AA80F9"/>
<stop offset="0.9964" stop-color="#6165D7"/>
</linearGradient>
<linearGradient id="paint1_linear" x1="108.228" y1="206.416" x2="48.5191" y2="297.953" gradientUnits="userSpaceOnUse">
<stop stop-color="#FFC444"/>
<stop offset="0.9964" stop-color="#F36F56"/>
</linearGradient>
<linearGradient id="paint2_linear" x1="78.9986" y1="273.268" x2="66.3161" y2="389.578" gradientUnits="userSpaceOnUse">
<stop offset="0.00359712" stop-color="#E38DDD"/>
<stop offset="1" stop-color="#9571F6"/>
</linearGradient>
<linearGradient id="paint3_linear" x1="459.504" y1="178.601" x2="526.576" y2="264.893" gradientUnits="userSpaceOnUse">
<stop stop-color="#FFC444"/>
<stop offset="0.9964" stop-color="#F36F56"/>
</linearGradient>
<linearGradient id="paint4_linear" x1="447.914" y1="94.0231" x2="473.467" y2="218.511" gradientUnits="userSpaceOnUse">
<stop stop-color="#AA80F9"/>
<stop offset="0.9964" stop-color="#6165D7"/>
</linearGradient>
<linearGradient id="paint5_linear" x1="482.563" y1="239.019" x2="479.289" y2="364.464" gradientUnits="userSpaceOnUse">
<stop offset="0.00359712" stop-color="#E38DDD"/>
<stop offset="1" stop-color="#9571F6"/>
</linearGradient>
<linearGradient id="paint6_linear" x1="85.4134" y1="316.851" x2="105.777" y2="313.357" gradientUnits="userSpaceOnUse">
<stop stop-color="#FF9085"/>
<stop offset="1" stop-color="#FF6205"/>
</linearGradient>
<linearGradient id="paint7_linear" x1="185.407" y1="281.372" x2="194.818" y2="281.371" gradientUnits="userSpaceOnUse">
<stop stop-color="#FF9085"/>
<stop offset="1" stop-color="#FF6205"/>
</linearGradient>
<linearGradient id="paint8_linear" x1="241.229" y1="317.109" x2="252.356" y2="313.616" gradientUnits="userSpaceOnUse">
<stop stop-color="#FF9085"/>
<stop offset="1" stop-color="#FF6205"/>
</linearGradient>
<linearGradient id="paint9_linear" x1="270.918" y1="300.812" x2="297.676" y2="281.606" gradientUnits="userSpaceOnUse">
<stop stop-color="#FF9085"/>
<stop offset="1" stop-color="#FF6205"/>
</linearGradient>
<linearGradient id="paint10_linear" x1="272.231" y1="302.641" x2="298.989" y2="283.436" gradientUnits="userSpaceOnUse">
<stop stop-color="#FF9085"/>
<stop offset="1" stop-color="#FF6205"/>
</linearGradient>
<linearGradient id="paint11_linear" x1="276.394" y1="308.44" x2="303.152" y2="289.236" gradientUnits="userSpaceOnUse">
<stop stop-color="#FF9085"/>
<stop offset="1" stop-color="#FF6205"/>
</linearGradient>
<linearGradient id="paint12_linear" x1="451.984" y1="278.345" x2="455.377" y2="275.338" gradientUnits="userSpaceOnUse">
<stop stop-color="#FF9085"/>
<stop offset="1" stop-color="#FF6205"/>
</linearGradient>
<linearGradient id="paint13_linear" x1="455.873" y1="271.958" x2="462.519" y2="271.957" gradientUnits="userSpaceOnUse">
<stop stop-color="#FF9085"/>
<stop offset="1" stop-color="#FF6205"/>
</linearGradient>
<linearGradient id="paint14_linear" x1="412.673" y1="265.033" x2="435.798" y2="254.992" gradientUnits="userSpaceOnUse">
<stop stop-color="#FF9085"/>
<stop offset="1" stop-color="#FF6205"/>
</linearGradient>
<linearGradient id="paint15_linear" x1="411.732" y1="219.628" x2="419.804" y2="217.009" gradientUnits="userSpaceOnUse">
<stop stop-color="#FF9085"/>
<stop offset="1" stop-color="#FF6205"/>
</linearGradient>
<linearGradient id="paint16_linear" x1="387.983" y1="158.819" x2="247.767" y2="395.549" gradientUnits="userSpaceOnUse">
<stop stop-color="#C44100"/>
<stop offset="1" stop-color="#7A2900"/>
</linearGradient>
<linearGradient id="paint17_linear" x1="442.414" y1="159.75" x2="446.784" y2="152.319" gradientUnits="userSpaceOnUse">
<stop stop-color="#C44100"/>
<stop offset="1" stop-color="#7A2900"/>
</linearGradient>
<linearGradient id="paint18_linear" x1="538.975" y1="78.3599" x2="533.736" y2="123.816" gradientUnits="userSpaceOnUse">
<stop stop-color="#C44100"/>
<stop offset="1" stop-color="#7A2900"/>
</linearGradient>
<linearGradient id="paint19_linear" x1="541.388" y1="119.497" x2="551.867" y2="42.5701" gradientUnits="userSpaceOnUse">
<stop stop-color="#C44100"/>
<stop offset="1" stop-color="#7A2900"/>
</linearGradient>
<linearGradient id="paint20_linear" x1="366.814" y1="169.667" x2="315.693" y2="263.655" gradientUnits="userSpaceOnUse">
<stop stop-color="#FF9085"/>
<stop offset="1" stop-color="#A33904"/>
</linearGradient>
<linearGradient id="paint21_linear" x1="208.238" y1="254.89" x2="112.941" y2="402.121" gradientUnits="userSpaceOnUse">
<stop stop-color="#FF9085"/>
<stop offset="1" stop-color="#FF6205"/>
</linearGradient>
<linearGradient id="paint22_linear" x1="328.348" y1="251.374" x2="128.341" y2="286.815" gradientUnits="userSpaceOnUse">
<stop stop-color="#FF9085"/>
<stop offset="1" stop-color="#FF6205"/>
</linearGradient>
<linearGradient id="paint23_linear" x1="416.212" y1="154.551" x2="412.284" y2="193.014" gradientUnits="userSpaceOnUse">
<stop stop-color="#FF9085"/>
<stop offset="1" stop-color="#FF6205"/>
</linearGradient>
<linearGradient id="paint24_linear" x1="467.998" y1="161.502" x2="550.152" y2="57.0119" gradientUnits="userSpaceOnUse">
<stop stop-color="#FF9085"/>
<stop offset="1" stop-color="#FF6205"/>
</linearGradient>
<linearGradient id="paint25_linear" x1="425.272" y1="159.836" x2="410.965" y2="186.139" gradientUnits="userSpaceOnUse">
<stop stop-color="#FF9085"/>
<stop offset="1" stop-color="#FF6205"/>
</linearGradient>
<linearGradient id="paint26_linear" x1="204.194" y1="252.272" x2="108.896" y2="399.504" gradientUnits="userSpaceOnUse">
<stop stop-color="#FF9085"/>
<stop offset="1" stop-color="#FF6205"/>
</linearGradient>
<linearGradient id="paint27_linear" x1="275.275" y1="208.837" x2="245.767" y2="191.541" gradientUnits="userSpaceOnUse">
<stop offset="0.00359712" stop-color="#E38DDD"/>
<stop offset="1" stop-color="#9571F6"/>
</linearGradient>
<linearGradient id="paint28_linear" x1="239.518" y1="188.496" x2="246.076" y2="191.447" gradientUnits="userSpaceOnUse">
<stop offset="0.00359712" stop-color="#E38DDD"/>
<stop offset="1" stop-color="#9571F6"/>
</linearGradient>
<linearGradient id="paint29_linear" x1="267.543" y1="217.268" x2="195.421" y2="125.909" gradientUnits="userSpaceOnUse">
<stop offset="0.00359712" stop-color="#E38DDD"/>
<stop offset="1" stop-color="#9571F6"/>
</linearGradient>
<linearGradient id="paint30_linear" x1="280.195" y1="142.086" x2="310.872" y2="106.463" gradientUnits="userSpaceOnUse">
<stop stop-color="#E1473D"/>
<stop offset="1" stop-color="#E9605A"/>
</linearGradient>
<linearGradient id="paint31_linear" x1="328.221" y1="80.4948" x2="237.518" y2="217.587" gradientUnits="userSpaceOnUse">
<stop stop-color="#FF6205"/>
<stop offset="1" stop-color="#FF928E"/>
</linearGradient>
<linearGradient id="paint32_linear" x1="285.561" y1="135.645" x2="396.049" y2="12.5917" gradientUnits="userSpaceOnUse">
<stop/>
<stop offset="1" stop-color="#383838"/>
</linearGradient>
<linearGradient id="paint33_linear" x1="325.514" y1="84.4223" x2="277.218" y2="165.543" gradientUnits="userSpaceOnUse">
<stop stop-color="#FF6205"/>
<stop offset="1" stop-color="#FF928E"/>
</linearGradient>
<linearGradient id="paint34_linear" x1="325.4" y1="114.605" x2="359.102" y2="75.468" gradientUnits="userSpaceOnUse">
<stop stop-color="#E1473D"/>
<stop offset="1" stop-color="#E9605A"/>
</linearGradient>
<linearGradient id="paint35_linear" x1="378.161" y1="46.9391" x2="278.513" y2="197.551" gradientUnits="userSpaceOnUse">
<stop stop-color="#FF6205"/>
<stop offset="1" stop-color="#FF928E"/>
</linearGradient>
<linearGradient id="paint36_linear" x1="296.894" y1="145.82" x2="407.381" y2="22.7673" gradientUnits="userSpaceOnUse">
<stop/>
<stop offset="1" stop-color="#383838"/>
</linearGradient>
<linearGradient id="paint37_linear" x1="375.187" y1="51.2537" x2="322.129" y2="140.374" gradientUnits="userSpaceOnUse">
<stop stop-color="#FF6205"/>
<stop offset="1" stop-color="#FF928E"/>
</linearGradient>
<linearGradient id="paint38_linear" x1="261.065" y1="85.8017" x2="305.26" y2="34.4802" gradientUnits="userSpaceOnUse">
<stop stop-color="#E1473D"/>
<stop offset="1" stop-color="#E9605A"/>
</linearGradient>
<linearGradient id="paint39_linear" x1="330.253" y1="-2.93104" x2="199.581" y2="194.573" gradientUnits="userSpaceOnUse">
<stop stop-color="#FF6205"/>
<stop offset="1" stop-color="#FF928E"/>
</linearGradient>
<linearGradient id="paint40_linear" x1="246.881" y1="100.915" x2="357.369" y2="-22.1383" gradientUnits="userSpaceOnUse">
<stop/>
<stop offset="1" stop-color="#383838"/>
</linearGradient>
<linearGradient id="paint41_linear" x1="326.353" y1="2.7273" x2="256.776" y2="119.595" gradientUnits="userSpaceOnUse">
<stop stop-color="#FF6205"/>
<stop offset="1" stop-color="#FF928E"/>
</linearGradient>
</defs>
</svg>
