<svg fill="none" xmlns="http://www.w3.org/2000/svg" viewBox="0 0 564 378">
  <path d="M154.718 333.736c-20.291-5.158-26.054-11.402-26.934-16.663-1.467-8.591 10.232-13.886 8.662-23.667-1.812-11.282-18.825-13.611-18.29-21.028.569-8.021 20.602-7.435 24.726-18.975 3.744-10.454-10.698-16.543-10.595-31.74.138-18.13 20.827-22.391 24.45-43.039 2.485-14.093-4.71-26.082-10.353-35.483-12.699-21.166-38.771-41.728-68.2759-39.64-4.0204.293-27.5038 1.949-33.3359 15.714-5.9011 13.955 8.1787 36.053 22.5863 47.765 10.439 8.487 19.187 10.005 19.6529 16.681.6212 9.005-14.8562 12.3-16.3228 25.427-.7765 6.934 2.778 12.868 6.2807 18.699 7.9371 13.213 15.6844 12.73 16.8232 20.044 1.5529 10.023-12.4406 14.128-15.5637 29.118-2.2085 10.678 2.5365 19.993 5.2109 25.254 10.4563 20.459 38.5463 32.171 71.2783 31.533Z" fill="url(#a)"/>
  <path opacity=".7" d="M150.767 333.029c-6.695-2.07-13.338-4.364-19.722-7.228-3.192-1.432-6.298-3.036-9.214-4.933-1.449-.966-2.83-2.001-4.089-3.174-1.26-1.156-2.364-2.484-3.158-3.968-.759-1.483-1.121-3.157-.828-4.761.259-1.621 1.173-3.07 2.105-4.537.949-1.466 1.933-3.001 2.606-4.692.672-1.707.983-3.553 1-5.364 0-1.829-.31-3.657-.931-5.382-.639-1.725-1.588-3.295-2.692-4.727-2.209-2.863-4.9-5.175-7.178-7.762-1.156-1.277-2.191-2.657-3.02-4.106-.828-1.466-1.414-3.053-1.742-4.692-.328-1.639-.363-3.329-.104-4.968.276-1.621.88-3.191 1.726-4.657 1.673-2.933 4.106-5.503 6.09-8.505 1.001-1.483 1.881-3.087 2.571-4.795.673-1.691 1.122-3.485 1.346-5.296.069-.448.104-.914.121-1.363l.035-.69-.018-.69-.034-1.362c-.017-.225 0-.449-.035-.69l-.103-.673-.19-1.363c-.052-.448-.224-.897-.328-1.345-.138-.449-.224-.897-.379-1.329l-.518-1.276c-.086-.207-.173-.431-.259-.638l-.311-.604-.638-1.208c-.5-.759-.949-1.552-1.484-2.259l-.794-1.087-.811-1.052-1.639-2.07c-2.157-2.726-4.106-5.555-5.142-8.763-1-3.192-1.242-6.659-.707-9.971.293-1.656.794-3.277 1.415-4.847.656-1.57 1.484-3.053 2.398-4.502 1.846-2.881 4.107-5.52 6.453-8.125 2.33-2.605 4.78-5.141 6.989-7.952 1.104-1.415 2.156-2.881 3.019-4.503.863-1.604 1.57-3.363 1.898-5.209.345-1.846.311-3.778-.086-5.606-.38-1.846-1.277-3.64-2.45-5.106-2.45-2.864-5.47-4.848-8.49-6.711-3.036-1.828-6.125-3.536-9.265-5.14-3.123-1.622-6.2809-3.174-9.4385-4.727-6.2979-3.105-12.6649-6.089-19.0491-9.004-9.8006-4.502-19.6184-8.987-29.4535-13.421-.0863.138-.1898.259-.2933.397 9.697 4.813 19.4114 9.574 29.1429 14.3 6.3325 3.036 12.5959 6.21 18.8765 9.333 6.246 3.174 12.51 6.348 18.462 9.953 2.934 1.811 5.85 3.795 7.972 6.296 1.018 1.277 1.726 2.708 2.053 4.295.345 1.587.38 3.243.087 4.83-.587 3.226-2.416 6.176-4.521 8.884-2.122 2.708-4.538 5.244-6.885 7.883-2.346 2.622-4.676 5.348-6.608 8.384-.949 1.518-1.829 3.105-2.537 4.795-.673 1.691-1.225 3.433-1.518 5.244-.5866 3.623-.311 7.349.794 10.833 1.156 3.502 3.278 6.538 5.469 9.298l1.64 2.053.811 1.018.759 1.035c.535.69.932 1.414 1.415 2.121l.586 1.122.294.552c.086.189.155.379.241.586l.466 1.156c.155.397.224.811.345 1.207.104.414.259.794.311 1.208l.19 1.242.086.621c.034.207.017.414.017.638l.035 1.259.017.639-.035.638c-.017.414-.051.845-.103 1.259-.207 1.673-.604 3.312-1.225 4.882-.621 1.57-1.432 3.053-2.381 4.485-1.881 2.863-4.297 5.468-6.091 8.659-.898 1.587-1.57 3.347-1.864 5.193-.276 1.845-.207 3.708.156 5.502.362 1.794 1.035 3.537 1.949 5.124.915 1.569 2.036 3.018 3.244 4.329 2.399 2.657 5.073 4.934 7.195 7.625 1.053 1.345 1.933 2.794 2.537 4.364.586 1.57.897 3.243.897 4.934 0 1.69-.259 3.363-.863 4.933-.604 1.57-1.501 3.036-2.45 4.502-.932 1.484-1.932 3.088-2.226 4.968-.345 1.863.121 3.795.967 5.417.879 1.621 2.087 3.001 3.416 4.209 1.329 1.207 2.778 2.26 4.262 3.208 3.002 1.898 6.16 3.468 9.404 4.865 6.47 2.794 13.165 5.002 19.894 6.986 6.747 1.984 13.562 3.657 20.412 5.244l.017-.086c-6.815-1.691-13.596-3.536-20.291-5.589Z" fill="#fff"/>
  <path d="M174.009 327.544c-59.977 10.298-78.422 2.329-83.8745-7.262-3.1748-5.572-3.5027-14.421-12.5268-25.582-7.6093-9.418-11.992-8.832-15.2531-16.042-5.6595-12.524 5.1246-19.562.7247-31.672-4.814-13.265-19.9635-10.936-26.5203-26.789-3.5889-8.677.6212-10.126-2.5709-18.768-6.5222-17.612-25.70932-16.077-32.09351-31.964-3.70973-9.246-1.8117306-21.218 4.29639-28.256 12.25072-14.145 41.58352-8.711 58.18242 4.382 2.1396 1.69 18.2208 14.766 19.791 34.138.949 11.678-4.0893 17.129.0518 24.253 5.8493 10.04 19.1008 4.744 24.9328 13.645 7.885 12.075-10.8186 30.429-1.812 44.022 3.486 5.261 7.178 3.847 10.664 9.884 5.728 9.936-.949 19.458.379 27.738 1.415 8.884 12.613 19.717 55.629 28.273Z" fill="url(#b)"/>
  <path opacity=".28" d="M63.0448 173.191c7.7818 17.957-4.9003 29.307 4.2101 43.47 7.4022 11.505 19.0663 9.142 22.2584 19.854 3.0541 10.264-6.8328 15.215-4.1238 26.945 2.2258 9.66 9.7315 9.712 17.2375 22.201 7.54 12.575 4.503 20.113 8.368 27.807 4.159 8.245 15.961 15.99 47.726 16.439 4.763-.638 9.853-1.432 15.271-2.363-43.016-8.539-54.214-19.389-55.629-28.273-1.329-8.28 5.366-17.802-.38-27.738-3.485-6.038-7.178-4.623-10.663-9.884-9.0241-13.593 9.697-31.947 1.812-44.022-5.815-8.919-19.0838-3.623-24.9331-13.645-4.1411-7.107.88-12.558-.0518-24.254-1.5529-19.371-17.6514-32.447-19.791-34.137-16.5989-13.11-45.9317-18.527-58.18241-4.382-.05177.069-.12078.138-.17255.207 8.19596.293 18.23806 1.949 28.64256 6.917 8.0924 3.83 22.1894 10.54 28.4011 24.858Z" fill="#fff"/>
  <path d="M143.106 328.303c-4.9 2.553-12.889 6.296-23.207 9.246-21.2752 6.072-57.855 10.315-70.4336-6.124-1.5529-2.018-5.6249-7.349-5.0901-13.955.5694-6.849 5.625-8.97 4.8658-13.248-1.0352-5.865-11.1119-5.417-21.1368-12.144-8.5065-5.71-18.75576-17.785-17.7723-31.982 1.0871-15.577 15.0288-24.426 16.5472-25.357 10.301-6.314 26.1925-8.608 36.1138-.621 8.7826 7.055 9.6108 19.509 10.1457 27.72 1.2251 18.579-6.5395 26.945-.949 33.448 5.1074 5.934 13.7519 1.553 19.9463 9.453 2.6572 3.381 1.898 5.227 6.0391 11.834 3.1399 5.002 6.5219 8.659 7.9029 9.953 10.801 10.057 34.889 2.467 37.028 1.777Z" fill="url(#c)"/>
  <path opacity=".5" d="M144.607 333.478c-15.08.965-30.144.465-44.7927-1.501-29.5226-3.95-32.8009-10.436-33.888-12.575-1.6564-3.278-1.3458-6.055-1.018-9.022.3623-3.312.7765-7.073-1.5184-12.092-2.0878-4.572-4.7968-6.693-7.4195-8.729-2.5709-2.001-5.0038-3.898-6.85-7.987-2.3984-5.278-1.6565-9.608-.88-14.179.4313-2.57.88-5.244.8455-8.246-.1553-9.28-5.1592-18.699-14.9253-28.117-.1898.121-.3968.224-.6039.328 9.7316 9.332 14.7182 18.664 14.8735 27.807.0517 2.949-.3969 5.589-.8282 8.124-.7938 4.675-1.5357 9.108.9317 14.559 1.9153 4.244 4.5207 6.279 7.0571 8.246 2.5537 2.001 5.2109 4.054 7.2297 8.487 2.2258 4.864 1.8462 8.366 1.4666 11.747-.3278 3.053-.6384 5.934 1.0871 9.384 1.1215 2.208 4.5034 8.936 34.3711 12.92 9.8527 1.311 19.9117 1.984 30.0407 1.984 4.952 0 9.904-.155 14.873-.483l-.052-.655Z" fill="#fff"/>
  <path opacity=".5" d="M48.413 259.147c.0517 2.95-.3969 5.589-.8282 8.125-.7938 4.675-1.5357 9.108.9317 14.559 1.9153 4.243 4.5207 6.279 7.0571 8.245 2.5537 2.001 5.2109 4.054 7.2297 8.487 2.2258 4.865 1.8462 8.367 1.4666 11.748-.3278 3.053-.6384 5.934 1.0871 9.384 1.1215 2.208 4.5034 8.935 34.3711 12.92 9.5589 1.276 19.3079 1.932 29.1429 1.966.587-.224 1.156-.431 1.726-.655-10.37.034-20.671-.621-30.7826-1.967-29.5226-3.95-32.801-10.436-33.888-12.575-1.6565-3.277-1.3459-6.055-1.018-9.022.3623-3.312.7764-7.072-1.5185-12.092-2.0878-4.571-4.7967-6.693-7.4194-8.728-2.571-2.001-5.0038-3.899-6.8501-7.987-2.3984-5.279-1.6564-9.608-.88-14.18.4314-2.57.88-5.244.8455-8.245-.1553-9.212-5.0901-18.561-14.7009-27.911-.2243.087-.4659.156-.6902.242 9.6108 9.315 14.5629 18.595 14.7182 27.686Z" fill="#fff"/>
  <path d="M403.909 304.756c60.632 5.313 78.353-4.157 82.977-14.162 2.692-5.813 2.295-14.662 10.37-26.53 6.816-10.005 11.216-9.798 13.873-17.25 4.607-12.938-6.729-19.062-3.348-31.516 3.71-13.628 18.98-12.541 24.226-28.877 2.864-8.935-1.467-10.039 1.018-18.923 5.038-18.095 24.294-18.147 29.333-34.517 2.933-9.522.051-21.287-6.626-27.807-13.372-13.0757-42.17-5.2615-57.613 9.177-1.984 1.863-16.944 16.215-16.892 35.656.034 11.73 5.504 16.732 1.949 24.167-5.003 10.488-18.652 6.296-23.707 15.663-6.868 12.696 13.303 29.428 5.435 43.729-3.037 5.537-6.833 4.433-9.818 10.746-4.9 10.385 2.554 19.32 1.915 27.669-.673 8.97-10.939 20.7-53.092 32.775Z" fill="url(#d)"/>
  <path opacity=".28" d="M501.725 141.761c-6.28 18.544 7.299 28.79-.604 43.66-6.418 12.075-18.255 10.695-20.55 21.631-2.209 10.488 8.058 14.611 6.332 26.514-1.432 9.815-8.903 10.488-15.339 23.546-6.488 13.162-2.812 20.424-6.039 28.393-3.468 8.556-14.597 17.25-46.208 20.321-4.796-.242-9.921-.604-15.408-1.087 42.17-12.075 52.419-23.805 53.092-32.775.639-8.349-6.815-17.302-1.915-27.669 2.985-6.313 6.764-5.209 9.818-10.747 7.868-14.3-12.303-31.032-5.435-43.728 5.073-9.367 18.704-5.175 23.708-15.663 3.554-7.435-1.916-12.455-1.95-24.168-.052-19.423 14.908-33.792 16.892-35.655 15.46-14.4386 44.241-22.2528 57.613-9.177.069.069.121.12.19.189-8.144.966-18.014 3.45-27.97 9.264-7.73 4.519-21.223 12.368-26.227 27.151Z" fill="#fff"/>
  <path d="M415.608 310.363c19.998-4.882 25.726-10.971 26.641-16.129 1.518-8.435-9.939-13.748-8.3-23.357 1.881-11.074 18.635-13.213 18.186-20.51-.483-7.883-20.187-7.504-24.139-18.889-3.589-10.315 10.681-16.163 10.715-31.101.035-17.837-20.274-22.218-23.656-42.556-2.312-13.886 4.866-25.599 10.508-34.793 12.683-20.683 38.513-40.6757 67.5-38.347 3.952.3105 27.038 2.1735 32.629 15.767 5.676 13.782-8.386 35.379-22.656 46.764-10.352 8.246-18.962 9.66-19.48 16.232-.69 8.85 14.494 12.231 15.822 25.168.708 6.831-2.864 12.627-6.349 18.337-7.937 12.92-15.547 12.368-16.72 19.561-1.622 9.85 12.113 14.007 15.029 28.773 2.07 10.523-2.675 19.648-5.366 24.771-10.474 19.993-38.202 31.24-70.364 30.309Z" fill="url(#e)"/>
  <path opacity=".7" d="M533.111 93.6855c-12.406 6.0893-24.846 12.0575-37.321 17.9745-6.247 2.933-12.441 5.986-18.635 9.005-6.177 3.053-12.372 6.123-18.256 9.608-2.898 1.759-5.78 3.674-7.885 6.124-1.018 1.242-1.708 2.639-2.053 4.209-.345 1.552-.397 3.174-.121 4.743.535 3.174 2.312 6.089 4.365 8.763 2.054 2.691 4.417 5.21 6.695 7.815 2.295 2.604 4.538 5.295 6.419 8.297.932 1.501 1.777 3.07 2.45 4.744.656 1.673 1.173 3.398 1.449 5.175.535 3.57.242 7.227-.88 10.66-1.156 3.433-3.278 6.417-5.469 9.091-1.087 1.345-2.209 2.656-3.192 4.019-.535.673-.932 1.38-1.415 2.087l-.587 1.087-.293.552c-.087.19-.156.379-.242.569l-.483 1.139c-.155.379-.242.793-.362 1.173-.104.397-.259.776-.311 1.19l-.19 1.225-.103.603c-.035.207-.017.414-.035.622l-.034 1.242-.018.621.035.621c.017.414.052.828.104 1.242.172 1.638.552 3.26 1.156 4.812.603 1.535 1.38 3.019 2.312 4.434 1.811 2.829 4.175 5.416 5.918 8.573.863 1.57 1.518 3.312 1.777 5.123.259 1.811.173 3.657-.207 5.416-.379 1.777-1.052 3.468-1.967 5.02-.914 1.536-2.036 2.95-3.226 4.227-2.382 2.587-5.039 4.795-7.144 7.434-1.052 1.311-1.932 2.726-2.536 4.261-.587 1.535-.898 3.174-.932 4.83-.017 1.656.224 3.312.811 4.865.569 1.552 1.449 2.984 2.381 4.45.897 1.466 1.881 3.053 2.14 4.916.31 1.846-.156 3.744-1.001 5.33-.88 1.588-2.071 2.95-3.399 4.106-1.329 1.173-2.744 2.191-4.228 3.122-2.967 1.829-6.09 3.364-9.283 4.709-6.384 2.691-12.992 4.796-19.635 6.676-6.643 1.881-13.373 3.468-20.119 4.951l-.017-.086c6.712-1.604 13.389-3.364 20.015-5.313 6.608-1.967 13.165-4.175 19.463-6.935 3.14-1.38 6.229-2.932 9.11-4.778 1.433-.931 2.813-1.949 4.055-3.088 1.243-1.138 2.347-2.415 3.141-3.864.759-1.449 1.138-3.087.845-4.657-.224-1.587-1.121-3.036-2.036-4.468-.932-1.449-1.881-2.967-2.519-4.64-.639-1.691-.932-3.502-.932-5.296.017-1.794.328-3.588.966-5.278.656-1.691 1.605-3.226 2.692-4.623 2.191-2.795 4.866-5.037 7.126-7.556 1.139-1.259 2.174-2.588 3.003-4.019.828-1.432 1.414-2.984 1.76-4.589.327-1.621.379-3.277.155-4.881-.259-1.605-.828-3.14-1.639-4.589-1.622-2.898-3.986-5.451-5.919-8.418-.966-1.466-1.829-3.053-2.484-4.726-.656-1.674-1.07-3.451-1.277-5.227-.052-.449-.086-.897-.104-1.346l-.034-.672.017-.673.035-1.346c.017-.224 0-.448.034-.672l.104-.673.207-1.346c.051-.448.224-.879.327-1.311.139-.431.225-.879.397-1.293l.518-1.26c.086-.207.173-.414.259-.621l.31-.586.639-1.19c.5-.742.949-1.518 1.484-2.208l.793-1.07.811-1.018 1.622-2.018c2.14-2.657 4.072-5.416 5.142-8.556 1.018-3.139 1.277-6.538.777-9.798-.259-1.639-.742-3.226-1.346-4.778-.621-1.535-1.432-3.019-2.312-4.451-1.795-2.846-3.986-5.468-6.264-8.038-2.277-2.571-4.658-5.089-6.798-7.883-1.07-1.398-2.088-2.864-2.933-4.451-.846-1.587-1.502-3.312-1.829-5.14-.328-1.829-.276-3.709.138-5.52.397-1.812 1.277-3.571 2.467-5.003 2.433-2.794 5.435-4.709 8.403-6.521 3.002-1.776 6.056-3.415 9.162-4.967 3.089-1.57 6.195-3.071 9.318-4.572 6.229-3.001 12.509-5.865 18.824-8.676 12.596-5.693 25.209-11.2992 37.874-16.802v.0345Z" fill="#fff"/>
  <path opacity=".7" d="M439.264 303.463c3.192-1.346 6.315-2.864 9.283-4.709 1.483-.932 2.898-1.95 4.227-3.123 1.329-1.156 2.519-2.518 3.399-4.105.846-1.587 1.329-3.485 1.001-5.331-.259-1.862-1.242-3.45-2.14-4.916-.914-1.466-1.794-2.898-2.381-4.45-.569-1.553-.828-3.209-.811-4.865.035-1.656.345-3.294.932-4.83.604-1.535 1.484-2.95 2.536-4.261 2.105-2.639 4.763-4.847 7.144-7.434 1.19-1.277 2.312-2.691 3.226-4.227.915-1.552 1.588-3.26 1.967-5.019.38-1.76.466-3.606.207-5.417-.276-1.811-.914-3.553-1.777-5.123-1.743-3.157-4.089-5.727-5.918-8.573-.915-1.415-1.708-2.881-2.312-4.434-.604-1.535-.966-3.156-1.156-4.812-.052-.414-.087-.828-.104-1.242l-.034-.621.017-.621.034-1.242c.018-.207 0-.414.035-.621l.104-.604.189-1.225c.052-.414.207-.793.311-1.19.121-.397.207-.794.362-1.173l.483-1.139c.087-.189.156-.379.242-.569l.293-.552.587-1.087c.466-.69.88-1.414 1.415-2.087.983-1.363 2.105-2.674 3.192-4.019 2.174-2.691 4.296-5.658 5.47-9.091 1.121-3.433 1.414-7.09.88-10.66-.294-1.777-.794-3.502-1.45-5.175-.673-1.656-1.518-3.226-2.45-4.744-1.881-3.002-4.141-5.693-6.419-8.297-2.277-2.605-4.641-5.124-6.694-7.815-2.054-2.673-3.831-5.589-4.366-8.763-.276-1.569-.224-3.191.121-4.743.345-1.553 1.035-2.967 2.053-4.209 2.105-2.45 4.987-4.365 7.886-6.124 5.883-3.485 12.078-6.555 18.255-9.608 6.194-3.019 12.389-6.072 18.635-9.005 9.559-4.519 19.083-9.091 28.608-13.7135-.086-.138-.173-.276-.276-.414-9.663 4.2435-19.291 8.5385-28.919 12.8855-6.298 2.812-12.596 5.693-18.825 8.677-3.123 1.501-6.228 3.001-9.317 4.571-3.089 1.553-6.16 3.191-9.162 4.968-2.985 1.811-5.97 3.726-8.403 6.521-1.191 1.414-2.071 3.191-2.468 5.002-.414 1.811-.465 3.709-.138 5.52.311 1.829.984 3.554 1.829 5.141.846 1.604 1.864 3.053 2.934 4.45 2.156 2.795 4.538 5.313 6.798 7.883 2.278 2.571 4.469 5.193 6.263 8.039.88 1.432 1.691 2.898 2.312 4.45.604 1.553 1.087 3.14 1.346 4.779.501 3.26.242 6.658-.776 9.798-1.053 3.139-2.985 5.899-5.142 8.556l-1.622 2.018-.811 1.018-.794 1.069c-.535.69-.983 1.466-1.483 2.208l-.639 1.19-.31.587c-.104.207-.173.414-.259.621l-.518 1.259c-.155.414-.259.863-.397 1.294-.103.431-.276.862-.328 1.311l-.207 1.345-.103.673c-.035.224-.018.449-.035.673l-.034 1.345-.017.673.034.673c.017.449.052.897.104 1.345.207 1.777.621 3.554 1.276 5.227.656 1.674 1.501 3.26 2.485 4.727 1.915 2.967 4.296 5.52 5.918 8.418.811 1.449 1.398 2.984 1.64 4.588.241 1.604.189 3.26-.156 4.882-.328 1.604-.932 3.157-1.76 4.588-.845 1.432-1.863 2.761-3.002 4.02-2.26 2.518-4.935 4.761-7.126 7.555-1.087 1.397-2.036 2.933-2.692 4.623-.638 1.691-.966 3.502-.966 5.279 0 1.794.293 3.605.932 5.295.638 1.691 1.587 3.209 2.519 4.641.914 1.449 1.794 2.881 2.036 4.468.293 1.587-.104 3.225-.846 4.657-.776 1.449-1.88 2.725-3.14 3.864-1.242 1.138-2.623 2.156-4.055 3.088-2.881 1.846-5.953 3.398-9.11 4.778-6.298 2.76-12.855 4.968-19.463 6.935-.794.241-1.605.465-2.399.707.518.017 1.018.017 1.536.017.328-.086.656-.19 1.001-.276 6.66-1.846 13.251-3.95 19.653-6.641Z" fill="#fff"/>
  <path d="M418.368 303.031c5.09 2.139 13.355 5.21 23.898 7.297 21.706 4.295 58.51 5.503 69.691-11.92 1.381-2.139 5.004-7.797 3.917-14.317-1.122-6.779-6.35-8.47-5.953-12.817.535-5.917 10.629-6.313 20.067-13.852 8.006-6.399 17.22-19.268 15.063-33.344-2.363-15.421-16.995-23.098-18.583-23.908-10.784-5.451-26.813-6.417-36.045 2.363-8.178 7.762-7.971 20.234-7.833 28.462.31 18.63 8.748 26.307 3.71 33.258-4.59 6.331-13.58 2.691-19.101 11.075-2.364 3.588-1.45 5.365-5.039 12.299-2.709 5.244-5.78 9.16-7.057 10.574-9.921 10.92-34.561 5.348-36.735 4.83Z" fill="url(#f)"/>
  <path opacity=".5" d="M507.022 226.286c-.604-9.108 3.589-18.802 12.493-28.894-.207-.103-.397-.207-.604-.31-8.955 10.195-13.165 19.993-12.544 29.256.207 3.001.862 5.623 1.518 8.159 1.156 4.502 2.243 8.746.293 14.214-1.518 4.226-3.778 6.314-6.177 8.539-2.45 2.26-4.969 4.588-6.677 9.315-1.881 5.192-1.156 8.901-.518 12.178.57 2.916 1.104 5.676-.276 9.074-.897 2.208-3.623 8.953-32.732 15.318-14.425 3.157-29.402 4.899-44.517 5.192l.018.656c4.969-.087 9.938-.345 14.856-.759 10.094-.828 20.05-2.329 29.781-4.451 29.436-6.451 32.266-13.42 33.198-15.715 1.449-3.57.897-6.434.311-9.435-.656-3.347-1.312-6.814.5-11.834 1.656-4.588 4.124-6.865 6.505-9.056 2.347-2.174 4.779-4.399 6.35-8.798 2.018-5.64.897-9.987-.277-14.593-.655-2.519-1.311-5.106-1.501-8.056Z" fill="#fff"/>
  <path d="M471.047 289.111 81.4036 310.242c-3.6062.19-6.5395-2.76-6.5395-6.589l-.0172-240.7415c0-3.8295 4.0721-9.3322 11.0429-8.694L471.047 75.642c2.536.1208 4.606 2.829 4.606 6.0375l.018 201.3765c-.018 3.209-2.071 5.917-4.624 6.055Z" fill="#7A2901"/>
  <path d="M471.012 317.211 86.4937 345.932c-6.6257 0-11.6296-4.951-11.6296-8.815l-.0172-251.815 6.4532-1.863 394.3359 16.974.017 210.64c0 3.208-2.07 5.968-4.641 6.158Z" fill="#1A1B1D"/>
  <path d="M483.953 290.56 94.3963 307.016c-3.6752.207-7.9198-7.331-7.9198-11.23L81.2828 83.439V60.6862c0-3.8985 2.9851-6.9 6.643-6.7275l395.9922 19.665c2.589.1208 4.676 2.8808 4.676 6.1238l.018 204.6535c.017 3.261-2.071 6.021-4.659 6.159Z" fill="#F86A2E"/>
  <path d="M483.919 319.108 88.0294 346.001c-3.6925.259-6.712-2.726-6.712-6.659l-.0173-255.9204L488.612 98.7741l.017 214.0549c0 3.295-2.105 6.107-4.71 6.279Z" fill="#1A1B1D"/>
  <path d="m217.076 329.907-123.9047 8.021c-3.3992.224-6.1599-2.536-6.1599-6.141l-.0173-99.584c0-3.623 2.7608-6.59 6.1599-6.659l123.905-2.415c3.054-.051 5.539 2.657 5.539 6.072l.017 94.151c-.017 3.415-2.485 6.348-5.539 6.555Z" fill="#2E2E33"/>
  <path d="m122.728 314.434-19.221 1.069c-.225.017-.414-.172-.414-.414v-4.847c0-.242.189-.449.414-.466l19.221-1.035c.225-.017.414.173.414.414v4.813c0 .241-.189.448-.414.466Z" fill="url(#g)"/>
  <path d="m179.237 321.834-75.713 4.588c-.224.017-.414-.172-.414-.414v-4.847c0-.242.19-.449.414-.466l75.713-4.399c.207-.017.397.173.397.414v4.71c-.017.207-.19.414-.397.414ZM102.333 250.574c-1.052.707-2.053 2.225-1.829 3.847.242 1.639 1.64 2.639 2.744 2.95 1.553.431 2.07-.656 3.744-.552 2.537.138 4.521 2.794 5.349 4.795.811 1.949.173 2.45.708 4.727.931 3.984 3.796 6.33 6.522 8.573 2.277 1.88 5.763 4.123 6.384 3.398.224-.259.017-.828-.104-1.173-.483-1.363-1.587-1.639-3.088-2.881-1.07-.879-2.416-1.983-2.191-2.915.207-.914 1.915-1.552 3.192-1.19 1.276.345 1.967 1.656 2.294 2.277.277.535.242 1.242.501 1.259.172.017.379-.276.466-.535.241-.638-.173-1.242-.328-1.725-.345-1.121.466-2.38 1.277-3.622 1.346-2.087 2.139-2.139 4.227-4.571 1.398-1.639 2.105-2.484 2.174-3.64.138-1.984-1.449-3.416-1.708-3.657-1.277-1.156-3.451-1.898-4.365-1.001-.829.794.051 2.243-.932 3.381-.673.811-1.864 1.001-2.795.742-1.312-.379-2.054-1.673-2.123-2.863-.017-.242-.086-1.329.604-2.088.19-.224.673-.655 2.261-.793 2.243-.173 2.708.586 4.037.224 1.122-.31 2.467-1.294 2.45-2.208-.017-1.087-1.898-1.138-4.037-3.519-.829-.931-1.519-1.708-1.467-2.743.069-1.466 1.553-2.673 1.864-2.915 1.156-.931 2.191-1.69 2.191-1.69.293-.207.707-.518.656-.794-.035-.19-.259-.31-.656-.414-1.277-.345-2.243-.086-2.243-.086-1.519.397-2.002 1.19-3.848 2.311-.742.449-2.002 1.208-3.727 1.674-1.967.534-2.64.155-3.606.966-.932.776-.639 1.38-1.605 2.553-1.001 1.224-2.243 1.673-4.158 2.346-.742.258-2.209.741-4.245.983-2.881.328-3.485-.173-4.59.569Z" fill="#000"/>
  <path d="M134.254 240.034c-2.053.639-3.847 1.191-4.227 2.536-.19.69-.017 1.639.535 2.122 1.087.966 2.709-.656 3.899.172.639.449.397 1.07 1.122 4.451.483 2.259.88 3.329 1.639 4.295.432.535 1.035 1.294 1.639 1.156.898-.207.553-2.122 1.967-3.537.501-.5.587-.31 2.951-1.587 1.38-.741 2.071-1.121 2.226-1.414.776-1.518-1.294-3.277-.466-5.089.155-.345.172-.172 1.242-1.587 1.225-1.638 1.208-1.897 1.174-2.018-.138-.517-1.036-.535-3.4-.759-3.899-.379-4.21-.604-5.366-.293-.776.207-.966.414-2.622.914-1.295.414-1.433.38-2.313.638ZM129.044 278.157c-1.139.931-1.364 2.501-1.45 3.139-.224 1.57.207 2.57 1.001 5.106.966 3.088 1.449 4.623 1.518 5.503.121 1.363-.12 1.621-1.052 7.038-.69 4.036-.777 5.089-.138 5.796.931 1.035 2.968.828 3.037.552.034-.138-.397-.242-.725-.673-.742-.983-.207-2.691-.069-3.139.552-1.777 1.605-2.571 3.295-4.365 2.002-2.139 3.313-3.519 4.28-5.537.483-1 1.501-3.226 1.173-6.02-.069-.569-.328-2.467-1.639-4.33-1.708-2.415-4.003-3.105-4.676-3.295-1.312-.396-3.158-.931-4.555.225ZM148.541 267.513c-.742 1.553-1.57 3.261-1.898 4.813-.293 1.397-.569 4.554.915 5.71 1.346 1.052 2.881-.5 4.745.655.949.587 1.38 1.501 1.88 2.605 1.087 2.363.57 3.726 1.036 6.814.224 1.449.914 6.055 2.657 6.296 1.449.207 3.037-2.708 3.296-3.191.707-1.294.966-2.622 1.483-5.21.691-3.501.432-3.967 1.157-4.985.931-1.294 2.07-1.483 2.312-2.708.189-.897-.259-1.673-.518-2.156-.966-1.777-2.312-1.536-3.209-3.243-.518-.984-.656-2.191-.449-2.312.19-.103.707.604.966.949.777 1.069.69 1.466 1.156 2.001.967 1.069 2.571.828 2.692.811.742-.121 2.088-.639 2.243-1.57.121-.725-.483-1.449-1.225-2.346-.587-.707-1.035-1.018-.966-1.156.069-.138.604.017 1.984.483 1.501.5 2.26.759 2.364.828.5.293.932.707 2.364 3.209 1.449 2.535 1.967 3.812 2.295 3.691.155-.052.138-.414.259-1.621.172-1.812.276-2.726.707-3.381.362-.57 1.122-1.346 1.915-1.26.466.052 1.035.811 2.157 2.364 1.104 1.518 1.467 2.035 2.226 2.432.397.207 1.087.569 1.639.207.621-.397.828-1.518.569-2.329-.31-.966-1.156-1.035-1.138-1.621.034-.863 1.811-1.484 1.967-1.536 1.138-.396 1.432-.017 2.018-.431.863-.621 1.226-2.191 1.001-3.381-.224-1.225-.983-1.656-.759-2.208.19-.466.811-.328 2.019-.707.897-.276 2.226-.69 2.95-1.846.432-.69.501-1.397.622-2.518.017-.19.103-1.053 0-2.226-.139-1.621-.466-1.725-.311-2.208.345-1.052 1.967-.828 5.073-1.897 1.777-.621 3.054-1.328 3.175-1.07.155.328-1.916 1.329-2.054 3.054-.103 1.311.932 2.587 1.381 2.449.362-.121.103-1.138.742-2.656.241-.57.604-1.415 1.363-1.984.932-.69 1.466-.242 2.295-.966.673-.587.5-1.018 1.052-1.622 1.26-1.38 3.399-.5 3.537-1 .121-.466-1.518-1.846-3.658-2.105-1.898-.224-2.191.673-4.348.759-1.225.052-2.709-.448-5.677-1.431-1.673-.552-2.553-.949-4.072-1.001-1.052-.034-1.087.138-2.208.069-1.26-.086-2.813-.172-4.038-1.276-.949-.863-.655-1.398-1.449-1.915-1.277-.828-3.02-.069-4.504.604-1.57.707-2.691 1.569-4.572 3.001-2.191 1.673-2.933 2.484-4.141 2.363-.915-.086-1.087-.603-2.105-.569-.828.035-1.087.38-2.761 1.208-1.622.793-2.45 1.19-3.14 1.086-1.087-.172-1.139-1-2.312-1.483-1.26-.5-2.468-.069-3.934.466-1.812.655-3.607 1.311-4.469 3.036-.915 1.828-.069 3.381-1.105 4.209-.862.69-1.742-.138-2.536.586-.949.863-.673 2.95-.518 4.054.294 2.173 1.036 2.691.777 4.226-.104.604-.294.828-.915 2.087Z" fill="#000"/>
  <path d="M166.141 285.125c-.449-.034-1.208 1.984-1.035 3.847.017.104.155 1.553.586 1.587.397.035.794-1.173.828-1.311.069-.207.277-.88.19-1.984-.017-.293-.138-2.104-.569-2.139ZM182.412 279.864c-.035.087.103.225.449.535.949.794 1.414 1.19 2.208 1.449.673.224 2.347.621 2.709-.052.224-.431-.103-1.276-.638-1.638-.57-.397-.984-.018-2.33-.035-1.397-.034-2.329-.483-2.398-.259ZM187.14 276.035c-.276.052-.207.656-.76 1.984-.258.621-.396.776-.31.983.172.448 1.242.621 1.76.069.5-.535.276-1.432.19-1.742-.138-.604-.553-1.363-.88-1.294ZM192.816 280.882c.207.328.57.725 1.45 1.121.31.138 2.571 1.139 3.14.276.224-.345.121-.914-.069-1.242-.276-.517-.794-.621-1.622-.828-2.502-.621-3.054-.948-3.261-.621-.241.345.242 1.104.362 1.294ZM188.589 273.534c-.293.12-.276 1.604.259 2.777.276.604.776 1.328 1.001 1.207.241-.12.12-1.173-.069-1.88-.259-1.035-.898-2.208-1.191-2.104ZM190.987 266.409c0-.345.794-.293 1.829-1.035.708-.517 1.76-1.587 2.313-3.001.12-.293.224-.656.31-.638.121.017.138.897 0 1.673-.259 1.414-1.121 2.708-2.191 3.346-.432.259-.742.311-1.001.311-.587 0-1.26-.328-1.26-.656ZM188.848 286.903c-1.381 1.38-2.122 1.173-2.33 1.914-.224.846.708 1.191.88 2.881.104 1.052-.189 1.656.069 1.811.38.225 1.001-1.207 2.451-1.794.12-.051 1.639-.621 2.898.138.725.449.639.897 1.812 2.001.759.708 1.156 1.053 1.622.966.794-.155 1.225-1.397 1.501-2.156.224-.638.742-2.087.38-3.76-.155-.725-.276-.552-2.433-3.847-.604-.914-.846-1.311-1.38-1.535-1.105-.483-2.313.207-2.52.327-.431.242-.811.656-1.57 1.467-.897.948-.845 1.035-1.38 1.587Z" fill="#D8DEE8"/>
  <path d="M119.536 260.544c-1.242-.845-3.382-2.622-4.538-5.727-.466-1.259-1.846-4.95-.103-7.193 1.035-1.328 2.709-1.552 3.554-1.673.725-.104 2.968-.397 4.383 1 2.26 2.243.638 7.09.31 8.056-.914 2.812-2.605 4.623-3.606 5.537Z" fill="#FF5400"/>
  <path d="M121.59 251.178c0 1.587-1.191 2.898-2.658 2.95-1.466.051-2.674-1.208-2.674-2.778 0-1.587 1.19-2.898 2.674-2.95 1.467-.051 2.658 1.191 2.658 2.778Z" fill="#2E2E33"/>
  <path d="M135.876 292.112c-1.225-.828-3.33-2.57-4.486-5.641-.466-1.242-1.812-4.899-.103-7.141 1.018-1.328 2.674-1.587 3.52-1.708.724-.103 2.933-.431 4.33.932 2.226 2.19.639 7.038.311 8.004-.932 2.811-2.588 4.64-3.572 5.554Z" fill="#FF5400"/>
  <path d="M137.912 282.78c0 1.569-1.173 2.898-2.622 2.967-1.45.069-2.64-1.156-2.64-2.726s1.173-2.898 2.64-2.967c1.449-.069 2.622 1.156 2.622 2.726Z" fill="#2E2E33"/>
  <path d="M190.591 288.507c-1.174-.811-3.193-2.519-4.28-5.52-.448-1.225-1.742-4.796-.103-6.986.966-1.311 2.554-1.536 3.365-1.674.69-.103 2.795-.431 4.141.915 2.122 2.139.604 6.882.293 7.831-.897 2.76-2.485 4.537-3.416 5.434Z" fill="url(#h)"/>
  <path d="M192.523 279.399c0 1.535-1.121 2.829-2.519 2.881-1.398.069-2.519-1.139-2.519-2.674s1.121-2.829 2.519-2.881c1.398-.052 2.519 1.139 2.519 2.674Z" fill="#2E2E33"/>
  <path d="M174.716 269.928c-1.19-.828-3.226-2.553-4.331-5.589-.448-1.224-1.759-4.829-.103-7.037.983-1.311 2.588-1.536 3.399-1.656.69-.104 2.847-.414 4.193.966 2.157 2.173.604 6.917.293 7.883-.897 2.76-2.502 4.554-3.451 5.433Z" fill="#FF5400"/>
  <path d="M176.683 260.769c0 1.552-1.138 2.829-2.536 2.88-1.415.052-2.554-1.155-2.554-2.708 0-1.552 1.139-2.846 2.554-2.88 1.398-.035 2.536 1.173 2.536 2.708ZM223.478 199.911c0 3.415-2.468 6.21-5.522 6.244l-123.8012 1.518c-3.3991.035-6.1598-2.846-6.1598-6.468v-99.533c0-3.6052 2.7607-6.4514 6.1598-6.3306l123.8012 4.0882c3.054.1035 5.522 2.9494 5.522 6.3654v94.116Z" fill="#2E2E33"/>
  <path d="m122.728 187.353-19.221.086c-.225 0-.414-.19-.414-.448v-4.848c0-.241.189-.448.414-.448l19.221-.035c.225 0 .415.19.415.432v4.812c-.018.259-.19.449-.415.449Z" fill="#FF5400"/>
  <path d="m179.22 197.703-75.713.638c-.225 0-.414-.19-.414-.431v-4.848c0-.241.189-.448.414-.448l75.713-.466c.207 0 .397.19.397.431v4.71c0 .224-.19.414-.397.414Z" fill="#000"/>
  <path opacity=".32" d="m212.901 173.001-109.515-.207v-14.576l109.515.845v13.938Z" fill="#D8DEE8"/>
  <path d="m319.137 323.283-71.313 4.623c-2.916.19-5.28-2.329-5.28-5.641V259.51c0-3.295 2.364-6.055 5.263-6.141l71.313-2.329c2.726-.086 4.935 2.415 4.935 5.606v60.548c.017 3.191-2.192 5.916-4.918 6.089Z" fill="#2E2E33"/>
  <path d="m324.055 298.874-81.511 4.416v1.898l81.511-4.468v-1.846Z" fill="#fff"/>
  <path d="m281.781 252.247.017 50.25 1.536-.087v-50.214l-1.553.051Z" fill="#fff"/>
  <path d="m274.827 282.762-23.19 1.053V259.63l23.19-.828v23.96ZM274.827 295.838l-23.19 1.19v-8.538l23.19-1.105v8.453Z" fill="#000"/>
  <path d="m263.13 313.606-11.406.672c-.138 0-.258-.12-.258-.276v-3.243c0-.155.12-.293.258-.293l11.406-.655c.138 0 .241.12.241.276v3.225c0 .138-.12.276-.241.294Z" fill="url(#i)"/>
  <path d="m297.051 318.712-45.345 2.812c-.138 0-.258-.121-.258-.276v-3.243c0-.156.12-.294.258-.294l45.345-2.742c.138 0 .242.103.242.258v3.174c0 .173-.104.294-.242.311Z" fill="#000"/>
  <path d="m296.344 294.13-6.488.328v-36.19l6.488-.225v36.087ZM307.128 293.578l-6.419.328v-36.018l6.419-.224v35.914ZM317.809 293.026l-6.35.328-.017-35.845 6.367-.225v35.742Z" fill="#fff"/>
  <path d="m296.344 294.13-6.488.328v-18.785l6.488-.293v18.75Z" fill="url(#j)"/>
  <path d="m307.128 293.578-6.419.328v-27.669l6.419-.241v27.582Z" fill="url(#k)"/>
  <path d="m317.809 293.027-6.35.327-.017-24.357 6.367-.258v24.288Z" fill="url(#l)"/>
  <path d="m403.237 317.832-65.999 4.278c-2.692.172-4.866-2.26-4.866-5.434v-60.323c0-3.174 2.192-5.813 4.866-5.9l65.999-2.173c2.519-.086 4.572 2.329 4.572 5.399v58.305c0 3.07-2.036 5.692-4.572 5.848Z" fill="#2E2E33"/>
  <path d="m354.233 308.914-12.803.759c-.138 0-.242-.121-.242-.276v-3.364c0-.155.104-.293.242-.293l12.803-.742c.138 0 .241.121.241.276v3.347c0 .155-.103.276-.241.293Z" fill="#2E2E33"/>
  <path d="m367.674 315.503-26.244 1.639c-.138 0-.242-.103-.242-.276v-3.364c0-.155.104-.293.242-.293l26.244-1.604c.138 0 .242.103.242.258v3.33c0 .172-.104.293-.242.31Z" fill="#000"/>
  <path d="m343.794 290.732-3.969.19V256.75l3.969-.138v34.12ZM349.661 290.421l-3.934.207v-34.085l3.934-.138v34.016ZM355.51 290.128l-3.917.207v-33.999l3.917-.156v33.948ZM361.325 289.835l-3.9.19v-33.896l3.9-.156v33.862ZM367.105 289.542l-3.882.19v-33.81l3.882-.138v33.758ZM372.868 289.249l-3.865.19v-33.724l3.865-.138v33.672ZM378.579 288.955l-3.83.19v-33.638l3.83-.138v33.586ZM384.273 288.662l-3.813.19v-33.551l3.813-.138v33.499ZM389.95 288.369l-3.813.207v-33.482l3.813-.138v33.413ZM395.575 288.093l-3.779.19v-33.379l3.779-.138v33.327ZM401.183 287.8l-3.762.189v-33.292l3.762-.138V287.8Z" fill="#fff"/>
  <path d="m343.794 290.732-3.969.19v-17.75l3.969-.173v17.733ZM349.661 290.422l-3.934.207v-26.186l3.934-.155v26.134ZM355.51 290.128l-3.917.207V267.22l3.917-.155v23.063ZM361.325 289.835l-3.9.19v-23.288l3.9-.172v23.27ZM367.105 289.542l-3.882.189V263.77l3.882-.155v25.927ZM372.868 289.249l-3.865.189v-22.925l3.865-.155v22.891ZM378.579 288.955l-3.83.19v-24.771l3.83-.138v24.719ZM384.273 288.662l-3.813.19v-22.235l3.813-.156v22.201ZM389.95 288.369l-3.813.207v-22.753l3.813-.155v22.701ZM395.575 288.093l-3.779.19v-25.634l3.779-.155v25.599ZM401.183 287.8l-3.762.189v-24.098l3.762-.155V287.8Z" fill="#FFC244"/>
  <path d="m407.808 294.337-75.454 4.089v1.845l75.454-4.157v-1.777Z" fill="#fff"/>
  <path d="m480.14 312.847-61.34 3.967c-2.502.156-4.521-2.19-4.521-5.244v-58.132c0-3.053 2.019-5.606 4.521-5.675l61.34-2.001c2.346-.069 4.244 2.259 4.244 5.209v56.235c.018 2.967-1.88 5.486-4.244 5.641Z" fill="#2E2E33"/>
  <path d="m484.436 290.198-70.123 3.795v1.776l70.123-3.864v-1.707Z" fill="#fff"/>
  <path d="m440.575 304.015-19.429 1.155c-.121 0-.224-.103-.224-.258v-3.019c0-.155.103-.293.224-.293l19.429-1.122c.121 0 .224.104.224.259v3.002c0 .138-.103.258-.224.276ZM464.007 309.293l-42.861 2.691c-.121 0-.224-.103-.224-.259v-3.018c0-.156.103-.294.224-.294l42.861-2.604c.121 0 .224.103.224.258v2.967c-.017.121-.103.259-.224.259Z" fill="#000"/>
  <path d="M462.022 271.826c0 1.898-1.259 3.485-2.812 3.554-1.553.069-2.83-1.398-2.83-3.295 0-1.898 1.26-3.485 2.83-3.554 1.553-.069 2.812 1.415 2.812 3.295Z" fill="url(#m)"/>
  <path d="M459.089 275.88c-.742 0-1.467-.293-2.036-.845-.759-.725-1.191-1.794-1.191-2.967 0-2.157 1.484-3.968 3.313-4.054.794-.035 1.553.259 2.157.845.742.725 1.173 1.794 1.173 2.95 0 2.156-1.483 3.967-3.295 4.054-.035.017-.069.017-.121.017Zm.207-6.848h-.086c-1.294.051-2.347 1.431-2.347 3.053 0 .897.328 1.708.88 2.242.414.397.897.587 1.432.57 1.294-.052 2.347-1.432 2.347-3.054 0-.897-.311-1.707-.88-2.242-.38-.38-.846-.569-1.346-.569Z" fill="url(#n)"/>
  <path d="m446.269 257.905-24.795.932v-5.054l24.795-.897v5.019Z" fill="url(#o)"/>
  <path d="m473.083 278.985-9.784.466v-3.795l9.784-.449v3.778Z" fill="#C281E8"/>
  <path d="m242.527 232.048-.017-120.854c0-3.398 2.778-6.141 6.177-6.072l213.491 3.657c3.313.052 5.97 2.76 5.97 6.072l.017 110.314c0 3.277-2.605 5.968-5.884 6.072l-213.473 6.9c-3.434.103-6.281-2.657-6.281-6.089Z" fill="#2E2E33"/>
  <path d="m469.045 233.169-230.694 6.693c-2.795.069-5.28-2.484-5.28-5.14l-.017-128.927c0-2.656 2.485-5.33 5.211-5.209l230.763 8.211c1.881.069 3.416 2.035 3.416 4.416l.017 115.557c0 2.381-1.535 4.347-3.416 4.399Z" fill="#000"/>
  <path d="m472.927 233.618-233.73 6.279c-2.364.069-4.262-2.053-4.262-4.727l-.017-130.03c0-2.674 1.915-4.779 4.261-4.692l233.731 7.728c1.898.069 3.434 2.052 3.434 4.45l.017 116.558c.017 2.415-1.536 4.399-3.434 4.434Z" fill="#2E2E33"/>
  <path d="m401.89 223.595-155.032 3.312-.018-113.729 155.033 4.295.017 106.122ZM466.371 128.807l-52.437-1.225v-9.781l52.437 1.449v9.557ZM466.371 142.055l-52.437-.88v-9.798l52.437 1.121v9.557ZM466.371 221.905l-52.437 1.104v-70.363l52.437.604v68.655Z" fill="#000"/>
  <path d="m467.233 209.657-54.352.828v-2.622l54.352-.776v2.57Z" fill="#2E2E33"/>
  <path d="M421.457 220.111s-3.917-2.967-3.037-5.244c.88-2.277 2.398-1.415 3.192-.742 1.363-1 1.915-.655 2.554-.276.638.38 1.501 2.967-2.709 6.262Z" fill="url(#p)"/>
  <path d="m463.472 219.334-35.044.69v-6.52l35.026-.587.018 6.417Z" fill="#2E2E33"/>
  <path d="M467.251 234.032c-.138 0-.242-.104-.242-.242s.104-.241.242-.259l5.676-.155c1.76-.052 3.21-1.915 3.21-4.174l-.018-116.559c0-2.259-1.432-4.14-3.209-4.209l-6.816-.224c-.138 0-.241-.121-.241-.259s.103-.224.259-.241l6.815.224c2.036.069 3.676 2.174 3.676 4.692l.017 116.558c0 2.519-1.657 4.623-3.675 4.675l-5.694.173c.017 0 0 0 0 0Z" fill="#000"/>
  <path d="M316.566 151.49v30.688l26.71-13.541-26.71-17.147Z" fill="#2E2E33"/>
  <path d="M108.683 70.3461c.086 2.6738-2.208 4.761-5.124 4.6748-2.934-.1035-5.3839-2.346-5.4702-5.037-.0863-2.691 2.2082-4.7783 5.1422-4.6575 2.933.1035 5.366 2.346 5.452 5.0197ZM131.425 71.1395c.086 2.6565-2.174 4.7265-5.039 4.623-2.881-.1035-5.297-2.3288-5.383-5.0025-.086-2.6565 2.174-4.7438 5.055-4.6231 2.882.1208 5.28 2.3633 5.367 5.0026ZM153.821 71.9331c.086 2.6393-2.139 4.692-4.969 4.5885-2.83-.0862-5.211-2.3115-5.297-4.9507-.087-2.6393 2.139-4.692 4.986-4.5885 2.813.0862 5.177 2.3115 5.28 4.9507ZM138.068 113.523l-.173 9.453-1.95-.035.173-9.453-3.106-.051.035-1.743 8.161.156-.035 1.742-3.105-.069ZM148.075 123.165l-1.863-4.64-2.071-.034-.086 4.605-1.95-.034.207-11.178 4.763.086c1.898.035 3.399 1.277 3.364 3.278-.034 1.431-.88 2.535-2.295 3.036l2.105 4.933-2.174-.052Zm-1.346-9.504-2.501-.052-.052 3.122 2.45.052c1.052.017 1.812-.552 1.829-1.587 0-1.052-.69-1.501-1.726-1.535ZM158.773 123.355l-.845-2.484-4.141-.069-.949 2.45-2.036-.035 4.434-11.109 1.57.035 4.02 11.264-2.053-.052Zm-2.088-6.434-.69-2.311h-.052l-.759 2.242-.793 2.294 3.002.052-.708-2.277ZM166.124 112.298c1.673.035 3.088.673 3.778 2.139.38.828.397 1.949.38 3.329-.035 1.553-.086 2.691-.466 3.554-.776 1.673-2.364 2.173-4.158 2.139l-3.796-.069.207-11.178 4.055.086Zm-2.295 9.384 1.915.035c1.881.034 2.519-1.053 2.554-2.726l.034-2.087c.035-2.001-.845-2.795-2.484-2.829l-1.881-.035-.138 7.642ZM171.887 123.597l.207-11.178 7.488.138-.034 1.759-5.539-.103-.052 2.932 4.728.087-.035 1.707-4.727-.086-.052 3.019 5.539.103-.035 1.76-7.488-.138ZM186.708 114.454l-.051 3.019 4.727.086-.034 1.691-4.728-.086-.086 4.709-1.95-.035.207-11.178 7.489.138-.035 1.76-5.539-.104ZM201.15 117.111l-.051 2.863c-.052 2.605-1.726 4.227-4.262 4.175-2.796-.052-4.124-2.053-4.09-4.33l.052-2.864c.035-2.242 1.45-4.209 4.245-4.157 2.588.052 4.158 1.88 4.106 4.313Zm-6.367-.207-.051 3.001c-.018 1.225.655 2.415 2.157 2.433 1.363.017 2.225-1.001 2.243-2.347l.051-3.001c.018-1.277-.776-2.329-2.156-2.346-1.502-.035-2.226 1.087-2.244 2.26ZM208.622 124.287l-2.364-4.175-2.502 4.089-2.191-.035 3.727-5.658-3.313-5.52 2.208.035 2.123 3.898 2.294-3.812 2.192.034-3.486 5.4 3.503 5.778-2.191-.034ZM137.343 133.636l-.466-1.397-2.329-.034-.535 1.38-1.139-.018 2.485-6.244.88.017 2.26 6.331-1.156-.035Zm-1.173-3.622-.397-1.294h-.035l-.431 1.26-.449 1.293 1.691.035-.379-1.294ZM140.052 129.22l-.052 2.657c-.017.621.224.914.811.931.483.018.863-.327.88-.897l.052-2.656 1.018.017-.086 4.468-1.018-.017v-.449h-.035c-.276.328-.742.483-1.139.483-.931-.017-1.518-.535-1.501-1.621l.052-2.933 1.018.017ZM145.09 133.775c-.655-.018-1.139-.432-1.121-1.139l.051-2.518-.517-.018.017-.828.518.018.017-1.156 1.001.017-.018 1.156.691.017-.018.828-.673-.017-.034 2.242c0 .311.104.501.414.518h.328l-.017.897-.639-.017ZM149.887 130.1c.224.363.311.88.293 1.484-.017.673-.12 1.156-.327 1.518-.346.552-.984.828-1.691.811-.673-.018-1.208-.242-1.536-.725-.242-.379-.345-.914-.328-1.587.017-.483.086-.931.242-1.259.31-.656.983-1.018 1.794-1.001.69-.017 1.242.259 1.553.759Zm-2.381.621c-.121.225-.155.535-.173.88 0 .345.018.638.121.863.138.31.397.5.742.517.38 0 .708-.19.846-.621.051-.172.086-.397.103-.793 0-.328-.017-.604-.103-.794-.121-.362-.415-.517-.742-.535-.345-.017-.656.173-.794.483ZM152.389 133.913c-.656-.018-1.139-.432-1.122-1.139l.052-2.518-.517-.018.017-.828.517.017.018-1.155 1 .017-.017 1.156.69.017-.017.828-.673-.017-.034 2.242c0 .311.103.501.414.518h.328l-.018.897-.638-.017ZM154.839 131.273l-.052 2.691-1.018-.017.087-4.468 1 .017-.017.535h.035c.276-.379.655-.569 1.087-.552.327 0 .604.069.845.259l-.397.914c-.241-.155-.5-.224-.724-.224-.484-.035-.846.276-.846.845ZM160.533 131.032l-.052 3.036-1.018-.017v-.397l-.017-.017c-.241.31-.725.431-1.173.431-.949-.017-1.536-.5-1.519-1.38.018-.725.553-1.328 1.536-1.311l1.208.017v-.328c0-.345-.173-.638-.88-.655-.483-.017-.811.103-1.07.345l-.535-.69c.449-.431 1.053-.569 1.674-.552 1.018.017 1.863.362 1.846 1.518Zm-2.036 2.173c.466 0 .897-.12.966-.603.018-.069.018-.138.018-.432l-1.036-.017c-.517-.017-.724.207-.724.483-.018.276.189.552.776.569ZM163.967 134.12v-.415l-.017-.017c-.311.345-.742.466-1.122.466-1.415-.034-1.57-1.242-1.553-2.346.017-1.018.362-2.243 1.743-2.225.379 0 .776.155 1.001.448l.017-.017.052-2.45 1.018.018-.121 6.555-1.018-.017Zm-.759-3.554c-.794-.017-.88.759-.88 1.363-.018.552.051 1.259.811 1.276.759.018.845-.776.862-1.311.018-.569-.034-1.311-.793-1.328ZM166.072 128.824l.017-.932 1.018.018-.017.931-1.018-.017Zm-.104 5.347.087-4.467 1.018.017-.087 4.468-1.018-.018ZM170.713 134.258l.052-2.657c.017-.569-.241-.914-.811-.914-.483-.017-.863.31-.88.88l-.052 2.656-1.018-.017.087-4.468 1.018.017-.018.466h.018c.293-.328.759-.483 1.173-.483.914.017 1.501.552 1.484 1.604l-.052 2.933-1.001-.017ZM176.373 129.893l-.086 4.278c-.035 1.501-.863 2.001-2.036 1.984-.449 0-1.087-.138-1.536-.569l.552-.742c.293.224.656.379 1.087.379.552.018.932-.31.932-.896v-.415h-.017c-.294.328-.708.466-1.087.466-1.381-.017-1.622-1.19-1.605-2.208.017-1.052.259-2.38 1.708-2.346.38 0 .776.156 1.035.466h.018v-.414l1.035.017Zm-1.915 3.519c.742.017.845-.741.862-1.293.018-.518-.017-1.329-.811-1.346-.793-.017-.862.725-.88 1.311 0 .638.052 1.311.829 1.328ZM181.032 134.499c-.656-.017-1.329-.155-1.933-.707l.569-.725c.415.397.898.552 1.433.552.431 0 .776-.172.793-.5 0-.311-.241-.449-.776-.518-.794-.103-1.691-.258-1.674-1.311.017-.914.794-1.38 1.691-1.362.673.017 1.225.155 1.708.534l-.5.759c-.414-.293-.846-.396-1.208-.414-.483-.017-.725.207-.725.466 0 .293.311.414 1.053.5.725.087 1.449.38 1.432 1.311-.017.915-.863 1.432-1.863 1.415ZM185.294 135.431c-.259.672-.777.897-1.312.879h-.379l.017-.862h.276c.259 0 .449-.207.552-.466l.242-.707-1.571-4.278 1.105.017.552 1.656.414 1.415h.034l.466-1.38.604-1.656 1.07.017-2.07 5.365ZM189.262 134.654c-.656-.017-1.329-.155-1.933-.707l.57-.724c.414.396.897.552 1.432.552.431 0 .776-.173.794-.501 0-.31-.242-.448-.777-.517-.793-.104-1.691-.259-1.673-1.311.017-.915.793-1.38 1.69-1.363.673.017 1.226.155 1.709.535l-.501.759c-.414-.294-.845-.397-1.208-.414-.483-.017-.724.207-.724.466 0 .293.31.414 1.052.5.725.086 1.45.379 1.432 1.311-.034.914-.862 1.432-1.863 1.414ZM193.213 134.672c-.655-.018-1.139-.432-1.121-1.139l.051-2.518-.517-.018.017-.828.518.018.017-1.156 1.001.017-.017 1.156.69.017-.017.828-.673-.017-.035 2.242c0 .311.104.501.414.518h.328l-.017.897-.639-.017ZM195.439 132.774c-.017.552.276 1.087.932 1.087.259 0 .725-.104 1.07-.397.207.242.362.483.586.725-.5.448-1.139.603-1.708.603-.949-.017-1.967-.483-1.932-2.311.034-1.725 1.069-2.277 1.984-2.26 1.208.017 1.915.88 1.881 2.174v.448l-2.813-.069Zm.035-.724 1.708.034c-.017-.604-.363-.931-.828-.949-.466-.017-.829.328-.88.915ZM204.446 134.879l.052-2.657c.017-.569-.259-.914-.828-.931-.466-.018-.846.362-.863.897l-.052 2.656-1.018-.017.052-2.657c.017-.569-.259-.914-.828-.931-.466-.017-.863.362-.863.897l-.052 2.656-1.018-.017.086-4.468 1.018.018-.017.483c.017 0 .017.017.035.017.276-.328.759-.518 1.207-.518.553.018.967.225 1.226.656.379-.397.88-.621 1.432-.621.897.017 1.518.586 1.501 1.604l-.052 2.95-1.018-.017ZM207.983 134.999c-.655-.017-1.328-.155-1.932-.707l.569-.724c.414.396.897.552 1.432.552.432 0 .777-.173.794-.501 0-.31-.242-.448-.777-.517-.793-.104-1.691-.259-1.673-1.311.017-.914.793-1.38 1.691-1.363.673.017 1.225.155 1.708.535l-.5.759c-.415-.293-.846-.397-1.208-.414-.483-.017-.725.207-.725.466 0 .293.311.414 1.053.5.724.086 1.449.379 1.432 1.311-.018.914-.863 1.432-1.864 1.414Z" fill="#fff"/>
  <path d="m128.578 116.11.103-5.088-4.4-.087-8.092 7.78-7.799-8.073-4.4-.086-.086 5.089 8.713 9.039 6.919.12 9.042-8.694Z" fill="#FF5400"/>
  <path d="m128.388 126.943.086-5.088-4.4-.087-8.092 7.797-7.782-8.09-4.4-.069-.103 5.089 8.713 9.039 6.936.121 9.042-8.712Z" fill="#fff"/>
  <path d="M528.418 135.689 495.03 190.32l-101.888-1.139-45.172 87.389-116.659 4.088-60.529 93.253c-1.069 1.656-2.864 2.726-4.831 2.898l-7.903.673c-3.588.569-11.249-.517-10.076-3.967l40.997-92.736 33.715-15.094 113.415-4.347 42.912-85.922 104.217-1.156 34.924-53.044 10.266 14.473Z" fill="url(#q)"/>
  <path d="m466.302 139.363-18.722-8.608 20.861-4.243-2.139 12.851Z" fill="url(#r)"/>
  <path d="m537.632 121.216 9.8 14.473h-21.74l-7.333-9.194 19.273-5.279Z" fill="url(#s)"/>
  <path d="m549.727 71.0879-9.076-6.7275-3.934 54.4926 3.934 7.004 6.782 9.832 2.294-64.6011Z" fill="url(#t)"/>
  <path d="m294.515 255.059 47.053 12.851 45.173-87.405-47.036-12.852-45.19 87.406Z" fill="url(#u)"/>
  <path d="m114.222 367.339 35.216 9.608c3.727 1.018 7.679-.482 9.784-3.725l65.705-101.241-47.036-12.851-66.085 101.827c-1.57 2.415-.345 5.641 2.416 6.382Z" fill="url(#v)"/>
  <path d="m177.874 259.148 47.036 12.851 116.658-4.089-47.053-12.851-116.641 4.089Z" fill="url(#w)"/>
  <path d="m339.705 167.653 47.036 12.852 101.871 1.138-47.036-12.851-101.871-1.139Z" fill="url(#x)"/>
  <path d="m447.58 130.756 17.824-.932-23.828 38.968 47.036 12.851 33.508-54.82 18.531-.966V64.3604L447.58 130.756Z" fill="url(#y)"/>
  <path d="M392.573 169.93c-8.61.587-10.146.915-10.163 1.311-.052 1.208 13.752 3.571 27.866 3.933 12.561.328 14.752-1.207 28.194-.327 8.748.569 14.614 1.656 14.752.983.173-.811-7.971-3.778-16.719-5.572-11.923-2.449-22.759-1.777-43.93-.328Z" fill="url(#z)"/>
  <path d="M153.562 323.697c7.282-11.868 9.956-23.96 22.621-29.825 9.697-4.503 16.306-1.208 24.916-6.883 6.712-4.433 10.352-11.471 12.406-18.095l-35.648-9.729-63.463 97.79c21.931-10.643 33.026-23.253 39.168-33.258Z" fill="url(#A)"/>
  <path d="M262.456 205.139c1.881.949 4.262.087 5.297-1.966 1.035-2.036.345-4.468-1.536-5.434-.103-.052-.189-.086-.293-.138.345-1.121.621-2.277.794-3.415.103 0 .224 0 .328-.018 2.156-.189 3.865-2.173 3.813-4.416-.052-2.242-1.829-3.915-3.986-3.726-.121.018-.224.035-.328.052-.224-1.121-.535-2.208-.914-3.26.103-.052.19-.121.293-.19 1.846-1.294 2.433-3.829 1.311-5.692-1.121-1.846-3.519-2.312-5.348-1.018-.087.069-.19.138-.277.207-.724-.811-1.518-1.553-2.381-2.225.069-.104.121-.207.173-.311 1.035-2.035 2.398-4.278.483-5.192-4.4-2.139-6.281-.311-7.316 1.742-.052.104-.103.207-.138.328-1.052-.293-2.122-.5-3.209-.604 0-.121.017-.224.017-.345-.052-2.242.621-3.467-1.536-3.502-4.71-.086-6.298 1.95-6.246 4.192 0 .121.017.224.017.345-1.087.311-2.139.707-3.174 1.173-.052-.103-.104-.207-.156-.293-1.121-1.846-3.52-2.312-5.349-1.018-1.846 1.294-2.433 3.83-1.311 5.693.052.086.121.189.19.276-.811.81-1.57 1.707-2.278 2.656-.086-.052-.19-.121-.276-.155-1.881-.949-4.262-.086-5.297 1.966-1.035 2.036-.345 4.468 1.536 5.434.103.052.189.086.293.138-.345 1.121-.621 2.277-.794 3.416-.103 0-.224 0-.328.017-2.156.19-3.865 2.173-3.813 4.416.052 2.242 1.829 3.916 3.986 3.726.121-.017.224-.035.328-.052.224 1.121.535 2.208.914 3.26-.103.052-.19.121-.293.19-1.846 1.294-2.433 3.83-1.311 5.693 1.121 1.845 4.814 2.708 6.643 1.414.086-.069-1.105-.535-1.018-.621.724.811 1.518 1.553 2.381 2.225-.069.104-.121.207-.173.311-1.035 2.035-.345 4.468 1.536 5.434 1.881.948 4.262.086 5.297-1.967.052-.103.104-.207.138-.328 1.053.294 2.122.501 3.209.604 0 .121-.017.224-.017.345.052 2.243 1.829 3.916 3.986 3.726 2.157-.19 3.865-2.173 3.813-4.416 0-.121-.017-.224-.017-.345 1.087-.31 2.139-.707 3.175-1.173.052.104.103.207.155.293 1.122 1.846 3.52 2.312 5.349 1.018 1.846-1.294 2.433-3.829 1.311-5.692-.051-.087-.12-.19-.189-.276.81-.811 1.587-1.708 2.277-2.657.069.052.155.104.259.155Zm-23.518.311c-6.85-3.467-9.352-12.299-5.591-19.717 3.762-7.417 12.372-10.609 19.222-7.124 6.85 3.467 9.352 12.299 5.591 19.717-3.762 7.4-12.372 10.591-19.222 7.124Z" fill="url(#B)"/>
  <path d="M267.028 194.201c2.157-.19 3.865-2.173 3.814-4.416-.052-2.242-1.829-3.916-3.986-3.726-.121.017-.224.035-.328.052-.224-1.121-.535-2.208-.914-3.26.103-.052.189-.121.293-.19 1.846-1.294 4.124-4.399 2.812-6.124-2.467-3.277-5.021-1.863-6.85-.569-.086.069-.19.138-.276.207-.724-.811-1.518-1.553-2.381-2.225.069-.104.121-.207.173-.311.569-1.104.621-2.329.241-3.381-1.777 3.122-3.537 6.279-5.262 9.436 5.469 4.002 7.212 11.885 3.796 18.613-2.899 5.692-8.645 8.901-14.27 8.504-.259.655-.5 1.311-.759 1.949-.725 1.742-1.553 3.45-2.381 5.158.517.103 1.052.172 1.57.224 0 .121-.017.224-.017.345.051 2.243 1.414 4.157 5.314 3.95 2.157-.12 2.536-2.397 2.485-4.64 0-.121-.018-.224-.018-.345 1.087-.31 2.14-.707 3.175-1.173.052.104.104.207.156.293 1.121 1.846 4.986 2.64 6.832 1.346 1.847-1.294.949-4.175-.155-6.02-.052-.087-.121-.19-.19-.276.811-.811 1.588-1.708 2.278-2.657.086.052.19.121.276.155 1.881.949 4.262.087 5.297-1.966 1.035-2.036.345-4.468-1.536-5.434-.103-.052-.189-.086-.293-.138.345-1.121.621-2.277.794-3.415.086.051.207.034.31.034Z" fill="url(#C)"/>
  <path d="M264.475 205.379c1.88.949 4.262.087 5.297-1.966 1.035-2.036.345-4.468-1.536-5.434-.103-.052-.19-.086-.293-.138.345-1.121.621-2.277.794-3.415.103 0 .224 0 .327-.018 2.157-.189 3.865-2.173 3.814-4.416-.052-2.242-1.829-3.915-3.986-3.726-.121.018-.224.035-.328.052-.224-1.121-.535-2.208-.914-3.26.103-.052.189-.121.293-.19 1.846-1.294 2.433-3.829 1.311-5.692-1.121-1.846-3.52-2.312-5.349-1.018-.086.069-.189.138-.276.207-.724-.811-1.518-1.553-2.381-2.225.069-.104.121-.207.173-.311 1.035-2.035.345-4.468-1.536-5.434-1.881-.948-4.262-.086-5.297 1.967-.052.103-.104.207-.138.328-1.053-.294-2.122-.501-3.21-.604 0-.121.018-.224.018-.345-.052-2.243-1.829-3.916-3.986-3.726-2.157.19-3.865 2.173-3.813 4.416 0 .121.017.224.017.345-1.087.31-2.14.707-3.175 1.173-.052-.104-.103-.207-.155-.293-1.122-1.846-3.52-2.312-5.349-1.018-1.846 1.294-2.433 3.829-1.311 5.692.051.087.12.19.189.276-.811.811-1.587 1.708-2.277 2.657-.087-.052-.19-.121-.276-.155-1.881-.949-4.262-.087-5.297 1.966-1.036 2.036-.346 4.468 1.535 5.434.104.052.19.086.293.138-.345 1.121-.621 2.277-.793 3.415-.104 0-.225 0-.328.018-2.157.189-3.865 2.173-3.813 4.416.051 2.242 1.829 3.915 3.985 3.726.121-.018.225-.035.328-.052.225 1.121.535 2.208.915 3.26-.104.052-.19.121-.294.19-1.846 1.294-2.432 3.829-1.311 5.692 1.122 1.846 3.52 2.312 5.349 1.018.086-.069.19-.138.276-.207.725.811 1.519 1.553 2.381 2.225-.069.104-.121.207-.172.311-1.036 2.035-.345 4.468 1.535 5.434 1.881.948 4.262.086 5.298-1.967.051-.103.103-.207.138-.328 1.052.294 2.122.501 3.209.604 0 .121-.017.224-.017.345.051 2.243 1.829 3.916 3.985 3.726 2.157-.19 3.865-2.173 3.814-4.416 0-.121-.018-.224-.018-.345 1.087-.31 2.14-.707 3.175-1.173.052.104.104.207.156.293 1.121 1.846 3.52 2.312 5.349 1.018 1.846-1.294 2.432-3.829 1.311-5.692-.052-.087-.121-.19-.19-.276.811-.811 1.57-1.708 2.278-2.657.086.052.189.104.276.155Zm-23.501.294c-6.85-3.468-9.352-12.3-5.59-19.717 3.761-7.418 12.371-10.609 19.221-7.124 6.85 3.467 9.352 12.299 5.591 19.716-3.779 7.418-12.372 10.609-19.222 7.125Z" fill="url(#D)"/>
  <path d="M216.093 176.796c3.089 1.57 6.971.121 8.662-3.226 1.691-3.346.569-7.331-2.519-8.901-.156-.086-.328-.155-.484-.207.57-1.846 1.001-3.709 1.295-5.589.172 0 .362 0 .534-.017 3.52-.311 6.316-3.554 6.247-7.228-.069-3.674-2.985-6.417-6.523-6.089-.189.017-.362.052-.552.069-.362-1.829-.88-3.605-1.518-5.33.155-.104.328-.19.483-.311 3.02-2.104 3.986-6.279 2.157-9.315-1.829-3.036-5.746-3.778-8.766-1.656-.155.104-.293.224-.448.345-1.191-1.311-2.502-2.536-3.917-3.657.104-.155.19-.328.276-.5 1.691-3.347 3.917-7.004.811-8.522-7.212-3.519-10.301-.5-11.992 2.847-.086.172-.155.345-.241.517-1.726-.483-3.486-.811-5.263-1 .017-.19.017-.38.017-.57-.069-3.674 1.018-5.675-2.519-5.744-7.713-.155-10.318 3.191-10.249 6.883 0 .19.017.379.034.569-1.76.5-3.502 1.156-5.193 1.932-.087-.172-.156-.328-.259-.483-1.829-3.036-5.746-3.778-8.765-1.656-3.02 2.105-3.986 6.279-2.157 9.315.086.155.189.293.293.449-1.329 1.328-2.588 2.777-3.744 4.347-.156-.087-.294-.19-.466-.259-3.089-1.57-6.971-.121-8.662 3.226-1.691 3.346-.569 7.331 2.519 8.901.156.086.328.155.483.207-.569 1.845-1 3.708-1.294 5.589-.172 0-.362 0-.535.017-3.52.31-6.315 3.553-6.246 7.228.069 3.674 2.985 6.417 6.522 6.089.19-.017.363-.052.553-.069.362 1.828.88 3.605 1.518 5.33-.155.086-.328.19-.483.311-3.02 2.104-3.986 6.279-2.157 9.315 1.829 3.036 7.868 4.433 10.888 2.328.155-.103-1.829-.897-1.674-1 1.191 1.311 2.502 2.536 3.917 3.657-.104.155-.19.328-.276.5-1.691 3.347-.57 7.331 2.519 8.901 3.088 1.57 6.971.121 8.662-3.226.086-.172.155-.345.241-.517 1.726.483 3.486.811 5.263 1-.017.19-.017.38-.017.57.069 3.674 2.985 6.417 6.522 6.089 3.52-.311 6.315-3.554 6.246-7.228 0-.19-.017-.379-.034-.569 1.76-.5 3.502-1.156 5.193-1.932.086.172.155.328.259.483 1.829 3.036 5.746 3.778 8.765 1.656 3.02-2.105 3.986-6.279 2.157-9.315-.086-.155-.19-.293-.293-.449 1.328-1.328 2.588-2.777 3.744-4.347.155.069.311.173.466.242Zm-38.512.5c-11.216-5.692-15.322-20.148-9.145-32.292 6.16-12.144 20.257-17.371 31.472-11.678 11.216 5.692 15.322 20.148 9.145 32.292-6.16 12.144-20.257 17.371-31.472 11.678Z" fill="#7A2901"/>
  <path d="M223.599 158.873c3.52-.31 6.315-3.553 6.246-7.228-.069-3.674-2.985-6.417-6.522-6.089-.19.017-.363.052-.553.069-.362-1.828-.879-3.605-1.518-5.33.155-.086.328-.19.483-.311 3.02-2.104 6.747-7.21 4.624-10.039-4.037-5.365-8.213-3.036-11.232-.932-.156.104-.294.225-.449.345-1.19-1.311-2.502-2.535-3.917-3.657.104-.155.19-.327.276-.5.932-1.828 1.001-3.829.397-5.537-2.916 5.123-5.78 10.281-8.61 15.456 8.955 6.555 11.802 19.475 6.212 30.498-4.745 9.332-14.166 14.576-23.363 13.921-.414 1.069-.811 2.139-1.259 3.191-1.191 2.863-2.554 5.658-3.9 8.452.845.156 1.708.294 2.571.38-.017.19-.017.379-.017.569.069 3.674 2.312 6.814 8.696 6.469 3.537-.19 4.141-3.933 4.072-7.607 0-.19-.017-.38-.034-.57 1.76-.5 3.502-1.155 5.193-1.932.086.173.155.328.259.483 1.829 3.036 8.161 4.313 11.181 2.208 3.02-2.104 1.57-6.831-.259-9.849-.086-.156-.19-.294-.293-.449 1.328-1.328 2.588-2.777 3.744-4.347.155.086.293.19.466.259 3.089 1.57 6.971.121 8.662-3.226 1.691-3.346.569-7.331-2.519-8.901-.156-.086-.328-.155-.484-.207.57-1.846 1.001-3.709 1.295-5.589.189.017.362.017.552 0Z" fill="#7A2901"/>
  <path d="M219.423 177.175c3.089 1.57 6.971.121 8.662-3.225 1.691-3.347.569-7.332-2.519-8.901-.156-.087-.328-.156-.483-.207.569-1.846 1-3.709 1.294-5.589.172 0 .362 0 .535-.018 3.52-.31 6.315-3.553 6.246-7.227-.069-3.675-2.985-6.417-6.522-6.09-.19.018-.363.052-.553.069-.362-1.828-.88-3.605-1.518-5.33.155-.086.328-.19.483-.31 3.02-2.105 3.986-6.279 2.157-9.315-1.829-3.036-5.746-3.778-8.765-1.656-.156.103-.294.224-.449.345-1.191-1.311-2.502-2.536-3.917-3.657.104-.156.19-.328.276-.501 1.691-3.346.57-7.331-2.519-8.901-3.088-1.569-6.971-.12-8.662 3.226-.086.173-.155.345-.241.518-1.726-.483-3.486-.811-5.263-1.001.017-.19.017-.379.017-.569-.069-3.674-2.985-6.417-6.522-6.089-3.52.31-6.315 3.553-6.246 7.227 0 .19.017.38.034.57-1.76.5-3.502 1.155-5.193 1.932-.086-.173-.155-.328-.259-.483-1.829-3.036-5.746-3.778-8.765-1.656-3.02 2.104-3.986 6.279-2.157 9.315.086.155.19.293.293.448-1.328 1.328-2.588 2.777-3.744 4.347-.155-.086-.293-.19-.466-.259-3.088-1.569-6.971-.12-8.662 3.226-1.691 3.347-.569 7.331 2.519 8.901.156.086.328.155.484.207-.57 1.846-1.001 3.709-1.295 5.589-.172 0-.362 0-.534.017-3.52.311-6.316 3.554-6.247 7.228.069 3.674 2.985 6.417 6.523 6.089.189-.017.362-.051.552-.069.362 1.829.88 3.606 1.518 5.331-.155.086-.328.189-.483.31-3.019 2.105-3.986 6.279-2.157 9.315 1.829 3.036 5.746 3.778 8.766 1.656.155-.104.293-.224.448-.345 1.191 1.311 2.502 2.536 3.917 3.657-.104.155-.19.328-.276.5-1.691 3.347-.569 7.332 2.519 8.901 3.089 1.57 6.971.121 8.662-3.226.086-.172.155-.345.241-.517 1.726.483 3.486.811 5.263 1-.017.19-.017.38-.017.57.069 3.674 2.985 6.417 6.522 6.089 3.52-.311 6.315-3.554 6.246-7.228 0-.19-.017-.379-.034-.569 1.76-.5 3.502-1.156 5.193-1.932.087.172.156.328.259.483 1.829 3.036 5.746 3.778 8.765 1.656 3.02-2.105 3.986-6.279 2.157-9.315-.086-.155-.189-.293-.293-.448 1.329-1.329 2.588-2.778 3.744-4.347.156.086.311.172.466.258Zm-38.512.5c-11.216-5.692-15.322-20.147-9.145-32.291 6.16-12.144 20.257-17.371 31.472-11.679 11.216 5.693 15.322 20.148 9.145 32.292-6.16 12.144-20.257 17.371-31.472 11.678Z" fill="#F86A2E"/>
  <path d="M311.493 128.617c12.637 0 22.88-10.241 22.88-22.874 0-12.6323-10.243-22.8731-22.88-22.8731-12.636 0-22.879 10.2408-22.879 22.8731 0 12.633 10.243 22.874 22.879 22.874Z" fill="url(#E)"/>
  <path d="M311.493 127.858c12.217 0 22.121-9.901 22.121-22.115 0-12.2132-9.904-22.1142-22.121-22.1142-12.216 0-22.12 9.901-22.12 22.1142 0 12.214 9.904 22.115 22.12 22.115Z" fill="url(#F)"/>
  <path opacity=".69" d="M293.255 97.0322c-.069 0-.138-.0172-.207-.0517-.224-.1208-.328-.3968-.207-.621 3.572-7.0898 10.715-11.4885 18.653-11.4885 1.259 0 2.536.1207 3.761.345.259.0517.414.2932.38.5347-.052.2588-.294.4313-.535.3795-1.174-.207-2.381-.3277-3.606-.3277-7.575 0-14.408 4.209-17.825 10.971-.069.1725-.241.2587-.414.2587Z" fill="#fff"/>
  <path d="M311.977 124.943c10.339 0 18.721-8.38 18.721-18.717 0-10.3364-8.382-18.716-18.721-18.716-10.34 0-18.722 8.3796-18.722 18.716 0 10.337 8.382 18.717 18.722 18.717Z" fill="url(#G)"/>
  <path d="M310.148 120.147v-2.035c-2.123-.087-4.228-.587-5.712-1.242-.535-.242-.811-.828-.655-1.398l.517-1.897c.19-.69.949-1.052 1.605-.776 1.484.621 3.313 1.104 5.28 1.104 2.053 0 3.572-.69 3.572-2.122 0-1.277-1.174-2.053-4.021-2.812-4.055-1.104-6.971-2.881-6.971-6.451 0-3.2261 2.364-5.6756 6.454-6.3484v-2.0355c0-.6555.535-1.1903 1.19-1.1903h1.191c.655 0 1.19.5348 1.19 1.1903v1.8285c1.967.0863 3.4.414 4.538.8108.587.207.898.828.742 1.4317l-.483 1.7595c-.19.6724-.914 1.0524-1.57.7934-1.053-.397-2.519-.8106-4.434-.8106-2.433 0-3.124 1.0006-3.124 1.9146 0 1.104 1.45 1.863 4.607 2.846 4.504 1.346 6.385 3.226 6.385 6.59 0 3.088-2.295 5.865-6.73 6.555v2.277c0 .655-.535 1.19-1.19 1.19h-1.191c-.655.017-1.19-.517-1.19-1.173Z" fill="url(#H)"/>
  <path d="M359.789 99.8268c13.884 0 25.14-11.2525 25.14-25.1332 0-13.8808-11.256-25.1333-25.14-25.1333s-25.14 11.2525-25.14 25.1333c0 13.8807 11.256 25.1332 25.14 25.1332Z" fill="url(#I)"/>
  <path d="M359.789 98.9817c13.417 0 24.294-10.8741 24.294-24.2879 0-13.4139-10.877-24.288-24.294-24.288s-24.294 10.8741-24.294 24.288c0 13.4138 10.877 24.2879 24.294 24.2879Z" fill="url(#J)"/>
  <path opacity=".69" d="M339.757 65.1027c-.07 0-.156-.0173-.225-.0518-.259-.1207-.362-.4312-.224-.69 3.934-7.7797 11.785-12.6097 20.498-12.6097 1.398 0 2.778.1208 4.141.3795.276.0518.466.3105.414.6038-.051.276-.31.4657-.603.414-1.295-.2415-2.623-.3623-3.952-.3623-8.316 0-15.822 4.623-19.584 12.0577-.103.1553-.276.2588-.465.2588Z" fill="#fff"/>
  <path d="M360.324 95.7732c11.359 0 20.567-9.206 20.567-20.562 0-11.3561-9.208-20.562-20.567-20.562s-20.568 9.2059-20.568 20.562c0 11.356 9.209 20.562 20.568 20.562Z" fill="url(#K)"/>
  <path d="M358.305 90.4947v-2.2426c-2.329-.0862-4.641-.6382-6.281-1.3627-.586-.2587-.88-.9142-.707-1.5352l.569-2.0873c.207-.759 1.036-1.1558 1.778-.8453 1.622.6728 3.64 1.2248 5.797 1.2248 2.243 0 3.917-.759 3.917-2.3288 0-1.4145-1.294-2.2425-4.417-3.0877-4.452-1.2248-7.661-3.1568-7.661-7.0725 0-3.5363 2.588-6.2445 7.074-6.969v-2.2425c0-.7245.587-1.311 1.312-1.311h1.311c.725 0 1.311.5865 1.311 1.311v2.001c2.157.0862 3.727.4485 4.97.897.638.2242.983.9142.811 1.5697l-.518 1.932c-.207.7418-1.001 1.1558-1.708.8798-1.156-.4313-2.778-.8798-4.883-.8798-2.658 0-3.434 1.104-3.434 2.0873 0 1.2247 1.605 2.0527 5.073 3.1222 4.952 1.4835 7.005 3.5363 7.005 7.2278 0 3.381-2.519 6.4343-7.385 7.1933v2.5012c0 .7245-.586 1.311-1.311 1.311h-1.311c-.725.0173-1.312-.5692-1.312-1.2937Z" fill="url(#L)"/>
  <path d="M306.162 66.3961c18.201 0 32.956-14.7511 32.956-32.9475 0-18.1964-14.755-32.947501-32.956-32.947501S273.206 15.2522 273.206 33.4486c0 18.1964 14.755 32.9475 32.956 32.9475Z" fill="url(#M)"/>
  <path d="M306.162 65.3094c17.601 0 31.869-14.2646 31.869-31.8608 0-17.5962-14.268-31.86071-31.869-31.86071S274.293 15.8524 274.293 33.4486c0 17.5962 14.268 31.8608 31.869 31.8608Z" fill="url(#N)"/>
  <path opacity=".69" d="M279.883 20.7355c-.069 0-.155-.0173-.224-.0518-.259-.1207-.363-.4312-.225-.69 5.125-10.14297 15.374-16.45647 26.728-16.45647 1.812 0 3.623.15525 5.4.483.277.05175.466.3105.415.60375-.052.276-.311.46575-.604.414-1.709-.3105-3.468-.46575-5.211-.46575-10.974 0-20.861 6.08927-25.813 15.88727-.086.1725-.276.276-.466.276Z" fill="#fff"/>
  <path d="M306.852 61.1177c14.894 0 26.969-12.0712 26.969-26.9617 0-14.8906-12.075-26.96179-26.969-26.96179-14.895 0-26.969 12.07119-26.969 26.96179 0 14.8905 12.074 26.9617 26.969 26.9617Z" fill="url(#O)"/>
  <path d="M304.212 54.2006v-2.9325c-3.054-.1208-6.091-.8453-8.23-1.7768-.76-.3277-1.157-1.1902-.932-2.001l.742-2.7255c.276-1.0005 1.363-1.518 2.329-1.1212 2.14.897 4.762 1.6042 7.609 1.6042 2.951 0 5.142-1.0005 5.142-3.0532 0-1.8458-1.691-2.9498-5.797-4.0365-5.85-1.6043-10.042-4.14-10.042-9.2805 0-4.6403 3.399-8.1938 9.283-9.1425v-2.9325c0-.9488.759-1.7078 1.708-1.7078h1.725c.949 0 1.708.759 1.708 1.7078v2.6392c2.83.1208 4.883.6038 6.523 1.173.845.2933 1.294 1.1903 1.069 2.0528l-.69 2.5357c-.259.966-1.311 1.5008-2.243 1.1558-1.501-.5693-3.641-1.1558-6.401-1.1558-3.503 0-4.487 1.449-4.487 2.7428 0 1.6042 2.106 2.691 6.644 4.0882 6.487 1.9493 9.196 4.6403 9.196 9.4875 0 4.4505-3.295 8.4353-9.68 9.4358v3.2775c0 .9487-.759 1.7077-1.708 1.7077h-1.725c-.967-.0345-1.743-.8107-1.743-1.7422Z" fill="url(#P)"/>
  <path d="M436.934 338.394c-15.132 29.842-35.699 33.016-41.756 33.327v.017s.173.017-.276 0c-.449.017-.276 0-.276 0v-.017c-5.521-.242-19.825-2.45-33.405-20.01-2.864-3.709-5.711-8.091-8.351-13.3-17.582-34.673-4.797-52.526-4.797-52.526l46.553-.121h.552l19.826.052 26.796.069c-.017-.035 12.699 17.836-4.866 52.509Z" fill="#F86A2E"/>
  <path d="M394.954 292.578c26.101 0 47.26-2.68 47.26-5.986 0-3.306-21.159-5.986-47.26-5.986s-47.26 2.68-47.26 5.986c0 3.306 21.159 5.986 47.26 5.986Z" fill="#1A1B1D"/>
  <path opacity=".18" d="M442.162 286.368c.018.069.052.155.052.224 0 2.363-10.75 4.399-26.382 5.365 2.502 6.865 4.797 18.63-5.297 25.081-11.733 7.504-49.262 18.492-49.348 34.673 13.579 17.56 27.9 19.768 33.404 20.01v.017s-.172.017.277 0c.448.017.276 0 .276 0v-.017c6.073-.311 26.641-3.467 41.756-33.327 15.908-31.326 7.109-48.921 5.262-52.026Z" fill="#000"/>
  <path d="M323.037 234.031c13.608 0 24.639-14.117 24.639-31.533 0-17.415-11.031-31.533-24.639-31.533-13.608 0-24.64 14.118-24.64 31.533 0 17.416 11.032 31.533 24.64 31.533Z" fill="#1A1B1D"/>
  <path d="M478.69 209.588c0 39.227-38.805 71.018-86.687 71.018-7.35 0-14.494-.741-21.309-2.156-37.581-7.78-65.378-35.638-65.378-68.845 0-39.209 38.806-71.018 86.687-71.018 13.459 0 26.193 2.501 37.546 6.986 29.057 11.454 49.124 35.811 49.141 64.015Z" fill="#F86A2E"/>
  <path opacity=".18" d="M478.69 209.588c0 39.227-38.805 71.018-86.687 71.018-7.35 0-14.494-.741-21.309-2.156-6.747-21.269 31.352-44.608 53.265-59.478 26.848-18.216 5.573-73.399 5.573-73.399 29.074 11.454 49.141 35.811 49.158 64.015Z" fill="#000"/>
  <path d="M466.854 246.383c13.608 0 24.639-14.118 24.639-31.533 0-17.416-11.031-31.533-24.639-31.533-13.608 0-24.64 14.117-24.64 31.533 0 17.415 11.032 31.533 24.64 31.533Z" fill="#1A1B1D"/>
  <path d="m334.114 242.018 66.844 5.831c14.77 1.294 27.521-10.264 28.039-25.979l.552-16.767c.242-7.21-5.28-13.213-12.233-13.403l-95.28-2.45c-5.539-.138-9.973 4.882-9.973 11.213v14.714c-.017 13.8 9.714 25.755 22.051 26.841Z" fill="#F4F7FA"/>
  <path d="m332.51 232.427 71.52 5.261c10.56.777 19.584-7.572 19.929-18.716l.224-7.4c.224-7.159-5.245-13.145-12.113-13.352l-85.254-2.604c-5.591-.173-10.077 4.847-10.077 11.195v6.572c-.017 9.902 6.971 18.406 15.771 19.044Z" fill="#1A1B1D"/>
  <path d="M374.438 226.028c-.673-1.104-1.087-2.329-1.052-3.623.069-4.192 4.261-7.383 9.421-7.124 5.21.259 9.403 3.95 9.317 8.228-.034 1.311-.5 2.519-1.242 3.553l-16.444-1.034ZM330.422 223.25c-.622-1.052-1.001-2.208-1.001-3.432.017-3.985 3.779-7.021 8.437-6.797 4.711.241 8.524 3.726 8.49 7.797-.018 1.259-.432 2.381-1.087 3.381l-14.839-.949Z" fill="#D8DEE8"/>
  <path d="m381.461 305.74.466-4.899-4.228-.397-8.368 6.9-6.902-8.366-4.227-.397-.466 4.882 7.713 9.349 6.66.638 9.352-7.71Z" fill="#1A1B1D"/>
  <path d="m380.46 316.159.466-4.882-4.227-.414-8.369 6.9-6.902-8.349-4.227-.414-.466 4.899 7.713 9.332 6.66.638 9.352-7.71Z" fill="#fff"/>
  <defs>
    <linearGradient id="a" x1="94.8707" y1="104.088" x2="112.008" y2="246.296" gradientUnits="userSpaceOnUse">
      <stop stop-color="#AA80F9"/>
      <stop offset=".9964" stop-color="#6165D7"/>
    </linearGradient>
    <linearGradient id="b" x1="108.228" y1="206.416" x2="48.5191" y2="297.953" gradientUnits="userSpaceOnUse">
      <stop stop-color="#FFC444"/>
      <stop offset=".9964" stop-color="#F36F56"/>
    </linearGradient>
    <linearGradient id="c" x1="78.9986" y1="273.268" x2="66.3161" y2="389.578" gradientUnits="userSpaceOnUse">
      <stop offset=".0035971" stop-color="#E38DDD"/>
      <stop offset="1" stop-color="#9571F6"/>
    </linearGradient>
    <linearGradient id="d" x1="459.504" y1="178.601" x2="526.576" y2="264.893" gradientUnits="userSpaceOnUse">
      <stop stop-color="#FFC444"/>
      <stop offset=".9964" stop-color="#F36F56"/>
    </linearGradient>
    <linearGradient id="e" x1="447.914" y1="94.0231" x2="473.467" y2="218.511" gradientUnits="userSpaceOnUse">
      <stop stop-color="#AA80F9"/>
      <stop offset=".9964" stop-color="#6165D7"/>
    </linearGradient>
    <linearGradient id="f" x1="482.563" y1="239.019" x2="479.289" y2="364.464" gradientUnits="userSpaceOnUse">
      <stop offset=".0035971" stop-color="#E38DDD"/>
      <stop offset="1" stop-color="#9571F6"/>
    </linearGradient>
    <linearGradient id="g" x1="85.4134" y1="316.851" x2="105.777" y2="313.357" gradientUnits="userSpaceOnUse">
      <stop stop-color="#FF9085"/>
      <stop offset="1" stop-color="#FF6205"/>
    </linearGradient>
    <linearGradient id="h" x1="185.407" y1="281.372" x2="194.818" y2="281.371" gradientUnits="userSpaceOnUse">
      <stop stop-color="#FF9085"/>
      <stop offset="1" stop-color="#FF6205"/>
    </linearGradient>
    <linearGradient id="i" x1="241.229" y1="317.109" x2="252.356" y2="313.616" gradientUnits="userSpaceOnUse">
      <stop stop-color="#FF9085"/>
      <stop offset="1" stop-color="#FF6205"/>
    </linearGradient>
    <linearGradient id="j" x1="270.918" y1="300.812" x2="297.676" y2="281.606" gradientUnits="userSpaceOnUse">
      <stop stop-color="#FF9085"/>
      <stop offset="1" stop-color="#FF6205"/>
    </linearGradient>
    <linearGradient id="k" x1="272.231" y1="302.641" x2="298.989" y2="283.436" gradientUnits="userSpaceOnUse">
      <stop stop-color="#FF9085"/>
      <stop offset="1" stop-color="#FF6205"/>
    </linearGradient>
    <linearGradient id="l" x1="276.394" y1="308.44" x2="303.152" y2="289.236" gradientUnits="userSpaceOnUse">
      <stop stop-color="#FF9085"/>
      <stop offset="1" stop-color="#FF6205"/>
    </linearGradient>
    <linearGradient id="m" x1="451.984" y1="278.345" x2="455.377" y2="275.338" gradientUnits="userSpaceOnUse">
      <stop stop-color="#FF9085"/>
      <stop offset="1" stop-color="#FF6205"/>
    </linearGradient>
    <linearGradient id="n" x1="455.873" y1="271.958" x2="462.519" y2="271.957" gradientUnits="userSpaceOnUse">
      <stop stop-color="#FF9085"/>
      <stop offset="1" stop-color="#FF6205"/>
    </linearGradient>
    <linearGradient id="o" x1="412.673" y1="265.033" x2="435.798" y2="254.992" gradientUnits="userSpaceOnUse">
      <stop stop-color="#FF9085"/>
      <stop offset="1" stop-color="#FF6205"/>
    </linearGradient>
    <linearGradient id="p" x1="411.732" y1="219.628" x2="419.804" y2="217.009" gradientUnits="userSpaceOnUse">
      <stop stop-color="#FF9085"/>
      <stop offset="1" stop-color="#FF6205"/>
    </linearGradient>
    <linearGradient id="q" x1="387.983" y1="158.819" x2="247.767" y2="395.549" gradientUnits="userSpaceOnUse">
      <stop stop-color="#C44100"/>
      <stop offset="1" stop-color="#7A2900"/>
    </linearGradient>
    <linearGradient id="r" x1="442.414" y1="159.75" x2="446.784" y2="152.319" gradientUnits="userSpaceOnUse">
      <stop stop-color="#C44100"/>
      <stop offset="1" stop-color="#7A2900"/>
    </linearGradient>
    <linearGradient id="s" x1="538.975" y1="78.3599" x2="533.736" y2="123.816" gradientUnits="userSpaceOnUse">
      <stop stop-color="#C44100"/>
      <stop offset="1" stop-color="#7A2900"/>
    </linearGradient>
    <linearGradient id="t" x1="541.388" y1="119.497" x2="551.867" y2="42.5701" gradientUnits="userSpaceOnUse">
      <stop stop-color="#C44100"/>
      <stop offset="1" stop-color="#7A2900"/>
    </linearGradient>
    <linearGradient id="u" x1="366.814" y1="169.667" x2="315.693" y2="263.655" gradientUnits="userSpaceOnUse">
      <stop stop-color="#FF9085"/>
      <stop offset="1" stop-color="#A33904"/>
    </linearGradient>
    <linearGradient id="v" x1="208.238" y1="254.89" x2="112.941" y2="402.121" gradientUnits="userSpaceOnUse">
      <stop stop-color="#FF9085"/>
      <stop offset="1" stop-color="#FF6205"/>
    </linearGradient>
    <linearGradient id="w" x1="328.348" y1="251.374" x2="128.341" y2="286.815" gradientUnits="userSpaceOnUse">
      <stop stop-color="#FF9085"/>
      <stop offset="1" stop-color="#FF6205"/>
    </linearGradient>
    <linearGradient id="x" x1="416.212" y1="154.551" x2="412.284" y2="193.014" gradientUnits="userSpaceOnUse">
      <stop stop-color="#FF9085"/>
      <stop offset="1" stop-color="#FF6205"/>
    </linearGradient>
    <linearGradient id="y" x1="467.998" y1="161.502" x2="550.152" y2="57.0119" gradientUnits="userSpaceOnUse">
      <stop stop-color="#FF9085"/>
      <stop offset="1" stop-color="#FF6205"/>
    </linearGradient>
    <linearGradient id="z" x1="425.272" y1="159.836" x2="410.965" y2="186.139" gradientUnits="userSpaceOnUse">
      <stop stop-color="#FF9085"/>
      <stop offset="1" stop-color="#FF6205"/>
    </linearGradient>
    <linearGradient id="A" x1="204.194" y1="252.272" x2="108.896" y2="399.504" gradientUnits="userSpaceOnUse">
      <stop stop-color="#FF9085"/>
      <stop offset="1" stop-color="#FF6205"/>
    </linearGradient>
    <linearGradient id="B" x1="275.275" y1="208.837" x2="245.767" y2="191.541" gradientUnits="userSpaceOnUse">
      <stop offset=".0035971" stop-color="#E38DDD"/>
      <stop offset="1" stop-color="#9571F6"/>
    </linearGradient>
    <linearGradient id="C" x1="239.518" y1="188.496" x2="246.076" y2="191.447" gradientUnits="userSpaceOnUse">
      <stop offset=".0035971" stop-color="#E38DDD"/>
      <stop offset="1" stop-color="#9571F6"/>
    </linearGradient>
    <linearGradient id="D" x1="267.543" y1="217.268" x2="195.421" y2="125.909" gradientUnits="userSpaceOnUse">
      <stop offset=".0035971" stop-color="#E38DDD"/>
      <stop offset="1" stop-color="#9571F6"/>
    </linearGradient>
    <linearGradient id="E" x1="280.195" y1="142.086" x2="310.872" y2="106.463" gradientUnits="userSpaceOnUse">
      <stop stop-color="#E1473D"/>
      <stop offset="1" stop-color="#E9605A"/>
    </linearGradient>
    <linearGradient id="F" x1="328.221" y1="80.4948" x2="237.518" y2="217.587" gradientUnits="userSpaceOnUse">
      <stop stop-color="#FF6205"/>
      <stop offset="1" stop-color="#FF928E"/>
    </linearGradient>
    <linearGradient id="G" x1="285.561" y1="135.645" x2="396.049" y2="12.5917" gradientUnits="userSpaceOnUse">
      <stop/>
      <stop offset="1" stop-color="#383838"/>
    </linearGradient>
    <linearGradient id="H" x1="325.514" y1="84.4223" x2="277.218" y2="165.543" gradientUnits="userSpaceOnUse">
      <stop stop-color="#FF6205"/>
      <stop offset="1" stop-color="#FF928E"/>
    </linearGradient>
    <linearGradient id="I" x1="325.4" y1="114.605" x2="359.102" y2="75.468" gradientUnits="userSpaceOnUse">
      <stop stop-color="#E1473D"/>
      <stop offset="1" stop-color="#E9605A"/>
    </linearGradient>
    <linearGradient id="J" x1="378.161" y1="46.9391" x2="278.513" y2="197.551" gradientUnits="userSpaceOnUse">
      <stop stop-color="#FF6205"/>
      <stop offset="1" stop-color="#FF928E"/>
    </linearGradient>
    <linearGradient id="K" x1="296.894" y1="145.82" x2="407.381" y2="22.7673" gradientUnits="userSpaceOnUse">
      <stop/>
      <stop offset="1" stop-color="#383838"/>
    </linearGradient>
    <linearGradient id="L" x1="375.187" y1="51.2537" x2="322.129" y2="140.374" gradientUnits="userSpaceOnUse">
      <stop stop-color="#FF6205"/>
      <stop offset="1" stop-color="#FF928E"/>
    </linearGradient>
    <linearGradient id="M" x1="261.065" y1="85.8017" x2="305.26" y2="34.4802" gradientUnits="userSpaceOnUse">
      <stop stop-color="#E1473D"/>
      <stop offset="1" stop-color="#E9605A"/>
    </linearGradient>
    <linearGradient id="N" x1="330.253" y1="-2.93104" x2="199.581" y2="194.573" gradientUnits="userSpaceOnUse">
      <stop stop-color="#FF6205"/>
      <stop offset="1" stop-color="#FF928E"/>
    </linearGradient>
    <linearGradient id="O" x1="246.881" y1="100.915" x2="357.369" y2="-22.1383" gradientUnits="userSpaceOnUse">
      <stop/>
      <stop offset="1" stop-color="#383838"/>
    </linearGradient>
    <linearGradient id="P" x1="326.353" y1="2.7273" x2="256.776" y2="119.595" gradientUnits="userSpaceOnUse">
      <stop stop-color="#FF6205"/>
      <stop offset="1" stop-color="#FF928E"/>
    </linearGradient>
  </defs>
</svg>