<svg viewBox="0 0 229 53" fill="none" xmlns="http://www.w3.org/2000/svg">
  <path d="M72.9797 4.98888V25.1757H68.808V4.98888h-6.6439V1.28583h17.4595v3.70305h-6.6439ZM94.7398 25.1757l-4.1718-9.8491h-4.4292v9.8491H81.967V1.28583h10.1719c4.0687 0 7.3134 2.59728 7.3134 6.86608 0 3.06019-1.7769 5.45169-4.7898 6.55749l4.7383 10.4663h-4.661ZM91.4951 4.96317h-5.3563v6.66033h5.2275c2.2404 0 3.8627-1.2343 3.8627-3.47159 0-2.23726-1.5193-3.18874-3.7339-3.18874ZM117.633 25.1757l-1.88-5.2974h-8.884l-1.932 5.2974h-4.377l9.064-23.88987h3.374l9.038 23.88987h-4.403Zm-4.713-13.655-1.571-4.91173h-.103l-1.545 4.80883-1.622 4.9374h6.438l-1.597-4.8345ZM132.903 1.28583c3.58 0 6.644 1.3115 8.138 4.42309.85 1.74867.927 4.16594.927 7.09748 0 3.3431-.077 5.7604-.85 7.6119-1.571 3.6002-4.944 4.7317-8.807 4.7317h-8.112V1.28583h8.704Zm-4.532 20.10967h4.095c4.017 0 5.356-2.3401 5.356-5.9403v-4.4488c0-4.26885-1.931-5.94037-5.434-5.94037h-4.017V21.3955ZM145.702 25.1757V1.28583h16.017v3.7802h-11.871v6.24887h10.12v3.6517h-10.12v6.4546h11.871v3.7802h-16.017v-.0257ZM177.016 5.06603v6.45467h10.12v3.6002h-10.12v10.0548h-4.172V1.28583h16.017v3.7802h-11.845ZM208.02 10.1835v6.1203c0 5.5546-3.502 9.1033-8.935 9.1033-5.975 0-8.91-4.2173-8.91-9.1033v-6.1203c0-4.80888 2.91-9.05196 8.91-9.05196 5.51-.02572 8.935 3.83163 8.935 9.05196Zm-13.648-.20577v6.42887c0 2.5973 1.519 5.1175 4.713 5.1175 2.91 0 4.712-2.2373 4.712-5.1175V9.97773c0-2.70015-1.751-4.93741-4.712-4.93741-3.194-.02572-4.713 2.41727-4.713 4.93741ZM224.244 25.1757l-5.228-8.8205-5.201 8.8205h-4.687l7.725-12.215-7.262-11.67487h4.713l4.712 8.22901 4.764-8.22901h4.687l-7.262 11.67487 7.726 12.215h-4.687ZM72.2072 47.9855l-1.0558-2.9573h-4.97l-1.0816 2.9573h-2.4464l5.0731-13.4236h1.8798l5.0731 13.4236h-2.4722Zm-2.6524-7.689-.8755-2.7516h-.0515l-.8756 2.7002-.9013 2.7772h3.6052l-.9013-2.7258ZM77.821 38.4193v5.6831c0 1.3115.4893 1.9544 1.7769 1.9544 1.03 0 1.8283-.72 1.8283-1.9544v-5.6831h2.1889v9.5405h-2.1889v-.9515h-.0515c-.5665.72-1.5708 1.0543-2.4206 1.0543-1.9829 0-3.2704-1.08-3.2704-3.3944v-6.2746h2.1373v.0257ZM88.7912 47.9855c-1.4163 0-2.4464-.8743-2.4464-2.3915v-5.4003h-1.1073v-1.7744h1.1073v-2.4944h2.1116v2.4944h1.4679v1.7744h-1.4421v4.8088c0 .6686.2317 1.08.8755 1.08h.7211v1.903h-1.2876ZM98.9115 39.9107c.4893.7458.7211 1.8516.6953 3.1374 0 1.44-.206 2.4687-.6438 3.2401-.721 1.183-2.0858 1.8001-3.5794 1.8001-1.4163 0-2.6009-.4886-3.2962-1.4915-.5408-.7972-.7725-1.9544-.7468-3.3944 0-1.0287.1288-1.9802.4893-2.7002.6438-1.4144 2.0601-2.1858 3.8112-2.1858 1.3648 0 2.5751.5657 3.2704 1.5943Zm-5.0988 1.4401c-.2317.4886-.309 1.1315-.3347 1.8773 0 .7457.0515 1.3629.2832 1.8258.2833.6429.8756 1.0543 1.6224 1.0543.824 0 1.4936-.4371 1.8026-1.3629.1287-.36.1802-.8743.1802-1.6972 0-.7201-.0772-1.2858-.2575-1.6716-.2832-.7457-.9013-1.1057-1.6223-1.1057-.7211 0-1.3648.4114-1.6739 1.08ZM104.397 47.9855c-1.417 0-2.447-.8743-2.447-2.3915v-5.4003h-1.107v-1.7744h1.107v-2.4944h2.112v2.4944h1.468v1.7744h-1.442v4.8088c0 .6686.231 1.08.875 1.08h.721v1.903h-1.287ZM109.521 42.2509v5.7346h-2.189v-9.5663h2.138v1.1315h.077c.566-.8229 1.365-1.2343 2.317-1.2343.721 0 1.288.1286 1.803.4886l-.798 1.9544c-.541-.3343-1.056-.4372-1.571-.4372-1.03.0257-1.777.6943-1.777 1.9287ZM121.676 41.5051v6.4804h-2.189v-.8486l-.026-.0258c-.515.6686-1.519.9515-2.498.9515-2.034 0-3.296-1.0286-3.296-2.8801 0-1.543 1.107-2.8802 3.245-2.8802h2.575v-.6943c0-.7201-.412-1.3629-1.88-1.3629-1.03 0-1.725.2571-2.266.7971l-1.159-1.4658c.927-.9257 2.215-1.26 3.554-1.26 2.137.0257 3.94.72 3.94 3.1887Zm-4.249 4.706c.978 0 1.931-.3086 2.034-1.3372.026-.1543.026-.3086.026-.9001h-2.215c-1.107 0-1.545.4629-1.545 1.0544 0 .5914.438 1.1829 1.7 1.1829ZM129.169 47.9855v-.8744l-.025-.0257c-.644.72-1.571 1.0286-2.395 1.0286-3.039 0-3.399-2.5972-3.399-4.9374 0-2.1858.695-4.8088 3.631-4.8088.824 0 1.673.3086 2.163.9258l.025-.0258v-5.2459h2.189v13.9893h-2.189v-.0257Zm-1.751-7.5862c-1.674 0-1.828 1.6458-1.828 2.9316 0 1.1829.18 2.7002 1.803 2.7002 1.622 0 1.802-1.6716 1.802-2.8288-.026-1.2086-.18-2.803-1.777-2.803ZM133.444 36.5677v-2.0058h2.189v2.0058h-2.189Zm0 11.4178V38.445h2.189v9.5405h-2.189ZM143.59 47.9855V42.328c0-1.2086-.54-1.9287-1.751-1.9287-1.03 0-1.828.7201-1.828 1.9287v5.6575h-2.189v-9.5663h2.189v1.0029h.026c.618-.6943 1.622-1.08 2.498-1.08 1.957 0 3.244 1.1315 3.244 3.3687v6.2747h-2.189ZM155.513 38.4192v9.1548c0 3.2144-1.751 4.2945-4.275 4.2945-.952 0-2.343-.2572-3.321-1.1572l1.133-1.5944c.643.4629 1.416.7715 2.343.7715 1.185 0 1.957-.6943 1.957-1.9544v-.8743h-.026c-.618.72-1.493 1.0286-2.292 1.0286-2.961 0-3.502-2.4944-3.502-4.6545 0-2.263.438-5.0917 3.58-5.0917.824 0 1.674.2828 2.214.9515h.052v-.8744h2.137Zm-3.94 7.6119c1.597 0 1.803-1.5944 1.803-2.8031 0-1.1057-.103-2.8287-1.777-2.8287s-1.828 1.5687-1.828 2.8287c-.026 1.363.128 2.8031 1.802 2.8031ZM165.685 48.0883c-1.416 0-2.833-.2828-4.146-1.44l1.185-1.5687c.901.8229 1.931 1.1315 3.064 1.1315.927 0 1.648-.4115 1.648-1.1058 0-.6429-.515-.9515-1.699-1.08-1.7-.1801-3.631-.4886-3.631-2.7259 0-1.9544 1.648-2.983 3.579-2.983 1.442 0 2.627.2828 3.657 1.08l-1.03 1.6458c-.902-.5914-1.803-.8229-2.575-.8229-1.03 0-1.546.4629-1.546 1.0287 0 .6429.696.8743 2.267 1.0286 1.57.18 3.116.7457 3.116 2.7516 0 1.9544-1.752 3.0601-3.889 3.0601ZM174.827 49.9142c-.541 1.4658-1.623 1.9286-2.781 1.9286h-.799V50.017h.593c.566 0 .952-.4629 1.158-1.0029l.49-1.4915-3.528-9.1033h2.343l1.236 3.4973.953 3.0087h.077l.953-2.9573 1.21-3.5487h2.292l-4.197 11.4949ZM183.273 48.0883c-1.416 0-2.832-.2828-4.146-1.44l1.185-1.5687c.901.8229 1.931 1.1315 3.064 1.1315.927 0 1.648-.4115 1.648-1.1058 0-.6429-.515-.9515-1.699-1.08-1.7-.1801-3.631-.4886-3.631-2.7259 0-1.9544 1.648-2.983 3.579-2.983 1.442 0 2.627.2828 3.657 1.08l-1.03 1.6458c-.901-.5914-1.803-.8229-2.575-.8229-1.03 0-1.545.4629-1.545 1.0287 0 .6429.695.8743 2.266 1.0286 1.571.18 3.116.7457 3.116 2.7516 0 1.9544-1.751 3.0601-3.889 3.0601ZM191.72 47.9855c-1.416 0-2.447-.8743-2.447-2.3915v-5.4003h-1.107v-1.7744h1.107v-2.4944h2.112v2.4944h1.468v1.7744h-1.442v4.8088c0 .6686.232 1.08.875 1.08h.721v1.903h-1.287ZM196.407 43.8196c0 1.1829.618 2.2887 2.034 2.2887.566 0 1.545-.2572 2.266-.9001.464.5143.798 1.0029 1.262 1.5173-1.056.9772-2.421 1.3372-3.605 1.3372-2.035 0-4.198-.9515-4.198-4.8603 0-3.6773 2.189-4.9117 4.172-4.9117 2.575 0 4.12 1.8001 4.12 4.5774v.9515h-6.051Zm.025-1.543h3.657c-.077-1.2857-.824-1.9801-1.803-1.9801-1.004 0-1.725.7458-1.854 1.9801ZM215.746 47.9855v-5.6832c0-1.2086-.567-1.9544-1.803-1.9544-1.004 0-1.802.7972-1.802 1.9544v5.6832h-2.189v-5.6832c0-1.2086-.592-1.9544-1.803-1.9544-1.004 0-1.802.7972-1.802 1.9544v5.6832h-2.189v-9.5406h2.189v1.0287c.025 0 .051.0257.051.0257.567-.72 1.597-1.1315 2.55-1.1315 1.184 0 2.06.4372 2.652 1.3629.798-.8486 1.854-1.3629 3.039-1.3629 1.931 0 3.27 1.1829 3.27 3.343v6.2747h-2.163ZM223.343 48.0883c-1.417 0-2.833-.2828-4.146-1.44l1.184-1.5687c.902.8229 1.932 1.1315 3.065 1.1315.927 0 1.648-.4115 1.648-1.1058 0-.6429-.515-.9515-1.7-1.08-1.699-.1801-3.631-.4886-3.631-2.7259 0-1.9544 1.648-2.983 3.58-2.983 1.442 0 2.626.2828 3.656 1.08l-1.03 1.6458c-.901-.5914-1.802-.8229-2.575-.8229-1.03 0-1.545.4629-1.545 1.0287 0 .6429.695.8743 2.266 1.0286 1.571.18 3.116.7457 3.116 2.7516 0 1.9544-1.751 3.0601-3.888 3.0601Z" fill="#fff"/>
  <path d="M52.7905 10.8777V0h-9.425L26.3953 16.9466 9.39929 0H0v10.8777l18.9788 18.9525h14.8329l18.9788-18.9525Z" fill="#F86A2E"/>
  <path d="M52.7905 34.0476V23.1699h-9.425L26.3953 40.1165 9.39929 23.1699H0v10.8777L18.9788 53h14.8329l18.9788-18.9524Z" fill="#fff"/>
</svg>