<svg xmlns="http://www.w3.org/2000/svg" viewBox="0 0 229.1 54.78"><defs><style>.cls-1{fill:#fff;}.cls-2{fill:#f86a2e;}</style></defs><g id="Слой_2" data-name="Слой 2"><g id="Слой_1-2" data-name="Слой 1"><path class="cls-1" d="M73,5V25.18H68.81V5H62.16V1.29H79.62V5Z"/><path class="cls-1" d="M94.74,25.18l-4.17-9.85H86.14v9.85H82V1.29H92.14c4.07,0,7.31,2.59,7.31,6.86a6.8,6.8,0,0,1-4.79,6.56L99.4,25.18ZM91.49,5H86.14v6.66h5.23c2.24,0,3.86-1.23,3.86-3.47S93.71,5,91.49,5Z"/><path class="cls-1" d="M117.63,25.18l-1.88-5.3h-8.88l-1.93,5.3h-4.38l9.06-23.89H113l9,23.89Zm-4.71-13.66-1.57-4.91h-.1l-1.55,4.81-1.62,4.94h6.44Z"/><path class="cls-1" d="M132.9,1.29c3.58,0,6.65,1.31,8.14,4.42.85,1.75.93,4.16.93,7.1,0,3.34-.08,5.76-.85,7.61-1.57,3.6-5,4.73-8.81,4.73H124.2V1.29ZM128.37,21.4h4.1c4,0,5.35-2.34,5.35-5.94V11c0-4.27-1.93-5.94-5.43-5.94h-4Z"/><path class="cls-1" d="M145.7,25.18V1.29h16V5.07H149.85v6.24H160V15H149.85v6.45h11.87V25.2h-16Z"/><path class="cls-1" d="M177,5.07v6.45h10.12v3.6H177V25.18h-4.18V1.29h16V5.07Z"/><path class="cls-1" d="M208,10.18V16.3c0,5.56-3.5,9.11-8.93,9.11-6,0-8.91-4.22-8.91-9.11V10.18c0-4.81,2.91-9,8.91-9C204.6,1.11,208,5,208,10.18ZM194.37,10v6.43c0,2.59,1.52,5.11,4.72,5.11,2.91,0,4.71-2.23,4.71-5.11V10A4.63,4.63,0,0,0,199.09,5C195.89,5,194.37,7.46,194.37,10Z"/><path class="cls-1" d="M224.24,25.18,219,16.36l-5.2,8.82h-4.69L216.85,13,209.59,1.29h4.71L219,9.51l4.76-8.22h4.69L221.21,13l7.72,12.22Z"/><path class="cls-2" d="M52.79,10.88V0H43.37l-17,17L9.4,0H0V10.88L19,29.83H33.81Z"/><path class="cls-1" d="M52.79,34.05V23.17H43.37l-17,16.95L9.4,23.17H0V34.05L19,53H33.81Z"/><path class="cls-1" d="M74.58,50.92H73.16l-1.63-4.24H65.36l-1.65,4.25H62.33L67.79,37.4h1.42ZM68.49,38.61l-2.73,7h5.37Z"/><path class="cls-1" d="M83.42,50.92h-1.1v-1.8a3.54,3.54,0,0,1-3.43,2.09c-2,0-3.35-1.18-3.35-3.55V41.19h1.19v6c0,1.92.58,3,2.46,3s3-1.62,3-3.59V41.19h1.17Z"/><path class="cls-1" d="M89.61,42.16h-2v6.17c0,1,0,1.63,1.23,1.63a6.72,6.72,0,0,0,.78-.06v1a7.57,7.57,0,0,1-1,.07c-.85,0-1.8-.17-2-1.12a9.14,9.14,0,0,1-.11-2.14V42.16H84.71v-1h1.72v-3h1.18v3h2Z"/><path class="cls-1" d="M100.06,46.1c0,3.15-1.76,5.12-4.58,5.11s-4.64-2-4.64-5.15,1.82-5.15,4.64-5.15S100.07,42.92,100.06,46.1Zm-8,0c0,2.56,1.31,4.17,3.45,4.17s3.37-1.61,3.37-4.15-1.32-4.16-3.41-4.16S92.06,43.54,92.05,46.06Z"/><path class="cls-1" d="M105.75,42.17h-2v6.17c0,1,0,1.63,1.23,1.63a6.73,6.73,0,0,0,.77-.06v1a6.15,6.15,0,0,1-1,.08c-.85,0-1.8-.17-2-1.12a9.2,9.2,0,0,1-.11-2.14V42.17h-1.72v-1h1.72v-3h1.17v3h2Z"/><path class="cls-1" d="M112.45,42.27l-.32,0a3.15,3.15,0,0,0-3.11,2.3,8.89,8.89,0,0,0-.23,2.41v4h-1.17V41.2h1.12v2.33a3.57,3.57,0,0,1,3.71-2.48Z"/><path class="cls-1" d="M122,50.88a2.57,2.57,0,0,1-1,.16c-1.15,0-1.27-.89-1.27-1.78a4.05,4.05,0,0,1-3.67,1.94c-2,0-3.18-1-3.18-2.72s1.21-2.77,3.62-3a7.4,7.4,0,0,0,2.84-.51c.24-.17.34-.44.34-.93,0-1.61-1-2.1-2.54-2.1s-2.5.71-2.65,2.29h-1.14c.1-2.09,1.52-3.28,3.92-3.28,2.2,0,3.58,1,3.58,2.81v5.3c0,.58,0,1,.64,1A1.64,1.64,0,0,0,122,50Zm-4.92-4.56c-1.23.17-2.9.45-2.9,2,0,1.14.87,1.86,2.23,1.86a3.07,3.07,0,0,0,3.32-3V45.64C119.32,46.06,118.35,46.15,117.05,46.32Z"/><path class="cls-1" d="M131.81,51h-1.08V49a3.54,3.54,0,0,1-3.51,2.2c-2.69,0-4.39-2-4.39-5.15s1.71-5.15,4.36-5.15a3.54,3.54,0,0,1,3.46,2.1V37.46h1.15ZM124,46.06c0,2.57,1.29,4.2,3.31,4.2s3.36-1.59,3.36-4.18c0-2.1-1-4.17-3.37-4.17C125.32,41.91,124,43.54,124,46.06Z"/><path class="cls-1" d="M135.34,39.36h-1.19v-2h1.19Zm0,11.59h-1.19V41.21h1.2Z"/><path class="cls-1" d="M138.75,43.05a3.59,3.59,0,0,1,3.44-2.1,3.07,3.07,0,0,1,3.37,3.38V51h-1.19V44.7c0-2-1-2.7-2.48-2.71-1.78,0-3.07,1.18-3.07,3.7V51h-1.2V41.22h1.12Z"/><path class="cls-1" d="M156.05,50.43c0,3-1.58,4.35-4.36,4.35-2.37,0-3.82-1.06-4-2.94h1.2c.19,1.35,1.13,2,2.82,2,2.4,0,3.18-1.3,3.18-3.52V48.7a3.44,3.44,0,0,1-3.37,2.14c-2.58,0-4.22-1.89-4.22-4.83s1.73-5,4.32-5a3.49,3.49,0,0,1,3.31,2.1V41.22h1.08Zm-7.52-4.51c0,2.38,1.23,3.9,3.15,3.9s3.23-1.55,3.23-4c0-2.31-1.24-3.81-3.19-3.81S148.53,43.49,148.53,45.92Z"/><path class="cls-1" d="M169.42,44.07c-.11-1.48-1.06-2.12-2.63-2.12-1.4,0-2.28.62-2.28,1.61,0,1.21,1,1.42,2.79,1.84,1.59.36,3.61.85,3.61,2.88,0,1.78-1.55,3-3.86,3-2.5,0-3.94-1.26-4-3.49h1.16c0,1.63,1.08,2.5,2.88,2.5,1.59,0,2.65-.75,2.65-1.89,0-1.36-1.65-1.67-2.67-1.91-1.59-.38-3.75-.63-3.75-2.77,0-1.71,1.37-2.75,3.58-2.74s3.67,1,3.67,3.1Z"/><path class="cls-1" d="M176.44,51.33c-.85,2.27-1.31,3.33-2.88,3.33a5.91,5.91,0,0,1-1-.1v-1a2.64,2.64,0,0,0,.85.13c1.16,0,1.48-1.15,2.08-2.76l-3.91-9.66h1.31l2.63,6.71c.34.89.2.57.58,1.72.3-1,.42-1.4.59-1.85l2.41-6.57h1.21Z"/><path class="cls-1" d="M187.29,44.08c-.11-1.48-1.06-2.12-2.63-2.12-1.4,0-2.27.62-2.27,1.61,0,1.21.94,1.42,2.78,1.83,1.59.36,3.62.86,3.62,2.88,0,1.78-1.56,3-3.87,3-2.5,0-3.94-1.25-4-3.48h1.15c0,1.63,1.08,2.5,2.88,2.5,1.59,0,2.65-.76,2.65-1.89,0-1.37-1.64-1.67-2.67-1.92-1.59-.38-3.75-.62-3.75-2.76,0-1.71,1.37-2.75,3.58-2.75s3.68,1,3.68,3.11Z"/><path class="cls-1" d="M194.45,42.21h-2v6.17c0,1,0,1.63,1.23,1.63a6.87,6.87,0,0,0,.78-.06v1a7.61,7.61,0,0,1-1,.07c-.85,0-1.8-.17-2-1.12a8,8,0,0,1-.11-2.14V42.21h-1.72v-1h1.72v-3h1.17v3h2Z"/><path class="cls-1" d="M200.11,51.3c-2.71,0-4.47-2-4.47-5.08S197.48,41,200.09,41c2.88,0,4.28,2.39,4.28,5.08v.34h-7.52c0,2,1,3.94,3.29,3.94a2.88,2.88,0,0,0,3-2.55h1.15A4,4,0,0,1,200.11,51.3ZM200.05,42c-2.12,0-3,1.64-3.2,3.46h6.33C203.05,43.27,201.87,42,200.05,42Z"/><path class="cls-1" d="M207.13,43a3.57,3.57,0,0,1,3.24-2,2.69,2.69,0,0,1,2.79,1.89A3.47,3.47,0,0,1,216.39,41a2.87,2.87,0,0,1,3.13,3v7h-1.19V44.36a2,2,0,0,0-2.25-2.31c-1.76,0-2.71,1.19-2.71,3v6h-1.17V44.45c0-1.48-.57-2.4-2.14-2.4-2,0-2.84,1.51-2.84,3.4V51H206V41.25h1.11Z"/><path class="cls-1" d="M227.6,44.1C227.49,42.62,226.54,42,225,42c-1.4,0-2.27.62-2.27,1.6,0,1.22.94,1.43,2.78,1.84,1.59.36,3.62.86,3.62,2.88,0,1.78-1.56,3-3.87,3-2.5,0-3.94-1.25-4-3.48h1.15c0,1.63,1.08,2.5,2.88,2.5,1.59,0,2.65-.76,2.65-1.89,0-1.37-1.64-1.67-2.67-1.92-1.59-.38-3.75-.62-3.75-2.76,0-1.71,1.37-2.75,3.58-2.75s3.68,1,3.68,3.11Z"/></g></g></svg>