<svg viewBox="0 0 164 28" fill="none" xmlns="http://www.w3.org/2000/svg">
  <path fill-rule="evenodd" clip-rule="evenodd" d="M129.596 14.4071c0 2.9789 1.876 4.8257 4.915 4.8257 2.978 0 4.885-1.8767 4.885-4.7959 0-3.0085-1.877-4.88516-4.885-4.88516-3.009 0-4.915 1.87666-4.915 4.85536Zm14.907-.0303c0 4.9652-3.978 8.265-9.961 8.265-6.137 0-10.054-3.269-10.054-8.3883 0-4.84185 4.071-8.14168 10.023-8.14168 6.014 0 9.992 3.29983 9.992 8.26498ZM113.199 21.9345l-7.678-15.22972 5.49-.00494 4.601 10.17596 4.756-10.18103 4.983-.00776-10.087 21.31179-4.939.0015s2.497-5.2264 2.874-6.0658ZM158.737 14.7731c0 2.0895-1.742 3.5708-3.737 3.5708s-3.737-1.7123-3.737-3.5708V6.70605h-5.006v7.54685c0 4.5276 4.28 8.211 8.743 8.211 4.462 0 8.743-3.6834 8.743-8.211V6.70605h-5.006v8.06705ZM94.7109 13.0988l9.7301-9.53029L101.354.5 88.2506 13.1995v4.1997H99.115v10.5801h4.917V13.0988h-9.3211ZM0 1.47754V22.0774h5.20494v-8.2579H16.6429V9.58883H5.20494v-3.887H17.7274V1.47754H0ZM50.6842 14.383c0-5.02232 3.5124-8.2004 9.3168-8.2004 5.9806 0 9.32 3.15051 9.32 8.8v.6494H56.0886c0 2.2411 1.6236 3.697 3.9124 3.697 1.8315 0 3.2046-.8298 3.7756-2.2485h5.2908c-1.285 3.4932-4.4865 5.5359-9.0664 5.5359-5.7429 0-9.3168-3.1802-9.3168-8.2334Zm9.4336-5.02232c-2.2337 0-3.7215 1.19382-3.887 3.09432h7.776c-.173-1.9005-1.6628-3.09432-3.889-3.09432Zm-15.9182-.6239V6.72479H39.398V22.0784h4.8016v-6.8655c0-3.0953 1.718-4.9418 4.5183-4.9418.5422 0 1.2586.0298 1.5153.0573V6.29612c-.3724-.05732-.9985-.11352-1.3423-.11352-1.7424 0-3.2587.85523-4.6913 2.55418ZM18.2676 14.382c0-5.02132 3.6566-8.1994 9.8091-8.1994 6.1514 0 9.7773 3.17808 9.7773 8.1994 0 5.0542-3.6875 8.2344-9.7773 8.2344-6.091 0-9.8091-3.1802-9.8091-8.2344Zm5.2037.0329c0 2.6985 1.8018 4.5437 4.6054 4.5437 2.7452 0 4.5735-1.8781 4.5735-4.5766 0-2.6879-1.8283-4.53851-4.5735-4.53851-2.8036 0-4.6054 1.87611-4.6054 4.57141Zm58.1196-7.69329h6.2013L81.1877 14.382l7.063 7.6954h-6.3775l-3.5452-4.2839-3.4032 4.2839h-6.2935l6.8369-7.8334-6.0899-7.52239h6.005l3.0274 4.08749 3.1802-4.08749Z" fill="#74777E"/>
</svg>