<svg fill="none" xmlns="http://www.w3.org/2000/svg" viewBox="0 0 188 28">
  <path d="M23.8737 21.96H12.7931v5.5403H27.5L23.8737 21.96Z" fill="#74777E"/>
  <path d="M23.8737 0H0v27.5h6.4469V5.5403h17.4268v5.5403H12.7931v5.5403h10.9798c3.022 0 5.5403-2.4176 5.5403-5.5403V5.5403C29.3132 2.41759 26.8956 0 23.8737 0ZM161.172 8.05908c-4.23 0-6.95 2.11542-6.95 6.44692v3.7271c0 4.13 2.518 6.1447 7.555 6.1447h1.612v-2.3169h-1.612c-3.727 0-4.835-1.0073-4.835-4.0293V16.017h10.879v-1.6118c0-4.2307-2.619-6.34612-6.649-6.34612Zm-.1 2.31682c2.619 0 4.13 1.3096 4.13 3.4249h-8.26c.201-2.2161 1.309-3.4249 4.13-3.4249ZM144.552 15.2111v9.1667h2.719v-9.1667c0-3.4249.907-4.8352 4.735-4.8352V8.05908c-5.44 0-7.454 2.31682-7.454 7.15202ZM178.901 14.2038l-5.036-5.84247h-3.425l6.85 7.65567-7.757 8.3608h3.526l5.439-6.6483 5.843 6.6483h3.526l-7.757-8.3608 6.85-7.65567h-3.324l-4.735 5.84247ZM101.035 8.05908c-4.533 0-6.8499 2.21612-6.8499 6.64832v3.2235c0 4.4322 2.3169 6.6484 6.8499 6.6484 4.634 0 6.85-2.1154 6.85-6.5477v-3.4249c-.101-4.2308-2.317-6.54762-6.85-6.54762Zm-.101 2.21612c3.022 0 4.13 1.6117 4.13 4.533v3.1227c0 2.9212-1.209 4.533-4.13 4.533s-4.1298-1.6118-4.1298-4.533v-3.1227c0-2.9213 1.2088-4.533 4.1298-4.533ZM40.1924 3.82812V24.3776h2.7197v-8.8645h2.9213l6.1447 8.8645h3.3242l-6.5476-9.1667c3.0219-.7051 5.1373-1.9139 5.1373-5.64101 0-3.82784-2.619-5.74177-8.0586-5.74177h-5.641Zm2.8205 2.21613h2.9212c3.1227 0 5.3389.60439 5.3389 3.52564 0 3.22341-2.5183 3.62641-5.3389 3.62641h-2.9212V6.04425ZM133.572 8.05908c-4.533 0-6.85 2.21612-6.85 6.64832v3.2235c0 4.4322 2.317 6.6484 6.85 6.6484 4.633 0 6.849-2.1154 6.849-6.5477v-3.4249c-.1-4.2308-2.316-6.54762-6.849-6.54762Zm-.101 2.21612c3.022 0 4.13 1.6117 4.13 4.533v3.1227c0 2.9212-1.209 4.533-4.13 4.533s-4.13-1.6118-4.13-4.533v-3.1227c0-2.9213 1.209-4.533 4.13-4.533ZM112.116 6.14498V24.3776h2.719v-9.3681h8.663v-2.3169h-8.663V6.14498h8.663V3.82812h-11.382v2.31686ZM76.154 1.71289V18.2331c0 4.13 2.4175 6.3461 6.9505 6.3461 4.533 0 6.6484-2.1154 6.6484-6.5476v-3.6264c.1007-4.13-2.2161-6.34614-6.1447-6.34614-2.0147 0-3.4249.60439-4.7344 1.71245V1.71289H76.154Zm6.8498 8.66301c3.022 0 4.13 1.6117 4.13 4.2308v3.6264c0 2.619-.9066 4.2307-4.13 4.2307-2.8205 0-4.13-1.4102-4.13-4.2307v-3.6264c0-2.8205 1.4102-4.2308 4.13-4.2308ZM65.1741 8.05908c-4.533 0-6.8498 2.21612-6.8498 6.64832v3.2235c0 4.4322 2.3168 6.6484 6.8498 6.6484 4.6337 0 6.8498-2.1154 6.8498-6.5477v-3.4249c-.1007-4.2308-2.3168-6.54762-6.8498-6.54762Zm-.1007 2.21612c3.0219 0 4.13 1.6117 4.13 4.533v3.1227c0 2.9212-1.2088 4.533-4.13 4.533-2.9213 0-4.1301-1.6118-4.1301-4.533v-3.1227c0-2.9213 1.2088-4.533 4.1301-4.533Z" fill="#74777E"/>
</svg>