<svg viewBox="0 0 31 30" fill="none" xmlns="http://www.w3.org/2000/svg">
  <path d="M21.9005 9.81093c-.1658-.41371-.3553-.70922-.6633-1.01655-.3079-.30733-.604-.49645-1.0186-.66194-.308-.1182-.7817-.26005-1.6345-.30733-.9358-.04728-1.2082-.04728-3.5652-.04728-2.3571 0-2.6295.01182-3.5652.04728-.8647.03546-1.3266.17731-1.63458.30733-.41456.16549-.71067.35461-1.01863.66194-.30796.30733-.49747.60284-.66329 1.01655-.11845.30737-.26058.78017-.30796 1.63117-.04738.9338-.04738 1.2057-.04738 3.558 0 2.3522.01185 2.6241.04738 3.5579.03553.8629.17767 1.3239.30796 1.6312.16582.4137.35533.7092.66329 1.0165.30796.3074.60407.4965 1.01863.662.30798.1182.78178.26 1.63458.3073.9357.0473 1.2081.0473 3.5652.0473 2.357 0 2.6294-.0118 3.5652-.0473.8646-.0355 1.3265-.1773 1.6345-.3073.4146-.1655.7107-.3546 1.0186-.662.308-.3073.4975-.6028.6633-1.0165.1185-.3073.2606-.7802.308-1.6312.0474-.9338.0473-1.2057.0473-3.5579 0-2.3523-.0118-2.6242-.0473-3.558-.0356-.8628-.1777-1.3238-.308-1.63117Zm-6.8698 9.70447c-2.4992 0-4.5246-2.0213-4.5246-4.5153 0-2.4941 2.0254-4.5154 4.5246-4.5154 2.4992 0 4.5246 2.0213 4.5246 4.5154 0 2.494-2.0254 4.5153-4.5246 4.5153Zm4.7023-8.156c-.5804 0-1.0542-.4728-1.0542-1.052 0-.57921.4738-1.05203 1.0542-1.05203s1.0541.47282 1.0541 1.05203c.0119.5792-.4619 1.052-1.0541 1.052Z" fill="#494949"/>
  <path d="M16.0032 17.7645c1.5308-.5358 2.3365-2.2087 1.7995-3.7364-.537-1.5276-2.2133-2.3317-3.7441-1.7958-1.5308.5359-2.3364 2.2088-1.7994 3.7364.5369 1.5277 2.2132 2.3317 3.744 1.7958Z" fill="#494949"/>
  <path d="M27.1002 0H2.96113C1.32658 0 0 1.32388 0 2.95508V27.0449C0 28.6761 1.32658 30 2.96113 30H27.1002c1.6346 0 2.9612-1.3239 2.9612-2.9551V2.95508C30.0614 1.32388 28.7348 0 27.1002 0Zm-3.3046 18.6288c-.0474.9338-.1895 1.5721-.4145 2.1395-.2251.5792-.5212 1.0757-1.0187 1.5603-.4856.4846-.9831.792-1.5634 1.0166-.5567.2127-1.2082.3664-2.1439.4137-.9357.0472-1.2437.0472-3.6363.0472s-2.7005-.0118-3.6362-.0472c-.9357-.0473-1.57535-.1892-2.14388-.4137-.58039-.2246-1.07785-.5201-1.56348-1.0166-.48562-.4846-.79358-.9811-1.01863-1.5603-.2132-.5555-.36718-1.2057-.41455-2.1395-.04738-.9338-.04738-1.2411-.04738-3.6288 0-2.3877.01184-2.695.04738-3.6288.04737-.9338.18951-1.57215.41455-2.13952.22505-.5792.52116-1.07565 1.01863-1.56029.48563-.48463.98309-.79196 1.56348-1.01654.55669-.21277 1.20818-.36643 2.14388-.41372.9357-.04728 1.2436-.04728 3.6362-.04728s2.7006.01182 3.6363.04728c.9357.04729 1.5753.18913 2.1439.41372.5803.22458 1.0778.52009 1.5634 1.01654.4857.48464.7936.98109 1.0187 1.56029.2132.55555.3671 1.20572.4145 2.13952.0474.9338.0474 1.2411.0474 3.6288 0 2.3877 0 2.6832-.0474 3.6288Z" fill="#494949"/>
</svg>