<svg viewBox="0 0 31 30" fill="none" xmlns="http://www.w3.org/2000/svg">
  <path d="M27.3918 0H3.26456C1.63002 0 .303436 1.32388.303436 2.95508V27.0331c0 1.6312 1.326584 2.9551 2.961124 2.9551H27.4037c1.6345 0 2.9611-1.3239 2.9611-2.9551V2.95508C30.3529 1.32388 29.0264 0 27.3918 0Zm-3.044 8.67612L21.5762 22.3877c-.2014.9693-.7936 1.2057-1.6109.7565l-4.4298-3.2624c-1.0423 1.0047-1.6938 1.643-2.132 2.0567-.3672.331-.5094.461-.8647.4492-.3435 0-.4975-.2128-.6988-.7565l-1.6346-4.9882-4.25213-1.3239c-.68699-.2245-.72252-1.1347.2132-1.4066L23.1633 7.49409c.7818-.36643 1.4806-.01182 1.1845 1.18203Z" fill="#494949"/>
  <path d="m20.5694 10.2718-9.677 6.0638 1.6464 5.0355.4146-3.6052 8.0306-7.2104c.2132-.2483.0592-.60287-.4146-.2837Z" fill="#494949"/>
</svg>