<svg viewBox="0 0 71 70" fill="none" xmlns="http://www.w3.org/2000/svg">
  <path d="M41.0471 70H29.5942l-.8246-3.9398c-1.0994-.1832-2.1989-.4581-3.2984-.8246l-2.7487 3.0236-9.8953-5.6807 1.1911-3.8481c-.8246-.733-1.5576-1.5576-2.2906-2.2906l-4.03137 1.2827-5.68061-9.8953 3.2068-2.9319c-.27486-.9162-.54975-1.9241-.733-2.8403L0 41.0471V29.5942l4.76441-1.0078c.18325-.733.4581-1.5576.73297-2.3822L1.6492 22.7225l5.77227-9.8953 5.13093 1.6492 1.3743-1.3743-1.7408-5.40576 9.8953-5.68063 3.9397 4.30628c.5498-.18325 1.0079-.27487 1.5576-.36649L28.8613 0h11.4528l1.2828 5.9555c.4581.09162.9162.18324 1.3743.36649l4.2147-4.67278 9.8952 5.77226-1.8324 5.77223c.3665.3665.733.6414 1.0079 1.0079l5.9555-1.9241 5.7722 9.8953-4.2147 3.8481c.1833.5498.3665 1.0995.5498 1.6493l5.7722 1.1911v11.4528l-5.1308 1.0995c-.0917.733-.2749 1.466-.4582 2.199l3.9398 3.5733-5.7722 9.8953-4.4896-1.466c-.5497.733-1.1911 1.3743-1.8324 2.0157l1.4659 4.5811-9.9869 5.7723-2.8403-3.1152c-1.0078.3665-2.0157.6414-3.0236.9162L41.0471 70Zm-9.1623-2.8403h6.8717l.8247-3.7566.9162-.1832c1.466-.2749 2.9319-.733 4.3979-1.3743l.9162-.3665 2.5655 2.8403 5.9555-3.4817-1.2827-4.0314.6413-.6414c1.0078-1.0078 2.0157-2.0157 2.8403-3.1152l.6414-.7329 4.123 1.3743 3.4817-5.9555-3.5733-3.2068.2748-.8246c.3665-1.0995.5498-2.2906.8247-3.6649l.1832-1.0079 4.7644-1.0078v-6.8718l-5.2225-1.0994-.1832-.8246c-.2749-1.0995-.5498-2.1074-1.0079-3.1152l-.3665-.9163 3.9398-3.5733-3.4817-5.9555-5.4058 1.7409-.6413-.6414c-.733-.733-1.466-1.466-2.1989-2.1073l-.733-.6414 1.7408-5.31411-5.9555-3.48168-3.8482 4.30629-.8246-.27487c-.9162-.27487-1.9241-.54974-2.8403-.73299l-.9162-.18324-1.1911-5.49739h-6.9634L29.9607 8.3377l-.9162.18324c-1.0078.18325-2.0157.45812-3.0236.82461l-.8246.27487-3.5733-4.03141-5.9555 3.48167 1.6492 5.03922-.7329.6414c-.8246.733-1.6492 1.466-2.4739 2.4738l-.6413.6414-4.67278-1.5576-3.48169 5.9555 3.48169 3.2068-.36649.9162c-.54974 1.3744-.91624 2.6571-1.09949 3.8482l-.18325.9162-4.30627.9163v6.8717l4.12304.9162.18323.9163c.27487 1.4659.64137 2.9319 1.09948 4.3062l.27486.9163-2.93192 2.657 3.48167 5.9555 3.66492-1.1911.6414.733c1.0078 1.1911 2.1073 2.2906 3.2984 3.2985l.733.6413-1.0995 3.3901 5.9555 3.4816 2.4738-2.7487.9163.2749c1.4659.5498 3.0235.9162 4.6727 1.1911l.9163.1833.6413 3.2984Z" fill="#F86A2E"/>
  <path d="M49.8429 38.9394c-.6413 2.5655-2.0157 5.0393-3.9397 6.9634-2.932 2.9319-6.6885 4.4895-10.8116 4.4895-2.6571 0-5.3141-.733-7.6047-2.0157l9.3456-9.3455h13.0104v-.0917Zm3.2985-2.8403h-17.5L23.089 48.6515C26.3874 51.5834 30.6021 53.141 35 53.141c4.856 0 9.3456-1.9241 12.8272-5.3141 3.2068-3.2068 5.1309-7.3299 5.3142-11.7278Z" fill="#282D33"/>
  <path d="M39.123 20.2486c5.1309 1.3744 9.1623 5.2225 10.6283 10.2618H39.123V20.2486Zm-2.8403-3.2984v16.4005h16.8586c-.8246-8.979-7.9712-15.8508-16.8586-16.4005ZM49.8429 38.9394c-.6413 2.5655-2.0157 5.0393-3.9397 6.9634-2.932 2.9319-6.6885 4.4895-10.8116 4.4895-2.6571 0-5.3141-.733-7.6047-2.0157l9.3456-9.3455h13.0104v-.0917Zm3.2985-2.8403h-17.5L23.089 48.6515C26.3874 51.5834 30.6021 53.141 35 53.141c4.856 0 9.3456-1.9241 12.8272-5.3141 3.2068-3.2068 5.1309-7.3299 5.3142-11.7278Z" fill="#F86A2E"/>
  <path d="M35 58.3637c-5.6806 0-11.178-2.1074-15.4843-5.8639l1.8324-2.1073c3.7566 3.2984 8.6126 5.1309 13.5603 5.1309 11.2696 0 20.5235-9.1624 20.5235-20.5236 0-10.9948-8.5209-19.9738-19.5157-20.4319l.0916-2.8404c12.4608.5498 22.1728 10.8116 22.1728 23.2723C58.2722 47.9186 47.8272 58.3637 35 58.3637Z" fill="#fff"/>
  <path d="M30.6021 15.3015V33.168L18.0498 45.9953c-2.1074-3.2069-3.2068-7.055-3.2068-10.9948 0-9.5288 6.6884-17.5916 15.7591-19.699Zm2.7487-3.2068c-12.0026.8246-21.4398 10.8115-21.4398 22.9974 0 5.8639 2.199 11.178 5.7723 15.3011l15.5759-15.9424V12.0947h.0916Z" fill="#F86A2E"/>
</svg>