<svg viewBox="0 0 53 70" fill="none" xmlns="http://www.w3.org/2000/svg">
  <path d="M33.4585 70H3.53626C1.63212 70 0 68.4585 0 66.4637V3.53627C0 1.63212 1.54145 0 3.53626 0H33.4585c1.9042 0 3.5363 1.54145 3.5363 3.53627V15.2332h-2.8109V3.53627c0-.45337-.3627-.72539-.7254-.72539H3.53626c-.45336 0-.72537.3627-.72537.72539V66.5544c0 .4534.36268.7254.72537.7254H33.4585c.4534 0 .7254-.3627.7254-.7254V51.1399h2.8109v15.4145c0 1.9041-1.5414 3.4456-3.5363 3.4456Z" fill="#F86A2E"/>
  <path d="M31.9171 56.9429H5.16841v2.8109H31.9171v-2.8109ZM31.9171 9.70215H5.16841V12.513H31.9171V9.70215Z" fill="#F86A2E"/>
  <path d="M24.2099 4.71484H12.785v2.81088h11.4249V4.71484ZM19.9482 61.6582h-2.8109v2.8109h2.8109v-2.8109Z" fill="#fff"/>
  <path d="M19.5855 34.5469h-6.8912v2.8109h6.8912v-2.8109ZM24.7539 40.5312H12.6943v2.8109h12.0596v-2.8109ZM29.0155 34.5469h-6.1657v2.8109h6.1657v-2.8109ZM38.4456 34.5469h-6.1658v2.8109h6.1658v-2.8109ZM47.9663 34.5469h-6.1658v2.8109h6.1658v-2.8109Z" fill="#F86A2E"/>
  <path d="M49.4171 17.6812H11.5156c-1.99486 0-3.53634 1.6321-3.53634 3.5362v24.1192c0 1.9948 1.63215 3.5363 3.53634 3.5363h37.9015c1.9948 0 3.5363-1.6322 3.5363-3.5363V21.2174c0-1.9041-1.5415-3.5362-3.5363-3.5362ZM11.5156 20.492h37.9015c.4534 0 .8161.3627.8161.8161v1.9041H10.7901v-1.9041c0-.4534.2721-.8161.7255-.8161Zm38.7176 5.4404v3.2643H10.7901v-3.2643h39.4431Zm-.8161 20.2203H11.5156c-.4534 0-.8161-.3627-.8161-.8161v-13.329h39.443v13.4197c.0906.3627-.272.7254-.7254.7254Z" fill="#fff"/>
</svg>