<svg viewBox="0 0 70 70" fill="none" xmlns="http://www.w3.org/2000/svg">
  <path d="M68.2 58.3999h-8.6v-24h3.1v20.9h2.4v-20.9h3.1v24Z" fill="#fff"/>
  <path d="M64.7 59.3003v2.9c-.3.2-.5.5-.7.8-.2-.3-.4-.6-.7-.8v-2.9h-3.1v4.9l1.1.3c.5.4 1.2 2.3 1.2 3.8h3.1c0-1.5.7-3.4 1.2-3.8l1.1-.3v-4.9h-3.2ZM64.5 5.1001h-1.2c-2.5 0-4.6 2-4.6 4.6v1.1h-.4c-2.5 0-4.6 2-4.6 4.6v15.7h3.1v-15.8c0-.8.7-1.5 1.5-1.5h.4v21.3h10.4v-25.4c0-2.5-2-4.6-4.6-4.6Zm-2.7 4.6c0-.8.7-1.5 1.5-1.5h1.3c.8 0 1.5.7 1.5 1.5v1.1h-4.2v-1.1h-.1Zm0 22.4v-18.3H66v18.2h-4.2v.1ZM50.5 70H0V0h31.7v3.1H3.10001v63.8H47.4V18.8h3.1V70Z" fill="#F86A2E"/>
  <path d="M50.7 15.7H35V0l15.7 15.7Zm-12.6-3h5.2l-5.2-5.2v5.2Z" fill="#F86A2E"/>
  <path d="M23.1 15.1001H8.40002v3.1H23.1v-3.1ZM39.3 24.2002H8.10001v3.1H39.3v-3.1ZM39.3 31.8999H8.10001v3.1H39.3v-3.1ZM39.3 39.7002H8.10001v3.1H39.3v-3.1ZM39.1 47.3999H8.10001v3.1H39.1v-3.1ZM18.1 55.2002H8.10001v3.1H18.1v-3.1Z" fill="#fff"/>
</svg>