<svg viewBox="0 0 67 70" fill="none" xmlns="http://www.w3.org/2000/svg">
  <path d="M66.15 51.6249V15.8374c0-1.6625-1.4-3.0625-3.0625-3.0625H56.875v2.7125h6.2125c.175 0 .35.175.35.35v35.7875H2.7125V15.8374c0-.175.175-.35.35-.35H9.275v-2.7125H3.0625C1.4 12.7749 0 14.1749 0 15.8374v42.4375c0 1.8375 1.6625 3.5 3.4125 3.5H24.675v.875c0 1.1375 0 2.625-.0875 3.325-.0875.4375-.175.6125-.175.7-.0875 0-.175.0875-.175.0875l-.0875.0875c-.175.0875-.6125.2625-1.05.525h-1.6625v2.625h23.45v-2.7125H43.05c-.4375-.175-.7875-.35-1.05-.525-.0875-.0875-.175-.0875-.175-.0875 0-.0875-.0875-.2625-.175-.7-.175-.7-.0875-2.1875-.0875-3.325v-.875h21.7c1.8375 0 2.975-1.75 2.975-3.4125l-.0875-6.7375Zm-27.2125 14.875c.0875.35.0875.6125.175.7875h-12.075c.0875-.2625.175-.525.175-.7875.175-1.05.175-2.45.175-3.85v-.7875H38.85v.875c-.0875 1.3125-.0875 2.7125.0875 3.7625Zm24.2375-7.35H3.4125c-.2625 0-.7-.525-.7-.7875v-3.9375H63.525v4.025c0 .35-.2625.7-.35.7Z" fill="#F86A2E"/>
  <path d="M56.875 17.7622v2.7125h1.575v26.075h-4.2875v-33.6H51.45v36.3125h9.7125v-31.5H56.875ZM12.1625 0v46.55H7.61249V20.475h1.75v-2.7125h-4.375v31.5h9.80001v-46.55H41.825V0H12.1625ZM46.375 6.5624l1.225 1.225h-1.225v-1.225ZM43.6625.0874023V10.4999H54.075L43.6625.0874023Z" fill="#F86A2E"/>
  <path d="M45.4125 12.7749h-18.9v2.7125h18.9v-2.7125ZM45.4125 17.6753h-18.9v2.7125h18.9v-2.7125ZM20.9125 19.425 18.025 17.5l1.4-2.275.9625.6125 2.1-2.7125 2.1 1.6625-3.675 4.6375ZM45.4125 25.2876h-18.9v2.7125h18.9v-2.7125ZM45.4125 30.1875h-18.9V32.9h18.9v-2.7125ZM20.9125 31.9372l-2.8875-1.8375 1.4-2.275.9625.525 2.1-2.7125 2.1 1.75-3.675 4.55ZM45.4125 37.8872h-18.9v2.7125h18.9v-2.7125ZM45.4125 42.6997h-18.9v2.7125h18.9v-2.7125ZM20.9125 44.5378l-2.8875-1.925 1.4-2.275.9625.6125 2.1-2.7125 2.1 1.6625-3.675 4.6375Z" fill="#fff"/>
</svg>