<svg width="70" height="70" viewBox="0 0 70 70" fill="none" xmlns="http://www.w3.org/2000/svg">
<path d="M68.2 58.3999H59.6V34.3999H62.7V55.2999H65.1V34.3999H68.2V58.3999Z" fill="white"/>
<path d="M64.7 59.3003V62.2003C64.4 62.4003 64.2 62.7003 64 63.0003C63.8 62.7003 63.6 62.4003 63.3 62.2003V59.3003H60.2V64.2003L61.3 64.5003C61.8 64.9003 62.5 66.8003 62.5 68.3003H65.6C65.6 66.8003 66.3 64.9003 66.8 64.5003L67.9 64.2003V59.3003H64.7Z" fill="#F86A2E"/>
<path d="M64.5 5.1001H63.3C60.8 5.1001 58.7 7.1001 58.7 9.7001V10.8001H58.3C55.8 10.8001 53.7 12.8001 53.7 15.4001V31.1001H56.8V15.3001C56.8 14.5001 57.5 13.8001 58.3 13.8001H58.7V35.1001H69.1V9.7001C69.1 7.2001 67.1 5.1001 64.5 5.1001ZM61.8 9.7001C61.8 8.9001 62.5 8.2001 63.3 8.2001H64.6C65.4 8.2001 66.1 8.9001 66.1 9.7001V10.8001H61.9V9.7001H61.8ZM61.8 32.1001V13.8001H66V32.0001H61.8V32.1001Z" fill="#F86A2E"/>
<path d="M50.5 70H0V0H31.7V3.1H3.10001V66.9H47.4V18.8H50.5V70Z" fill="#F86A2E"/>
<path d="M50.7 15.7H35V0L50.7 15.7ZM38.1 12.7H43.3L38.1 7.5V12.7Z" fill="#F86A2E"/>
<path d="M23.1 15.1001H8.40002V18.2001H23.1V15.1001Z" fill="white"/>
<path d="M39.3 24.2002H8.10001V27.3002H39.3V24.2002Z" fill="white"/>
<path d="M39.3 31.8999H8.10001V34.9999H39.3V31.8999Z" fill="white"/>
<path d="M39.3 39.7002H8.10001V42.8002H39.3V39.7002Z" fill="white"/>
<path d="M39.1 47.3999H8.10001V50.4999H39.1V47.3999Z" fill="white"/>
<path d="M18.1 55.2002H8.10001V58.3002H18.1V55.2002Z" fill="white"/>
</svg>
